<?xml version="1.0" standalone="no"?>
<!DOCTYPE svg PUBLIC "-//W3C//DTD SVG 1.1//EN" "http://www.w3.org/Graphics/SVG/1.1/DTD/svg11.dtd" >
<svg xmlns="http://www.w3.org/2000/svg" xmlns:xlink="http://www.w3.org/1999/xlink" version="1.1">
<metadata>
Created by FontForge 20170731 at Thu Jun 22 03:35:50 2023
 By Aleksey,,,
Copyright (c) 2010 by Jonathan Hill. All rights reserved.
</metadata>
<defs>
<font id="Norpeth-Bold" horiz-adv-x="1392" >
  <font-face 
    font-family="Norpeth Bold"
    font-weight="700"
    font-stretch="normal"
    units-per-em="2048"
    panose-1="0 0 8 0 0 0 0 0 0 0"
    ascent="1536"
    descent="-512"
    x-height="1024"
    cap-height="1434"
    bbox="-152 -444 2175 2193"
    underline-thickness="102"
    underline-position="-307"
    unicode-range="U+0020-FB06"
  />
<missing-glyph horiz-adv-x="1024" 
d="M0 0v1434h1024v-1434h-1024zM512 809l348 522h-696zM573 717l349 -522v1044zM164 102h696l-348 523zM102 1239v-1044l349 522z" />
    <glyph glyph-name="f_f" unicode="ff" horiz-adv-x="1333" 
d="M1271 1251h-135q-38 0 -65.5 -25.5t-27.5 -70.5v-131h228v-197h-228v-827h-256v827h-379v-827h-256v827h-96v197h96v159q0 111 88 189t207 78h189v-199h-135q-38 0 -65.5 -25.5t-27.5 -70.5v-131h379v159q0 111 88.5 189t207.5 78h188v-199z" />
    <glyph glyph-name="fi" unicode="fi" horiz-adv-x="1200" 
d="M637 1251h-135q-38 0 -65.5 -25.5t-27.5 -70.5v-131h667v-1024h-255v827h-412v-827h-256v827h-96v197h96v159q0 109 86 188t209 79h189v-199z" />
    <glyph glyph-name="fl" unicode="fl" horiz-adv-x="1081" 
d="M1002 1h-255v1251h-246q-38 0 -65.5 -25.5t-27.5 -70.5v-131h228v-197h-228v-827h-256v827h-96v197h96v159q0 111 88 189t207 78h555v-1450z" />
    <glyph glyph-name="f_f_i" unicode="ffi" horiz-adv-x="1888" 
d="M1765 0h-256v827h-412v-827h-256v827h-432v-827h-256v827h-96v197h96v159q0 109 86 188t209 79h189v-199h-135q-38 0 -65.5 -25.5t-27.5 -70.5v-131h432v159q0 109 86 188t209 79h189v-199h-135q-38 0 -65.5 -25.5t-27.5 -70.5v-131h668v-1024z" />
    <glyph glyph-name="f_f_l" unicode="ffl" horiz-adv-x="1716" 
d="M1636 0h-255v1251h-246q-38 0 -65.5 -25.5t-27.5 -70.5v-131h228v-197h-228v-827h-256v827h-378v-827h-256v827h-96v197h96v159q0 111 88 189t207 78h185v-199h-131q-38 0 -65.5 -25.5t-27.5 -70.5v-131h378v159q0 111 88.5 189t207.5 78h554v-1450z" />
    <glyph glyph-name=".notdef" horiz-adv-x="1024" 
d="M0 0v1434h1024v-1434h-1024zM512 809l348 522h-696zM573 717l349 -522v1044zM164 102h696l-348 523zM102 1239v-1044l349 522z" />
    <glyph glyph-name=".null" horiz-adv-x="0" 
 />
    <glyph glyph-name="nonmarkingreturn" horiz-adv-x="682" 
 />
    <glyph glyph-name="space" unicode=" " horiz-adv-x="614" 
 />
    <glyph glyph-name="exclam" unicode="!" horiz-adv-x="428" 
d="M345 347h-256v1088h256v-1088zM355 0h-275v195h275v-195z" />
    <glyph glyph-name="quotedbl" unicode="&#x22;" horiz-adv-x="741" 
d="M306 1050h-208l-16 393h241zM643 1050h-208l-17 393h241z" />
    <glyph glyph-name="numbersign" unicode="#" horiz-adv-x="1163" 
d="M942 939h137v-154h-168l-67 -309h235v-153h-269l-68 -323h-190l65 323h-201l-69 -323h-191l66 323h-138v153h170l68 309h-238v154h269l101 459h194l-102 -459h203l105 459h196zM519 785l-67 -309h195l67 309h-195z" />
    <glyph glyph-name="dollar" unicode="$" horiz-adv-x="1091" 
d="M635 1570v-121q178 -5 302 -60l-22 -226q-135 62 -330 64h-74q-64 0 -108.5 -42t-44.5 -101v-26q0 -43 24.5 -77.5t63.5 -53.5l313 -140q140 -57 198 -133t58 -217v-33q-1 -183 -96.5 -289.5t-261.5 -122.5l-21 -4v-119h-179v115q-221 8 -369 64l19 225
q115 -39 212.5 -54.5t243.5 -14.5q73 0 123 50t50 123v36q0 99 -99 149l-324 142q-130 54 -183.5 121t-54.5 195v28q0 173 90 276.5t251 119.5l40 2v124h179z" />
    <glyph glyph-name="percent" unicode="%" horiz-adv-x="1490" 
d="M362 -35h-181l935 1503h180zM310 1446h58q91 0 161 -56t70 -151v-339q0 -96 -71 -151t-162 -55h-55q-89 0 -160.5 54.5t-71.5 151.5v339q0 65 36.5 114t87.5 71t107 22zM343 1326h-7q-43 0 -76.5 -22.5t-32.5 -69.5v-329q0 -47 34 -70t75 -23h7q43 0 75.5 23.5t31.5 69.5
v329q0 45 -32 68t-75 24zM1124 739h60q90 0 160 -56t70 -151v-339q0 -95 -70.5 -150t-161.5 -55h-57q-89 0 -160 54.5t-71 150.5v339q0 97 71 152t159 55zM1158 619h-7q-43 0 -76.5 -22.5t-32.5 -69.5v-329q0 -47 32.5 -69.5t73.5 -22.5h8q44 0 77 23t32 69v329
q0 46 -32.5 69t-74.5 23z" />
    <glyph glyph-name="ampersand" unicode="&#x26;" horiz-adv-x="1341" 
d="M514 1438h21q134 0 223 -81t89 -189v-84q0 -109 -98 -196l-87 -79l258 -343q11 33 11 69v68h208l-20 -279q-2 -57 -22 -109l170 -217h-291l-63 86q-46 -44 -108 -71t-127 -27h-174q-182 0 -303.5 112.5t-121.5 273.5v73q0 78 38.5 154t105.5 135l108 98l-85 112
q-45 72 -45 141v84q0 108 89.5 188.5t223.5 80.5zM532 1256h-16q-45 0 -75.5 -29.5t-30.5 -71.5v-79q0 -44 25 -66l75 -94l91 80q36 30 36 80v79q0 41 -30.5 71t-74.5 30zM485 634l-97 -89q-64 -57 -64 -140v-59q0 -79 51 -132t124 -53h142q43 0 80 21.5t60 59.5z" />
    <glyph glyph-name="quotesingle" unicode="'" horiz-adv-x="403" 
d="M306 1050h-208l-16 393h241z" />
    <glyph glyph-name="parenleft" unicode="(" horiz-adv-x="589" 
d="M315 1531l196 -109q-48 -136 -115.5 -399t-67.5 -417q0 -99 44.5 -305t84.5 -350t51 -174l-191 -94q-29 48 -86.5 221.5t-108 383t-50.5 318.5q0 123 50.5 326.5t101 351.5t91.5 247z" />
    <glyph glyph-name="parenright" unicode=")" horiz-adv-x="589" 
d="M78 1422l196 109q41 -99 91.5 -247t101 -351.5t50.5 -326.5q0 -109 -50.5 -318.5t-108 -383t-86.5 -221.5l-191 94q11 30 51 174t84.5 350t44.5 305q0 154 -67.5 417t-115.5 399z" />
    <glyph glyph-name="asterisk" unicode="*" horiz-adv-x="759" 
d="M442 1252l141 143l91 -90l-206 -206l206 -205l-91 -89l-141 141v-202h-126v202l-142 -141l-89 89l205 205l-205 206l89 90l142 -143v202h126v-202z" />
    <glyph glyph-name="plus" unicode="+" horiz-adv-x="1114" 
d="M664 719h383v-213h-383v-383h-213v383h-383v213h383v383h213v-383z" />
    <glyph glyph-name="comma" unicode="," horiz-adv-x="432" 
d="M355 78l-114 -215h-160l67 131h-67v226h274v-142z" />
    <glyph glyph-name="hyphen" unicode="-" horiz-adv-x="888" 
d="M808 529h-726v197h726v-197z" />
    <glyph glyph-name="period" unicode="." horiz-adv-x="436" 
d="M356 0h-274v220h274v-220z" />
    <glyph glyph-name="slash" unicode="/" horiz-adv-x="929" 
d="M246 0h-199l638 1434h198z" />
    <glyph glyph-name="zero" unicode="0" horiz-adv-x="1097" 
d="M459 1394h193q146 0 250 -99.5t104 -245.5v-715q0 -146 -104 -246t-250 -100h-193q-157 0 -262.5 99t-105.5 247v715q0 148 106.5 246.5t261.5 98.5zM608 1174h-113q-66 0 -109.5 -44.5t-43.5 -111.5v-654q0 -69 43.5 -113t109.5 -44h113q64 0 106.5 44.5t42.5 112.5v654
q0 67 -43 111.5t-106 44.5z" />
    <glyph glyph-name="one" unicode="1" horiz-adv-x="733" 
d="M580 0h-264v1141l-199 -60l-61 205l350 108h174v-1394z" />
    <glyph glyph-name="two" unicode="2" horiz-adv-x="1067" 
d="M485 1397h126q150 0 255.5 -99t105.5 -241v-43q0 -95 -56 -178.5t-150 -133.5l-300 -159q-52 -27 -85 -75t-33 -110v-164h624v-194h-875v389q0 213 224 329l322 168q36 19 59 52t23 75v26q0 59 -42.5 100.5t-105.5 42.5h-87q-177 0 -309 -50l-28 192q138 73 332 73z" />
    <glyph glyph-name="three" unicode="3" horiz-adv-x="1064" 
d="M440 1397h126q150 0 255 -99t105 -241v-77q0 -82 -43.5 -144.5t-111.5 -93.5q76 -33 121 -101.5t45 -148.5v-162q0 -144 -105.5 -242t-255.5 -100h-136q-202 0 -331 78l38 171q69 -27 138.5 -38t172.5 -11h73q67 0 111.5 43.5t44.5 106.5v155q0 64 -44.5 107.5
t-111.5 44.5h-138v185h138q67 0 111.5 43t44.5 107v66q0 64 -44.5 107.5t-111.5 44.5h-68q-200 0 -318 -44l-37 170q138 73 332 73z" />
    <glyph glyph-name="four" unicode="4" horiz-adv-x="1103" 
d="M307 484h330l64 420h171v-420h181v-199h-181v-284h-235v284h-586v129l386 980h229z" />
    <glyph glyph-name="five" unicode="5" horiz-adv-x="1038" 
d="M856 1194h-479l-25 -309h195q152 0 261.5 -98t109.5 -233v-225q0 -144 -105.5 -242.5t-254.5 -98.5h-136q-222 0 -348 89l37 172q123 -64 313 -62h89q67 0 111.5 43.5t44.5 106.5v195q-1 62 -45 104.5t-108 43.5h-332l-96 77l67 636h701v-199z" />
    <glyph glyph-name="six" unicode="6" horiz-adv-x="1136" 
d="M565 1394h127q113 0 295 -38v-190q-164 26 -292 28h-117q-84 0 -139.5 -55t-55.5 -144v-142q131 23 192 23h135q143 0 236 -92t93 -252v-198q0 -153 -103.5 -249.5t-251.5 -96.5h-188q-171 0 -269 103t-98 296v595q0 187 123 299.5t313 112.5zM641 678h-115
q-87 0 -148 -38v-297q0 -69 43.5 -113t111.5 -44h108q62 0 105 44.5t43 112.5v178q0 67 -43 112t-105 45z" />
    <glyph glyph-name="seven" unicode="7" horiz-adv-x="1040" 
d="M436 0h-276l471 1194h-578v200h932z" />
    <glyph glyph-name="eight" unicode="8" horiz-adv-x="1173" 
d="M512 1397h152q150 0 255.5 -98.5t105.5 -240.5v-82q0 -79 -42 -142t-106 -93q76 -32 122 -101.5t46 -149.5v-164q0 -142 -105.5 -241t-255.5 -99h-194q-151 0 -256 100t-105 240v164q0 83 48.5 152.5t119.5 100.5q-69 33 -108 95.5t-39 137.5v82q1 142 107 240.5
t255 98.5zM631 1198h-86q-67 0 -111 -43.5t-44 -107.5v-71q0 -63 44 -106t111 -43h91q66 1 108 43.5t42 105.5v71q0 64 -44 107.5t-111 43.5zM640 642h-106q-67 0 -111 -43.5t-44 -107.5v-156q0 -64 44 -107.5t111 -43.5h106q67 0 111 43.5t44 107.5v156q0 64 -44 107.5
t-111 43.5z" />
    <glyph glyph-name="nine" unicode="9" horiz-adv-x="1136" 
d="M453 1394h188q171 0 269 -103.5t98 -296.5v-595q0 -187 -123 -299t-313 -112h-127q-118 0 -295 37v190q164 -26 292 -28h117q84 0 139.5 55.5t55.5 144.5v170q-137 -24 -192 -24h-135q-143 0 -236.5 92.5t-93.5 252.5v169q0 153 104 250t252 97zM604 1195h-109
q-62 0 -104.5 -44.5t-42.5 -112.5v-149q0 -67 43 -112t104 -45h116q87 0 148 38v268q0 69 -43.5 113t-111.5 44z" />
    <glyph glyph-name="colon" unicode=":" horiz-adv-x="413" 
d="M345 565v-281h-274v281h274z" />
    <glyph glyph-name="semicolon" unicode=";" horiz-adv-x="417" 
d="M347 630h-274v220h274v-220zM347 78l-114 -215h-160l67 131h-67v226h274v-142z" />
    <glyph glyph-name="less" unicode="&#x3c;" horiz-adv-x="899" 
d="M819 885l-509 -246l509 -244v-268l-751 368v290l751 368v-268z" />
    <glyph glyph-name="equal" unicode="=" horiz-adv-x="1134" 
d="M1057 704h-979v212h979v-212zM1057 326h-979v212h979v-212z" />
    <glyph glyph-name="greater" unicode="&#x3e;" horiz-adv-x="899" 
d="M832 785v-290l-752 -368v268l509 244l-509 246v268z" />
    <glyph glyph-name="question" unicode="?" horiz-adv-x="995" 
d="M439 1450h126q150 0 255.5 -98.5t105.5 -240.5v-43q0 -95 -56 -179.5t-150 -133.5l-187 -99q-52 -27 -85 -75.5t-33 -110.5v-62h-250v94q0 212 224 328l208 109q36 19 59 52.5t23 75.5v25q0 59 -42 100.5t-105 42.5h-88q-177 0 -309 -50l-28 192q138 73 332 73zM428 0
h-274v195h274v-195z" />
    <glyph glyph-name="at" unicode="@" horiz-adv-x="1515" 
d="M521 1300h473q183 0 311 -127t128 -310v-226q0 -146 -85.5 -261.5t-220.5 -159.5h-235l-8 63q-126 -73 -229 -73q-97 0 -161 58t-65 154v23q1 60 26 102t68 63.5t89 30.5t100 9q70 0 149 -15v55q0 45 -26.5 74t-58 38.5t-65.5 9.5q-84 0 -201 -25l-20 133q147 31 247 31
q57 0 108.5 -13t97.5 -41t73.5 -79.5t27.5 -121.5v-297h44q74 27 118.5 90.5t44.5 147.5v230q0 114 -73 185.5t-184 71.5h-473q-111 0 -183.5 -71.5t-72.5 -185.5v-620q0 -109 73.5 -182t182.5 -73h328q89 0 180 38v-180q-100 -41 -180 -41h-328q-184 0 -311.5 126.5
t-127.5 311.5v620q0 183 128 310t311 127zM862 375v171q-49 9 -119 9q-142 0 -142 -99v-39q0 -44 28.5 -70.5t72.5 -26.5q71 0 160 55z" />
    <glyph glyph-name="A" unicode="A" horiz-adv-x="1404" 
d="M1324 0h-289l-103 340h-460l-101 -340h-289l449 1434h344zM512 559h381l-191 648z" />
    <glyph glyph-name="B" unicode="B" horiz-adv-x="1308" 
d="M154 1434h695q141 0 227 -90t86 -231v-71q0 -103 -47 -179t-132 -115q101 -31 157.5 -113.5t56.5 -202.5v-97q0 -147 -86 -241t-227 -94h-730v1434zM430 1226v-405h312q69 0 114 45.5t45 115.5v82q0 67 -46 114.5t-113 47.5h-312zM430 648v-429h340q69 0 114 45t45 116
v108q0 70 -45 115t-114 45h-340z" />
    <glyph glyph-name="C" unicode="C" horiz-adv-x="1081" 
d="M632 1451h55q141 0 307 -42l-16 -203q-163 25 -290 26h-42q-109 0 -183.5 -73.5t-74.5 -194.5v-493q0 -121 74.5 -194.5t183.5 -73.5h42q127 1 290 26l16 -203q-166 -42 -307 -42h-55q-143 0 -260 57.5t-188 171.5t-71 265v479q0 151 71 265t188 171.5t260 57.5z" />
    <glyph glyph-name="D" unicode="D" horiz-adv-x="1339" 
d="M165 1435h542q142 0 259.5 -59.5t188.5 -173.5t71 -262v-446q0 -114 -41.5 -208t-112 -156t-165 -96t-200.5 -34h-542v1435zM441 1215v-995h251q109 0 183.5 73t74.5 194v460q0 117 -75 192.5t-183 75.5h-251z" />
    <glyph glyph-name="E" unicode="E" horiz-adv-x="1116" 
d="M1025 1215h-604v-380h527v-218h-527v-398h604v-219h-881v1434h881v-219z" />
    <glyph glyph-name="F" unicode="F" horiz-adv-x="1110" 
d="M1025 1215h-604v-389h527v-218h-527v-608h-277v1434h881v-219z" />
    <glyph glyph-name="G" unicode="G" horiz-adv-x="1292" 
d="M633 1450h55q140 -1 237.5 -18t194.5 -55l-34 -209q-102 36 -197.5 49.5t-241.5 13.5q-119 0 -189 -72.5t-70 -196.5v-493q0 -120 66.5 -193t186.5 -74h40q141 0 226 43v365h-235v197h472v-710q-111 -61 -212 -87t-238 -26h-61q-244 1 -382 133t-138 360v478
q0 236 142 365.5t378 129.5z" />
    <glyph glyph-name="H" unicode="H" horiz-adv-x="1406" 
d="M1252 0h-276v610h-546v-610h-276v1434h276v-606h546v606h276v-1434z" />
    <glyph glyph-name="I" unicode="I" horiz-adv-x="583" 
d="M429 0h-275v1434h275v-1434z" />
    <glyph glyph-name="J" unicode="J" horiz-adv-x="923" 
d="M770 1434v-956q0 -114 -41.5 -208t-112 -156t-165 -96t-200.5 -34h-194v220h180q109 0 183 73t74 194v963h276z" />
    <glyph glyph-name="K" unicode="K" horiz-adv-x="1341" 
d="M631 714l644 -714h-333l-527 574v-574h-271v1435h271v-577l519 577h321z" />
    <glyph glyph-name="L" unicode="L" horiz-adv-x="1130" 
d="M440 218h614v-218h-889v1433h275v-1215z" />
    <glyph glyph-name="M" unicode="M" horiz-adv-x="1673" 
d="M1539 0h-271l-32 934l-320 -602h-157l-321 602l-34 -934h-270l52 1434h272l378 -751l375 751h272z" />
    <glyph glyph-name="N" unicode="N" 
d="M1258 0h-269l-584 965v-965h-271v1434h268l584 -971v971h272v-1434z" />
    <glyph glyph-name="O" unicode="O" horiz-adv-x="1341" 
d="M634 1450h69q103 0 198.5 -36.5t168 -100t115.5 -157t43 -201.5v-478q0 -214 -150.5 -353.5t-374.5 -139.5h-69q-233 0 -377 139t-144 354v478q0 218 149 356.5t372 138.5zM692 1231h-45q-109 -1 -184 -76.5t-75 -192.5v-493q0 -121 75.5 -194t183.5 -73h45
q107 0 184 72.5t77 194.5v493q0 117 -78 193t-183 76z" />
    <glyph glyph-name="P" unicode="P" horiz-adv-x="1296" 
d="M165 1434h635q179 0 286 -112.5t107 -293.5v-150q0 -185 -106 -295t-287 -110h-361v-473h-274v1434zM439 1211v-515h319q69 0 114.5 45.5t45.5 116.5v191q0 67 -46 114.5t-114 47.5h-319z" />
    <glyph glyph-name="Q" unicode="Q" horiz-adv-x="1366" 
d="M640 1450h69q139 0 258 -61.5t192.5 -176t73.5 -257.5v-478q0 -133 -64 -242t-171 -171l249 -248l-282 -6l-182 184q-40 -10 -88 -10h-55q-233 0 -377.5 139.5t-144.5 353.5v478q0 144 69.5 258t188 175.5t264.5 61.5zM697 1231h-45q-109 -1 -184 -76.5t-75 -192.5v-493
q0 -121 75.5 -194t183.5 -73h45q107 0 184 72.5t77 194.5v493q0 117 -78 193t-183 76z" />
    <glyph glyph-name="R" unicode="R" horiz-adv-x="1339" 
d="M154 1434h637q179 0 286 -112.5t107 -293.5v-148q0 -120 -57.5 -210.5t-150.5 -126.5l249 -543h-318l-192 475h-286v-475h-275v1434zM430 1211v-516h319q69 0 114.5 45t45.5 116v193q0 67 -46 114.5t-114 47.5h-319z" />
    <glyph glyph-name="S" unicode="S" horiz-adv-x="1124" 
d="M93 1020v28q0 88 23 157.5t63.5 115t98 75t123 42.5t142.5 13q141 1 233.5 -11.5t176.5 -50.5l-22 -226q-75 36 -159.5 50t-202.5 14q-32 0 -62 -6t-61.5 -20t-51 -44.5t-19.5 -72.5v-26q0 -43 24.5 -77.5t63.5 -53.5l312 -140q140 -57 198.5 -133.5t58.5 -216.5v-33
q-1 -212 -124 -316t-347 -104q-289 0 -456 64l20 225q116 -39 212.5 -54.5t242.5 -14.5q74 0 124 50t50 123v36q0 99 -99 149l-324 142q-130 54 -183.5 121t-54.5 195z" />
    <glyph glyph-name="T" unicode="T" horiz-adv-x="1253" 
d="M1176 1217h-408v-1217h-275v1217h-416v217h1099v-217z" />
    <glyph glyph-name="U" unicode="U" 
d="M1244 1434v-975q0 -115 -42.5 -207.5t-115.5 -150t-165 -87.5t-196 -30h-65q-147 0 -262 52.5t-184.5 161.5t-69.5 261v975h275v-975q0 -121 73.5 -189t180.5 -68h44q104 0 178 68.5t74 188.5v975h275z" />
    <glyph glyph-name="V" unicode="V" horiz-adv-x="1339" 
d="M856 0h-375l-404 1434h289l303 -1220l304 1220h288z" />
    <glyph glyph-name="W" unicode="W" horiz-adv-x="1875" 
d="M1497 0h-342l-216 1014l-216 -1014h-342l-309 1434h288l206 -1107l230 1107h285l232 -1107l206 1107h287z" />
    <glyph glyph-name="X" unicode="X" horiz-adv-x="1288" 
d="M808 717l421 -717h-290l-296 530l-295 -530h-290l423 717l-422 717h290l295 -532l296 532h290z" />
    <glyph glyph-name="Y" unicode="Y" horiz-adv-x="1325" 
d="M800 588v-588h-275v590l-457 844h295l299 -592l301 592h295z" />
    <glyph glyph-name="Z" unicode="Z" horiz-adv-x="1232" 
d="M1135 1325l-686 -1106h696v-219h-1058v109l686 1106h-665v219h1027v-109z" />
    <glyph glyph-name="bracketleft" unicode="[" horiz-adv-x="567" 
d="M507 1340h-170v-1446h170v-197h-425v1839h425v-196z" />
    <glyph glyph-name="backslash" unicode="\" horiz-adv-x="929" 
d="M883 0h-198l-638 1434h199z" />
    <glyph glyph-name="bracketright" unicode="]" horiz-adv-x="569" 
d="M487 -303h-425v197h170v1446h-170v196h425v-1839z" />
    <glyph glyph-name="asciicircum" unicode="^" horiz-adv-x="1202" 
d="M1127 744h-245l-281 507l-281 -507h-245l412 690h228z" />
    <glyph glyph-name="underscore" unicode="_" horiz-adv-x="1224" 
d="M1142 -313h-1060v190h1060v-190z" />
    <glyph glyph-name="grave" unicode="`" horiz-adv-x="555" 
d="M482 1166h-194l-218 302h246z" />
    <glyph glyph-name="a" unicode="a" horiz-adv-x="1040" 
d="M178 812l-29 185q208 44 352 44q65 0 124 -10.5t117 -37t100.5 -66.5t68.5 -104t26 -144v-679h-211l-12 93q-73 -43 -162.5 -75t-169.5 -32q-139 0 -229 81t-91 218v34q1 69 25.5 121.5t63 84t92.5 51.5t107 27t114 7q100 0 217 -23v82q0 50 -21.5 86.5t-56.5 55t-70 27
t-70 8.5q-122 0 -285 -34zM681 224v247q-70 14 -170 14q-41 0 -75 -6.5t-66 -21.5t-50 -44.5t-18 -71.5v-56q0 -63 42 -101.5t106 -39.5q98 0 231 80z" />
    <glyph glyph-name="b" unicode="b" horiz-adv-x="1077" 
d="M374 1434v-439q125 46 259 46q64 0 124.5 -18t115.5 -56t88.5 -108t33.5 -164v-369q0 -151 -105 -248.5t-271 -91.5q-137 0 -281 91l-10 -77h-210v1434h256zM752 356v317q0 48 -22 83.5t-57.5 53.5t-70 26t-69.5 8q-90 0 -160 -13v-587q110 -60 198 -60q80 0 131 50.5
t50 121.5z" />
    <glyph glyph-name="c" unicode="c" horiz-adv-x="856" 
d="M82 339v343q0 79 27 143t70.5 103.5t101.5 66t114.5 37t115.5 10.5q128 0 272 -32l-15 -193q-118 26 -211 26q-39 0 -76 -9.5t-71.5 -29.5t-55.5 -57.5t-21 -87.5v-297q0 -50 21 -87.5t55.5 -58t71.5 -30t76 -9.5q88 0 211 27l15 -193q-144 -32 -272 -32q-58 0 -115 10.5
t-115 37t-101 66t-70.5 103.5t-27.5 143z" />
    <glyph glyph-name="d" unicode="d" horiz-adv-x="1077" 
d="M960 0h-210l-10 77q-144 -91 -282 -91q-167 -6 -271.5 91t-104.5 249v369q0 75 22.5 135.5t58.5 99t84.5 64.5t97 36.5t98.5 10.5q139 0 261 -46v439h256v-1434zM704 244v587q-64 12 -163 12q-35 0 -69.5 -8t-69.5 -26t-56.5 -53t-21.5 -83v-318q0 -71 51 -121t131 -50
q88 0 198 60z" />
    <glyph glyph-name="e" unicode="e" horiz-adv-x="1042" 
d="M82 346v335q0 77 28 139.5t73 103t104 67.5t118 38.5t118 11.5q62 0 122 -11.5t118.5 -38.5t102.5 -67t71 -103t27 -140v-234h-642v-116q0 -45 20 -79.5t52.5 -52t65 -26t65.5 -8.5q114 0 385 35l27 -169q-225 -45 -400 -45q-67 0 -128.5 10.5t-122 37t-105 66.5t-72 103
t-27.5 143zM724 580v115q0 46 -20 80.5t-51.5 52t-64 25.5t-65.5 8q-45 0 -88 -14t-78 -53.5t-35 -98.5v-115h402z" />
    <glyph glyph-name="f" unicode="f" horiz-adv-x="688" 
d="M637 1251h-135q-38 0 -65.5 -25.5t-27.5 -70.5v-131h228v-197h-228v-827h-256v827h-96v197h96v159q0 109 86 188t209 79h189v-199z" />
    <glyph glyph-name="g" unicode="g" horiz-adv-x="1073" 
d="M82 345v354q0 148 103 244t268 96q61 2 141.5 -12.5t144.5 -40.5l10 37h210v-1039q0 -98 -38 -171t-101.5 -113t-133.5 -59t-147 -20q-174 0 -410 51l29 176q207 -41 328 -41q23 0 49 4.5t57 17t55 31.5t40.5 51.5t16.5 74.5v96q-148 -84 -277 -84q-149 0 -247 91
t-98 256zM705 239v583q-43 11 -106.5 16t-96.5 3q-76 -5 -126.5 -53t-50.5 -118v-313q0 -75 52 -122.5t133 -47.5q64 0 195 52z" />
    <glyph glyph-name="h" unicode="h" horiz-adv-x="1097" 
d="M374 1434v-439q122 46 261 46q50 0 98.5 -10.5t97 -36.5t84.5 -64.5t58.5 -99t22.5 -135.5v-695h-242v673q0 48 -22 83t-56.5 53t-69.5 26t-70 8q-98 0 -162 -12v-831h-256v1434h256z" />
    <glyph glyph-name="i" unicode="i" horiz-adv-x="512" 
d="M398 1176h-274v195h274v-195zM388 0h-256v1024h256v-1024z" />
    <glyph glyph-name="j" unicode="j" horiz-adv-x="512" 
d="M393 1176h-274v195h274v-195zM384 1024v-1143q0 -108 -86.5 -188t-209.5 -80h-98v199h45q38 0 65.5 25.5t27.5 70.5v1116h256z" />
    <glyph glyph-name="k" unicode="k" horiz-adv-x="1073" 
d="M379 606l364 418h271l-411 -483l418 -541h-270l-372 449v-449h-255v1434h255v-828z" />
    <glyph glyph-name="l" unicode="l" horiz-adv-x="487" 
d="M379 0h-255v1434h255v-1434z" />
    <glyph glyph-name="m" unicode="m" horiz-adv-x="1681" 
d="M314 1024l9 -80q153 98 286 98q163 0 268 -112q186 112 327 112q170 0 272 -98t102 -248v-696h-231v674q0 74 -52.5 122t-130.5 48q-79 0 -215 -68q19 -44 19 -93v-683h-231v674q0 75 -52 122.5t-133 47.5q-76 0 -194 -58v-786h-245v1024h201z" />
    <glyph glyph-name="n" unicode="n" horiz-adv-x="1093" 
d="M323 1024l10 -80q156 98 302 98q158 0 256.5 -98.5t98.5 -247.5v-696h-242v674q0 73 -50 121.5t-126 48.5q-85 0 -203 -58v-786h-256v1024h210z" />
    <glyph glyph-name="o" unicode="o" horiz-adv-x="1067" 
d="M82 356v311q0 94 38 167.5t102 117t143 66t167 22.5q93 0 173 -22.5t143.5 -66.5t99.5 -117t36 -167v-311q0 -94 -36.5 -167t-100 -117.5t-143.5 -67t-172 -22.5q-123 0 -222.5 40t-163.5 126.5t-64 207.5zM734 359v305q0 88 -55 132t-146 44q-90 0 -145.5 -44
t-55.5 -132v-305q0 -88 56 -132t145 -44q91 0 146 44t55 132z" />
    <glyph glyph-name="p" unicode="p" horiz-adv-x="1083" 
d="M333 1024l10 -77q63 41 142.5 67t150.5 26q165 0 264.5 -97t99.5 -245v-359q0 -76 -22.5 -136.5t-58.5 -99t-84 -64.5t-96.5 -36.5t-99.5 -10.5q-130 0 -260 47v-412h-255v1397h209zM759 352v317q0 74 -53 123t-134 49q-82 0 -192 -60v-587q68 -13 159 -13q35 0 70 8
t70.5 26t57.5 53.5t22 83.5z" />
    <glyph glyph-name="q" unicode="q" horiz-adv-x="1073" 
d="M82 339v359q0 146 99 244t257 98q156 0 301 -93l10 77h210v-1397h-255v412q-130 -47 -261 -47q-51 0 -99.5 10.5t-96.5 36.5t-84 64.5t-58.5 99t-22.5 136.5zM703 194v587q-108 60 -202 60q-75 0 -126 -50.5t-51 -121.5v-317q0 -48 22 -83.5t57.5 -53.5t70.5 -26t70 -8
q91 0 159 13z" />
    <glyph glyph-name="r" unicode="r" horiz-adv-x="675" 
d="M620 825h-100q-48 0 -91.5 -21t-59.5 -48v-756h-256v1024h210l10 -102q46 47 113 78.5t133 31.5h41v-207z" />
    <glyph glyph-name="s" unicode="s" horiz-adv-x="892" 
d="M388 1039h107q150 0 275 -45l-22 -166q-112 41 -225 42h-106q-45 0 -75.5 -30t-30.5 -75q0 -32 16.5 -58t44.5 -36l256 -90q108 -38 156 -103.5t48 -173.5q0 -159 -97 -238.5t-272 -79.5h-97q-164 0 -291 51l21 162q144 -47 262 -46h94q58 0 95.5 39t37.5 95
q0 45 -23 82.5t-61 51.5l-265 91q-96 34 -135 85t-39 147q0 144 84.5 219.5t241.5 75.5z" />
    <glyph glyph-name="t" unicode="t" horiz-adv-x="708" 
d="M413 1024h229v-197h-229v-552q0 -45 28 -70.5t66 -25.5h135v-197h-189q-123 0 -209 79t-86 188v578h-96v197h96v226h255v-226z" />
    <glyph glyph-name="u" unicode="u" horiz-adv-x="1087" 
d="M980 0h-211l-10 80q-158 -99 -290 -99q-166 0 -266 98t-100 249v696h242v-673q0 -75 52.5 -123t133.5 -48q77 0 193 58v786h256v-1024z" />
    <glyph glyph-name="v" unicode="v" horiz-adv-x="1026" 
d="M679 0h-332l-295 1024h263l197 -801l199 801h263z" />
    <glyph glyph-name="w" unicode="w" horiz-adv-x="1470" 
d="M1162 0h-259l-168 622l-168 -622h-260l-249 1024h261l152 -766l175 766h177l176 -766l151 766h262z" />
    <glyph glyph-name="x" unicode="x" horiz-adv-x="1052" 
d="M697 512l305 -512h-271l-207 370l-206 -370h-266l303 512l-293 512h266l196 -373l197 373h271z" />
    <glyph glyph-name="y" unicode="y" horiz-adv-x="1093" 
d="M976 1024v-1049q0 -66 -17.5 -121.5t-49 -94t-72 -67.5t-88.5 -45.5t-95.5 -24.5t-97.5 -9q-164 0 -411 51l30 176q207 -41 327 -41q31 0 64 8t69.5 26t60 55.5t23.5 88.5v104q-155 -89 -286 -91q-91 0 -166 39t-122 119.5t-47 189.5v686h242v-673q0 -73 50.5 -122
t126.5 -49q79 0 202 58v786h257z" />
    <glyph glyph-name="z" unicode="z" horiz-adv-x="923" 
d="M841 889l-486 -701h496v-188h-789v137l487 699h-467v189h759v-136z" />
    <glyph glyph-name="braceleft" unicode="{" horiz-adv-x="806" 
d="M737 1351h-131q-31 0 -52.5 -22.5t-21.5 -56.5v-456q0 -62 -29 -115.5t-81 -89.5q51 -36 80.5 -89t29.5 -113v-456q0 -33 22 -55.5t52 -22.5h131v-186h-221q-239 0 -239 219v475q0 53 -38 90t-95 39h-75v202h75q57 2 95 38t38 90v475q0 93 70 156t169 63h221v-185z" />
    <glyph glyph-name="bar" unicode="|" horiz-adv-x="417" 
d="M338 -227h-256v1763h256v-1763z" />
    <glyph glyph-name="braceright" unicode="}" horiz-adv-x="806" 
d="M71 1536h220q99 0 169 -63t70 -156v-475q0 -54 38 -90t95 -38h76v-202h-76q-57 -2 -95 -39t-38 -90v-475q0 -219 -239 -219h-220v186h131q30 0 51.5 22.5t21.5 55.5v456q0 60 29.5 113t80.5 89q-52 36 -81 89.5t-29 115.5v456q0 34 -21.5 56.5t-51.5 22.5h-131v185z" />
    <glyph glyph-name="asciitilde" unicode="~" horiz-adv-x="1204" 
d="M266 330l-186 25q2 161 99.5 270t249.5 109q73 0 122.5 -30t101.5 -87q38 -40 70 -61t69 -21q58 0 99 49.5t47 129.5l188 -18q-4 -99 -43.5 -183.5t-111.5 -136.5t-163 -52q-41 0 -76.5 11t-65 33t-47.5 39t-43 44q-7 7 -10 11q-34 37 -64 56.5t-66 19.5
q-67 0 -115.5 -57.5t-54.5 -150.5z" />
    <glyph glyph-name="exclamdown" unicode="&#xa1;" horiz-adv-x="428" 
d="M355 906h-275v195h275v-195zM335 -334h-236v1088h236v-1088z" />
    <glyph glyph-name="cent" unicode="&#xa2;" horiz-adv-x="827" 
d="M541 1179v-138q104 -4 228 -31l-16 -193q-115 26 -215 26q-39 0 -75.5 -10t-70 -30t-54 -57.5t-20.5 -86.5v-297q0 -51 22 -89t57.5 -57.5t71 -29t71.5 -9.5q90 0 214 27l15 -193q-116 -25 -228 -31v-136h-179v158q-22 5 -41 12q-114 29 -184 115t-70 210v343
q0 128 73 215.5t192 115.5q10 3 30 7v159h179z" />
    <glyph glyph-name="sterling" unicode="&#xa3;" horiz-adv-x="1153" 
d="M206 822v249q0 147 111 253t278 123q18 3 68 3q143 0 341 -54l-24 -190q-141 30 -292 30q-33 0 -49 -1q-80 -5 -128.5 -49t-48.5 -115v-249h307v-212h-307v-398h615v-212h-980v212h109v398h-109v212h109z" />
    <glyph glyph-name="currency" unicode="&#xa4;" horiz-adv-x="1228" 
 />
    <glyph glyph-name="yen" unicode="&#xa5;" horiz-adv-x="1327" 
d="M976 927h188v-212h-293l-52 -91l-6 -34h351v-213h-363v-377h-275v377h-361v213h350l-6 34l-52 91h-292v212h187l-283 507h295l300 -592l300 592h295z" />
    <glyph glyph-name="brokenbar" unicode="&#xa6;" horiz-adv-x="417" 
d="M338 856h-256v680h256v-680zM338 -227h-256v679h256v-679z" />
    <glyph glyph-name="section" unicode="&#xa7;" horiz-adv-x="968" 
d="M76 1072v25q0 353 414 353q113 0 191 -11t152 -43l-20 -198q-114 56 -318 56q-28 0 -54.5 -5.5t-54.5 -18t-45 -39t-17 -63.5v-23q0 -37 22 -67.5t56 -47.5l274 -124q124 -50 175 -116.5t51 -190.5v-29q-1 -154 -88 -250q88 -82 88 -229v-30q-1 -187 -109.5 -279
t-304.5 -92q-251 0 -401 59l18 197q101 -35 186.5 -48t213.5 -12q65 0 109 44t44 108v32q0 86 -87 130l-285 125q-77 32 -120 65.5t-66.5 84.5t-23.5 128v25q0 164 116 255q-115 77 -116 229zM579 664l-161 84q-102 -26 -102 -122v-24q0 -37 21.5 -68t54.5 -48l196 -102
l16 -9q63 45 63 127v27q0 90 -88 135z" />
    <glyph glyph-name="dieresis" unicode="&#xa8;" horiz-adv-x="684" 
d="M267 1226h-185v187h185v-187zM601 1226h-185v187h185v-187z" />
    <glyph glyph-name="copyright" unicode="&#xa9;" horiz-adv-x="1638" 
d="M819 1454q150 0 286.5 -58.5t235 -157t157 -235t58.5 -286.5t-58.5 -286.5t-157 -235t-235 -157t-286.5 -58.5t-286.5 58.5t-235 157t-157 235t-58.5 286.5t58.5 286.5t157 235t235 157t286.5 58.5zM819 1307q-159 0 -294.5 -79t-214.5 -214.5t-79 -294.5t79 -295
t214.5 -215t294.5 -79q119 0 228 47t188 126t126 188t47 228q0 159 -79 294.5t-215 214.5t-295 79zM805 1113h30q77 0 167 -23l-8 -114q-94 15 -159 15h-23q-58 0 -97 -38.5t-39 -103.5v-265q0 -65 39 -103.5t97 -38.5h23q65 0 159 15l8 -113q-90 -23 -167 -23h-30
q-119 0 -199.5 73t-80.5 194v258q0 121 80.5 194t199.5 73z" />
    <glyph glyph-name="ordfeminine" unicode="&#xaa;" horiz-adv-x="729" 
d="M157 1286l-20 130q141 30 228 30q56 0 104.5 -12t89.5 -38t64.5 -73t23.5 -111v-423h-148l-8 53q-110 -63 -205 -63q-86 0 -144.5 52t-59.5 141v20q1 55 23.5 93.5t61.5 58t80.5 28t91.5 8.5q54 0 130 -14v39q0 49 -35 76.5t-94 27.5q-69 0 -183 -23zM469 936v146
q-45 7 -99 7q-121 0 -121 -82v-36q0 -35 23.5 -58t59.5 -23q56 0 137 46z" />
    <glyph glyph-name="guillemotleft" unicode="&#xab;" horiz-adv-x="995" 
d="M440 686l-155 -122l155 -120v-216l-368 292v91l368 291v-216zM902 686l-154 -122l154 -120v-216l-367 292v91l367 291v-216z" />
    <glyph glyph-name="logicalnot" unicode="&#xac;" horiz-adv-x="1787" 
 />
    <glyph glyph-name="registered" unicode="&#xae;" horiz-adv-x="1638" 
d="M819 1454q150 0 286.5 -58.5t235 -157t157 -235t58.5 -286.5t-58.5 -286.5t-157 -235t-235 -157t-286.5 -58.5t-286.5 58.5t-235 157t-157 235t-58.5 286.5t58.5 286.5t157 235t235 157t286.5 58.5zM819 1307q-159 0 -294.5 -79t-214.5 -214.5t-79 -294.5t79 -295
t214.5 -215t294.5 -79q119 0 228 47t188 126t126 188t47 228q0 159 -79 294.5t-215 214.5t-295 79zM551 1092h330q92 0 148 -58t56 -150v-79q0 -61 -30 -108.5t-79 -67.5l131 -283h-163l-103 251h-149v-251h-141v746zM692 977v-266h170q36 0 59 23t23 60v99q0 35 -23.5 59.5
t-58.5 24.5h-170z" />
    <glyph glyph-name="macron" unicode="&#xaf;" horiz-adv-x="819" 
d="M737 1277h-655v157h655v-157z" />
    <glyph glyph-name="degree" unicode="&#xb0;" horiz-adv-x="700" 
d="M350 1536q122 0 196.5 -75t74.5 -197q0 -121 -74.5 -195t-196.5 -74q-121 0 -196 74t-75 195q0 122 75 197t196 75zM350 1404q-61 0 -100 -39t-39 -101q0 -61 38.5 -98t100.5 -37q61 0 99.5 37.5t38.5 97.5q0 62 -38.5 101t-99.5 39z" />
    <glyph glyph-name="plusminus" unicode="&#xb1;" horiz-adv-x="1142" 
d="M678 893h383v-213h-383v-337h-213v337h-383v213h383v338h213v-338zM1061 0h-979v213h979v-213z" />
    <glyph glyph-name="twosuperior" unicode="&#xb2;" horiz-adv-x="645" 
d="M307 1446h64q81 0 138 -53.5t57 -129.5v-22q0 -53 -29.5 -97.5t-79.5 -71.5l-152 -80q-54 -27 -54 -84v-86h315v-121h-468v223q0 113 121 177l160 83q38 20 38 56v13q0 26 -19 43.5t-47 17.5h-42q-95 0 -166 -29l-16 120q74 41 180 41z" />
    <glyph glyph-name="threesuperior" unicode="&#xb3;" horiz-adv-x="643" 
d="M284 1449h65q80 -2 137.5 -55.5t57.5 -129.5v-51q0 -76 -67 -121q34 -21 53.5 -56.5t19.5 -71.5v-83q0 -76 -58 -130.5t-138 -54.5h-70q-110 0 -183 45l24 109q72 -30 169 -30h35q30 0 49.5 19t19.5 47v78q0 29 -19.5 47.5t-49.5 18.5h-81v117h81q30 0 49.5 18.5
t19.5 47.5v45q0 28 -18.5 45.5t-51.5 21.5h-33q-98 0 -169 -25l-26 106q79 43 184 43z" />
    <glyph glyph-name="acute" unicode="&#xb4;" horiz-adv-x="555" 
d="M268 1168h-194l165 301h247z" />
    <glyph glyph-name="paragraph" unicode="&#xb6;" horiz-adv-x="1329" 
d="M1251 1222h-70v-1556h-256v1556h-162v-1556h-256v876h-107q-146 14 -241 117t-95 239v176q0 68 28.5 133t77.5 115.5t121 81t153 30.5h807v-212z" />
    <glyph glyph-name="periodcentered" unicode="&#xb7;" horiz-adv-x="436" 
d="M356 521h-274v221h274v-221z" />
    <glyph glyph-name="cedilla" unicode="&#xb8;" horiz-adv-x="514" 
d="M268 -66h24q59 0 102.5 -45t43.5 -108v-31q0 -72 -47.5 -120t-112.5 -48h-201v131h192q18 0 31 12.5t13 32.5v13q0 20 -13 32.5t-31 12.5h-113v186h112v-68z" />
    <glyph glyph-name="onesuperior" unicode="&#xb9;" horiz-adv-x="444" 
d="M363 699h-149v582l-95 -24l-39 124l170 53h113v-735z" />
    <glyph glyph-name="ordmasculine" unicode="&#xba;" horiz-adv-x="741" 
d="M82 1005v210q0 62 27.5 109t72 72.5t92 37.5t96.5 12q42 0 82 -7.5t78 -25t66.5 -43.5t45.5 -66t17 -89v-210q0 -61 -26 -107.5t-69 -72.5t-92 -38.5t-102 -12.5q-51 0 -99.5 13t-92 39t-70 72.5t-26.5 106.5zM486 1007v206q0 48 -35 70.5t-80 22.5q-44 0 -79.5 -22
t-35.5 -71v-206q0 -50 36 -72t79 -22q45 0 80 23t35 71z" />
    <glyph glyph-name="guillemotright" unicode="&#xbb;" horiz-adv-x="995" 
d="M450 611v-91l-368 -292v216l154 120l-154 122v216zM912 611v-91l-367 -292v216l154 120l-154 122v216z" />
    <glyph glyph-name="onequarter" unicode="&#xbc;" horiz-adv-x="1261" 
d="M336 -37h-179l668 1504h178zM354 697h-149v583l-95 -24l-40 124l171 53h113v-736zM807 273h146l31 208h108v-208h88v-133h-88v-142h-143v142h-307v84l196 510h148z" />
    <glyph glyph-name="onehalf" unicode="&#xbd;" horiz-adv-x="1327" 
d="M363 -35h-178l667 1503h178zM381 699h-149v582l-95 -24l-39 124l170 53h113v-735zM1001 745h65q81 0 138 -53.5t57 -129.5v-22q0 -53 -30 -98t-80 -72l-151 -79q-55 -27 -55 -85v-86h316v-120h-469v223q0 112 121 176l161 84q37 19 37 56v13q0 26 -18.5 43.5t-46.5 17.5
h-42q-93 0 -167 -30l-16 121q74 41 180 41z" />
    <glyph glyph-name="threequarters" unicode="&#xbe;" horiz-adv-x="1368" 
d="M443 -35h-179l668 1502h178zM256 1449h65q80 -2 137.5 -55.5t57.5 -129.5v-51q0 -76 -67 -121q34 -21 53.5 -56.5t19.5 -71.5v-83q0 -76 -58 -130.5t-138 -54.5h-70q-110 0 -183 45l24 109q72 -30 169 -30h35q30 0 49.5 19t19.5 47v78q0 29 -19.5 47.5t-49.5 18.5h-81
v117h81q30 0 49.5 18.5t19.5 47.5v45q0 28 -18.5 45.5t-51.5 21.5h-33q-98 0 -169 -25l-26 106q79 43 184 43zM904 274h146l31 209h108v-209h88v-133h-88v-141h-143v141h-307v84l196 510h148z" />
    <glyph glyph-name="questiondown" unicode="&#xbf;" horiz-adv-x="995" 
d="M841 913h-275v195h275v-195zM829 700v-94q1 -212 -223 -328l-208 -109q-37 -19 -60 -52.5t-23 -75.5v-25q0 -60 42.5 -101.5t105.5 -41.5h87q177 0 310 49l28 -190q-140 -74 -333 -74h-126q-150 0 -255 99t-105 241v43q0 96 55.5 179.5t149.5 132.5l187 99
q52 27 85.5 75.5t33.5 110.5v62h249z" />
    <glyph glyph-name="Agrave" unicode="&#xc0;" horiz-adv-x="1404" 
d="M890 1576h-194l-218 302h247zM1323 0h-288l-103 341h-460l-101 -341h-289l448 1434h345zM512 560h381l-190 647z" />
    <glyph glyph-name="Aacute" unicode="&#xc1;" horiz-adv-x="1404" 
d="M693 1577h-194l165 301h247zM1323 0h-288l-103 341h-460l-101 -341h-289l448 1434h345zM512 560h381l-190 647z" />
    <glyph glyph-name="Acircumflex" unicode="&#xc2;" horiz-adv-x="1404" 
d="M1079 1561h-227l-146 166l-146 -167h-229l291 318h164zM1323 0h-288l-103 341h-460l-101 -341h-289l448 1434h345zM512 560h381l-190 647z" />
    <glyph glyph-name="Atilde" unicode="&#xc3;" horiz-adv-x="1404" 
d="M947 1858l105 -111q-105 -111 -202 -123q-72 -6 -144 41q-6 4 -19 13t-19 13.5t-17 11t-18.5 9.5t-18 5.5t-20.5 2.5q-9 0 -19.5 -3.5t-22.5 -10t-22 -12.5t-22.5 -15.5t-19.5 -15t-17.5 -14t-11.5 -9.5l-101 112q141 133 238 133q33 0 63 -10.5t46 -20.5t44 -30
q48 -35 90 -34q39 3 108 68zM1324 0h-289l-103 340h-460l-101 -340h-289l449 1434h344zM512 559h381l-191 648z" />
    <glyph glyph-name="Adieresis" unicode="&#xc4;" horiz-adv-x="1404" 
d="M629 1635h-185v188h185v-188zM963 1635h-184v188h184v-188zM1323 0h-288l-103 341h-460l-101 -341h-289l448 1434h345zM512 560h381l-190 647z" />
    <glyph glyph-name="Aring" unicode="&#xc5;" horiz-adv-x="1404" 
d="M703 1947q88 0 150 -62.5t62 -145.5q0 -91 -61.5 -152.5t-150.5 -61.5t-149 61.5t-60 152.5q0 83 61 145.5t148 62.5zM703 1835q-41 0 -68.5 -28.5t-27.5 -67.5q0 -41 27.5 -69.5t68.5 -28.5q40 0 68 28.5t28 69.5q0 39 -28 67.5t-68 28.5zM1323 0h-288l-103 341h-460
l-101 -341h-289l448 1434h345zM512 560h381l-190 647z" />
    <glyph glyph-name="AE" unicode="&#xc6;" horiz-adv-x="1677" 
d="M1584 1215h-605v-379h528v-219h-528v-398h605v-219h-881v341h-231l-101 -341h-289l448 1434h1054v-219zM502 560h211l-10 647z" />
    <glyph glyph-name="Ccedilla" unicode="&#xc7;" horiz-adv-x="1081" 
d="M632 1451h55q141 0 307 -42l-16 -203q-163 25 -290 26h-42q-109 0 -183.5 -73.5t-74.5 -194.5v-493q0 -121 74.5 -194.5t183.5 -73.5h42q127 1 290 26l16 -203q-166 -42 -307 -42h-54q-9 0 -28 1t-30 1v-52h23q59 0 102.5 -45t43.5 -108v-31q0 -72 -47.5 -120t-112.5 -48
h-201v131h192q18 0 31 12.5t13 32.5v13q0 20 -13 32.5t-31 12.5h-113v194q-156 41 -252.5 166t-96.5 302v479q0 151 71 265t188 171.5t260 57.5z" />
    <glyph glyph-name="Egrave" unicode="&#xc8;" horiz-adv-x="1116" 
d="M767 1576h-193l-219 302h247zM1026 1215h-605v-379h528v-219h-528v-398h605v-219h-882v1434h882v-219z" />
    <glyph glyph-name="Eacute" unicode="&#xc9;" horiz-adv-x="1116" 
d="M570 1577h-194l166 301h247zM1026 1215h-605v-379h528v-219h-528v-398h605v-219h-882v1434h882v-219z" />
    <glyph glyph-name="Ecircumflex" unicode="&#xca;" horiz-adv-x="1116" 
d="M956 1561h-227l-146 166l-146 -167h-228l291 318h163zM1026 1215h-605v-379h528v-219h-528v-398h605v-219h-882v1434h882v-219z" />
    <glyph glyph-name="Edieresis" unicode="&#xcb;" horiz-adv-x="1116" 
d="M506 1635h-185v188h185v-188zM841 1635h-185v188h185v-188zM1026 1215h-605v-379h528v-219h-528v-398h605v-219h-882v1434h882v-219z" />
    <glyph glyph-name="Igrave" unicode="&#xcc;" horiz-adv-x="583" 
d="M478 1576h-194l-219 302h247zM429 0h-275v1434h275v-1434z" />
    <glyph glyph-name="Iacute" unicode="&#xcd;" horiz-adv-x="583" 
d="M279 1577h-193l165 301h247zM429 0h-275v1434h275v-1434z" />
    <glyph glyph-name="Icircumflex" unicode="&#xce;" horiz-adv-x="583" 
d="M666 1561h-228l-146 166l-146 -167h-228l291 318h164zM429 0h-275v1434h275v-1434z" />
    <glyph glyph-name="Idieresis" unicode="&#xcf;" horiz-adv-x="583" 
d="M215 1635h-184v188h184v-188zM550 1635h-185v188h185v-188zM429 0h-274v1434h274v-1434z" />
    <glyph glyph-name="Eth" unicode="&#xd0;" horiz-adv-x="1339" 
d="M165 1435h542q142 0 259.5 -59.5t188.5 -173.5t71 -262v-446q0 -114 -41.5 -208t-112 -156t-165 -96t-200.5 -34h-542v602h-113v152h113v681zM441 1215v-461h219v-152h-219v-382h251q109 0 183.5 73t74.5 194v460q0 117 -75 192.5t-183 75.5h-251z" />
    <glyph glyph-name="Ntilde" unicode="&#xd1;" 
d="M938 1858l105 -111q-105 -111 -202 -123q-72 -6 -144 41q-6 4 -19 13t-19 13.5t-17 11t-18.5 9.5t-18 5.5t-20.5 2.5q-9 0 -19.5 -3.5t-22.5 -10t-22 -12.5t-22.5 -15.5t-19.5 -15t-17.5 -14t-11.5 -9.5l-101 112q141 133 238 133q33 0 63 -10.5t45.5 -20t43.5 -30.5
q48 -35 91 -34q39 3 108 68zM1258 0h-269l-584 965v-965h-271v1434h268l584 -971v971h272v-1434z" />
    <glyph glyph-name="Ograve" unicode="&#xd2;" horiz-adv-x="1341" 
d="M856 1576h-194l-218 302h247zM634 1450h69q103 0 198.5 -36.5t168 -100t115.5 -157t43 -201.5v-478q0 -214 -150.5 -353.5t-374.5 -139.5h-69q-233 0 -377 139t-144 354v478q0 218 149 356.5t372 138.5zM692 1231h-45q-109 -1 -184 -76.5t-75 -192.5v-493
q0 -121 75.5 -194t183.5 -73h45q107 0 184 72.5t77 194.5v493q0 117 -78 193t-183 76z" />
    <glyph glyph-name="Oacute" unicode="&#xd3;" horiz-adv-x="1341" 
d="M659 1577h-194l166 301h246zM634 1450h69q103 0 198.5 -36.5t168 -100t115.5 -157t43 -201.5v-478q0 -214 -150.5 -353.5t-374.5 -139.5h-69q-233 0 -377 139t-144 354v478q0 218 149 356.5t372 138.5zM692 1231h-45q-109 -1 -184 -76.5t-75 -192.5v-493
q0 -121 75.5 -194t183.5 -73h45q107 0 184 72.5t77 194.5v493q0 117 -78 193t-183 76z" />
    <glyph glyph-name="Ocircumflex" unicode="&#xd4;" horiz-adv-x="1341" 
d="M1045 1561h-227l-147 166l-146 -167h-228l292 318h163zM634 1450h69q103 0 198.5 -36.5t168 -100t115.5 -157t43 -201.5v-478q0 -214 -150.5 -353.5t-374.5 -139.5h-69q-233 0 -377 139t-144 354v478q0 218 149 356.5t372 138.5zM692 1231h-45q-109 -1 -184 -76.5
t-75 -192.5v-493q0 -121 75.5 -194t183.5 -73h45q107 0 184 72.5t77 194.5v493q0 117 -78 193t-183 76z" />
    <glyph glyph-name="Otilde" unicode="&#xd5;" horiz-adv-x="1341" 
d="M913 1858l105 -111q-105 -111 -202 -123q-72 -6 -144 41q-6 4 -19 13t-19 13.5t-17 11t-18.5 9.5t-18 5.5t-20.5 2.5q-9 0 -19.5 -3.5t-22.5 -10t-22 -12.5t-22.5 -15.5t-19.5 -15t-17.5 -14t-11.5 -9.5l-101 112q141 133 238 133q33 0 63 -10.5t45.5 -20t43.5 -30.5
q48 -35 91 -34q39 3 108 68zM634 1450h69q103 0 198.5 -36.5t168 -100t115.5 -157t43 -201.5v-478q0 -214 -150.5 -353.5t-374.5 -139.5h-69q-233 0 -377 139t-144 354v478q0 218 149 356.5t372 138.5zM692 1231h-45q-109 -1 -184 -76.5t-75 -192.5v-493q0 -121 75.5 -194
t183.5 -73h45q107 0 184 72.5t77 194.5v493q0 117 -78 193t-183 76z" />
    <glyph glyph-name="Odieresis" unicode="&#xd6;" horiz-adv-x="1341" 
d="M595 1635h-185v188h185v-188zM929 1635h-185v188h185v-188zM634 1450h69q103 0 198.5 -36.5t168 -100t115.5 -157t43 -201.5v-478q0 -214 -150.5 -353.5t-374.5 -139.5h-69q-233 0 -377 139t-144 354v478q0 218 149 356.5t372 138.5zM692 1231h-45q-109 -1 -184 -76.5
t-75 -192.5v-493q0 -121 75.5 -194t183.5 -73h45q107 0 184 72.5t77 194.5v493q0 117 -78 193t-183 76z" />
    <glyph glyph-name="multiply" unicode="&#xd7;" horiz-adv-x="1005" 
d="M924 883l-271 -270l271 -271l-151 -151l-270 271l-271 -271l-151 151l271 271l-271 270l151 151l271 -271l270 271z" />
    <glyph glyph-name="Oslash" unicode="&#xd8;" horiz-adv-x="1382" 
d="M1151 1536l-89 -200q87 -67 136.5 -165.5t49.5 -215.5v-478q0 -214 -150 -353.5t-374 -139.5h-69q-97 0 -181 26l-49 -112h-193l85 191q-88 67 -135.5 167.5t-47.5 220.5v478q0 218 149 356.5t372 138.5h69q96 0 183 -30l52 116h192zM409 962v-493q0 -63 24 -119l381 860
q-48 21 -102 21h-44q-109 -1 -184 -76.5t-75 -192.5zM974 469v493q0 63 -25 118l-381 -859q49 -19 100 -19h44q107 0 184.5 73t77.5 194z" />
    <glyph glyph-name="Ugrave" unicode="&#xd9;" 
d="M878 1576h-194l-218 302h246zM1244 1434v-975q0 -115 -42.5 -207.5t-115.5 -150t-165 -87.5t-196 -30h-65q-147 0 -262 52.5t-184.5 161.5t-69.5 261v975h275v-975q0 -121 73.5 -189t180.5 -68h44q104 0 178 68.5t74 188.5v975h275z" />
    <glyph glyph-name="Uacute" unicode="&#xda;" 
d="M680 1577h-193l165 301h247zM1244 1434v-975q0 -115 -42.5 -207.5t-115.5 -150t-165 -87.5t-196 -30h-65q-147 0 -262 52.5t-184.5 161.5t-69.5 261v975h275v-975q0 -121 73.5 -189t180.5 -68h44q104 0 178 68.5t74 188.5v975h275z" />
    <glyph glyph-name="Ucircumflex" unicode="&#xdb;" 
d="M1066 1561h-227l-146 166l-146 -167h-228l291 318h164zM1244 1434v-975q0 -115 -42.5 -207.5t-115.5 -150t-165 -87.5t-196 -30h-65q-147 0 -262 52.5t-184.5 161.5t-69.5 261v975h275v-975q0 -121 73.5 -189t180.5 -68h44q104 0 178 68.5t74 188.5v975h275z" />
    <glyph glyph-name="Udieresis" unicode="&#xdc;" 
d="M616 1635h-184v188h184v-188zM951 1635h-185v188h185v-188zM1244 1434v-975q0 -115 -42.5 -207.5t-115.5 -150t-165 -87.5t-196 -30h-65q-147 0 -262 52.5t-184.5 161.5t-69.5 261v975h275v-975q0 -121 73.5 -189t180.5 -68h44q104 0 178 68.5t74 188.5v975h275z" />
    <glyph glyph-name="Yacute" unicode="&#xdd;" horiz-adv-x="1325" 
d="M652 1577h-194l165 301h247zM800 588v-588h-275v590l-457 844h295l299 -592l301 592h295z" />
    <glyph glyph-name="Thorn" unicode="&#xde;" horiz-adv-x="1245" 
d="M429 1214h306q179 0 286 -112.5t107 -293.5v-95q0 -185 -106 -295t-287 -110h-306v-308h-275v1434h275v-220zM429 991v-460h264q69 0 114.5 45.5t45.5 116.5v136q0 67 -46 114.5t-114 47.5h-264z" />
    <glyph glyph-name="germandbls" unicode="&#xdf;" horiz-adv-x="1220" 
d="M519 1447h214q152 0 257.5 -100t106.5 -241v-114q0 -88 -48 -151t-101 -85q57 -19 113 -88t56 -166v-166q0 -142 -105.5 -242t-258.5 -100h-287v196h253q67 0 112 43.5t45 108.5v165q0 65 -45 108.5t-112 43.5h-62v179h58q65 1 108.5 45t43.5 108v104q0 65 -45 109
t-112 44h-168q-67 0 -112 -44t-45 -109v-1095h-231v1105q2 141 107.5 241.5t257.5 100.5z" />
    <glyph glyph-name="agrave" unicode="&#xe0;" horiz-adv-x="1040" 
d="M708 1166h-194l-218 302h247zM178 812l-29 185q208 44 352 44q65 0 124 -10.5t117 -37t100.5 -66.5t68.5 -104t26 -144v-679h-211l-12 93q-73 -43 -162.5 -75t-169.5 -32q-139 0 -229 81t-91 218v34q1 69 25.5 121.5t63 84t92.5 51.5t107 27t114 7q100 0 217 -23v82
q0 50 -21.5 86.5t-56.5 55t-70 27t-70 8.5q-122 0 -285 -34zM681 224v247q-70 14 -170 14q-41 0 -75 -6.5t-66 -21.5t-50 -44.5t-18 -71.5v-56q0 -63 42 -101.5t106 -39.5q98 0 231 80z" />
    <glyph glyph-name="aacute" unicode="&#xe1;" horiz-adv-x="1040" 
d="M511 1168h-194l165 301h247zM178 812l-29 185q208 44 352 44q65 0 124 -10.5t117 -37t100.5 -66.5t68.5 -104t26 -144v-679h-211l-12 93q-73 -43 -162.5 -75t-169.5 -32q-139 0 -229 81t-91 218v34q1 69 25.5 121.5t63 84t92.5 51.5t107 27t114 7q100 0 217 -23v82
q0 50 -21.5 86.5t-56.5 55t-70 27t-70 8.5q-122 0 -285 -34zM681 224v247q-70 14 -170 14q-41 0 -75 -6.5t-66 -21.5t-50 -44.5t-18 -71.5v-56q0 -63 41.5 -101.5t106.5 -39.5q98 0 231 80z" />
    <glyph glyph-name="acircumflex" unicode="&#xe2;" horiz-adv-x="1040" 
d="M897 1152h-227l-147 165l-146 -167h-228l291 318h164zM178 812l-29 185q208 44 352 44q65 0 124 -10.5t117 -37t100.5 -66.5t68.5 -104t26 -144v-679h-211l-12 93q-73 -43 -162.5 -75t-169.5 -32q-139 0 -229 81t-91 218v34q1 69 25.5 121.5t63 84t92.5 51.5t107 27
t114 7q100 0 217 -23v82q0 50 -21.5 86.5t-56.5 55t-70 27t-70 8.5q-122 0 -285 -34zM681 224v247q-70 14 -170 14q-41 0 -75 -6.5t-66 -21.5t-50 -44.5t-18 -71.5v-56q0 -63 41.5 -101.5t106.5 -39.5q98 0 231 80z" />
    <glyph glyph-name="atilde" unicode="&#xe3;" horiz-adv-x="1040" 
d="M765 1449l105 -111q-105 -111 -202 -123q-74 -6 -144 40q-6 4 -22 15.5t-23.5 16l-20 12t-23.5 10t-23 2.5q-10 0 -24 -5t-25.5 -11.5t-27 -18t-23.5 -18t-21 -17t-14 -11.5l-102 113q140 132 239 132q33 0 63 -10.5t45.5 -20t43.5 -30.5q48 -35 91 -34q38 3 108 69z
M178 812l-29 185q208 44 352 44q65 0 124 -10.5t117 -37t100.5 -66.5t68.5 -104t26 -144v-679h-211l-12 93q-73 -43 -162.5 -75t-169.5 -32q-139 0 -229 81t-91 218v34q1 69 25.5 121.5t63 84t92.5 51.5t107 27t114 7q100 0 217 -23v82q0 50 -21.5 86.5t-56.5 55t-70 27
t-70 8.5q-122 0 -285 -34zM681 224v247q-70 14 -170 14q-56 0 -99.5 -11t-76.5 -45t-33 -89v-55q0 -63 42 -101.5t106 -39.5q98 0 231 80z" />
    <glyph glyph-name="adieresis" unicode="&#xe4;" horiz-adv-x="1040" 
d="M446 1226h-184v187h184v-187zM781 1226h-185v187h185v-187zM178 812l-29 185q208 44 352 44q65 0 124 -10.5t117 -37t100.5 -66.5t68.5 -104t26 -144v-679h-211l-12 93q-73 -43 -162.5 -75t-169.5 -32q-139 0 -229 81t-91 218v34q1 69 25.5 121.5t63 84t92.5 51.5t107 27
t114 7q100 0 217 -23v82q0 50 -21.5 86.5t-56.5 55t-70 27t-70 8.5q-122 0 -285 -34zM681 224v247q-70 14 -170 14q-41 0 -75 -6.5t-66 -21.5t-50 -44.5t-18 -71.5v-56q0 -63 42 -101.5t106 -39.5q98 0 231 80z" />
    <glyph glyph-name="aring" unicode="&#xe5;" horiz-adv-x="1040" 
d="M521 1537q88 0 150 -62.5t62 -145.5q0 -91 -61.5 -152t-150.5 -61t-149 61t-60 152q0 83 61 145.5t148 62.5zM521 1425q-40 0 -68 -28.5t-28 -67.5q0 -41 28 -69t68 -28t68 28.5t28 68.5q0 39 -28.5 67.5t-67.5 28.5zM178 812l-29 185q208 44 352 44q65 0 124 -10.5
t117 -37t100.5 -66.5t68.5 -104t26 -144v-679h-211l-12 93q-73 -43 -162.5 -75t-169.5 -32q-139 0 -229 81t-91 218v34q1 69 25.5 121.5t63 84t92.5 51.5t107 27t114 7q100 0 217 -23v82q0 50 -21.5 86.5t-56.5 55t-70 27t-70 8.5q-122 0 -285 -34zM681 224v247
q-70 14 -170 14q-56 0 -99.5 -11t-76.5 -45t-33 -89v-55q0 -63 42 -101.5t106 -39.5q98 0 231 80z" />
    <glyph glyph-name="ae" unicode="&#xe6;" horiz-adv-x="1767" 
d="M178 812l-29 185q208 44 352 44q117 0 221 -40t156 -126q56 84 159.5 125t210.5 41q62 0 122 -11.5t118.5 -38.5t102.5 -67t71 -103t27 -140v-227h-642v-123q0 -45 20 -79.5t52.5 -52t65 -26t65.5 -8.5q114 0 385 35l27 -169q-225 -45 -399 -45q-92 0 -181 26.5
t-145 84.5v-97h-211l-12 93q-73 -43 -162.5 -75t-169.5 -32q-139 0 -229 81t-91 218v34q1 69 25.5 121.5t63 84t92.5 51.5t107 27t114 7q100 0 217 -23v82q0 50 -21.5 86.5t-56.5 55t-70 27t-70 8.5q-122 0 -285 -34zM1450 571v124q0 46 -20 80.5t-52 52t-64.5 25.5t-65.5 8
q-45 0 -88 -14t-78 -53.5t-35 -98.5v-124h403zM682 224v247q-70 14 -171 14q-41 0 -75 -6.5t-66 -21.5t-50 -44.5t-18 -71.5v-56q0 -63 42 -101.5t106 -39.5q99 0 232 80z" />
    <glyph glyph-name="ccedilla" unicode="&#xe7;" horiz-adv-x="856" 
d="M82 339v343q0 79 27 143t70.5 103.5t101.5 66t114.5 37t115.5 10.5q128 0 272 -32l-15 -193q-118 26 -211 26q-39 0 -76 -9.5t-71.5 -29.5t-55.5 -57.5t-21 -87.5v-297q0 -50 21 -87.5t55.5 -58t71.5 -30t76 -9.5q88 0 211 27l16 -193q-147 -31 -268 -31h-11v-46h24
q59 0 102.5 -45t43.5 -108v-31q0 -72 -47.5 -120t-112.5 -48h-201v131h192q18 0 31 12.5t13 32.5v13q0 20 -13 32.5t-31 12.5h-113v174q-48 10 -90.5 27t-84 46t-71 67t-47.5 91.5t-18 117.5z" />
    <glyph glyph-name="egrave" unicode="&#xe8;" horiz-adv-x="1042" 
d="M704 1166h-194l-218 302h247zM82 346v335q0 77 28 139.5t73 103t104 67.5t118 38.5t118 11.5q62 0 122 -11.5t118.5 -38.5t102.5 -67t71 -103t27 -140v-234h-642v-116q0 -45 20 -79.5t52.5 -52t65 -26t65.5 -8.5q114 0 385 35l27 -169q-225 -45 -400 -45
q-67 0 -128.5 10.5t-122 37t-105 66.5t-72 103t-27.5 143zM724 580v115q0 46 -20 80.5t-51.5 52t-64 25.5t-65.5 8q-45 0 -88 -14t-78 -53.5t-35 -98.5v-115h402z" />
    <glyph glyph-name="eacute" unicode="&#xe9;" horiz-adv-x="1042" 
d="M507 1168h-194l165 301h247zM82 346v335q0 77 28 139.5t73 103t104 67.5t118 38.5t118 11.5q62 0 122 -11.5t118.5 -38.5t102.5 -67t71 -103t27 -140v-234h-642v-116q0 -45 20 -79.5t52.5 -52t65 -26t65.5 -8.5q114 0 385 35l27 -169q-225 -45 -400 -45
q-67 0 -128.5 10.5t-122 37t-105 66.5t-72 103t-27.5 143zM724 580v115q0 46 -20 80.5t-51.5 52t-64 25.5t-65.5 8q-45 0 -88 -14t-78 -53.5t-35 -98.5v-115h402z" />
    <glyph glyph-name="ecircumflex" unicode="&#xea;" horiz-adv-x="1042" 
d="M893 1152h-227l-147 165l-146 -167h-228l291 318h164zM82 346v335q0 77 28 139.5t73 103t104 67.5t118 38.5t118 11.5q62 0 122 -11.5t118.5 -38.5t102.5 -67t71 -103t27 -140v-234h-642v-116q0 -45 20 -79.5t52.5 -52t65 -26t65.5 -8.5q114 0 385 35l27 -169
q-225 -45 -400 -45q-67 0 -128.5 10.5t-122 37t-105 66.5t-72 103t-27.5 143zM724 580v115q0 46 -20 80.5t-51.5 52t-64 25.5t-65.5 8q-45 0 -88 -14t-78 -53.5t-35 -98.5v-115h402z" />
    <glyph glyph-name="edieresis" unicode="&#xeb;" horiz-adv-x="1042" 
d="M442 1226h-184v187h184v-187zM777 1226h-185v187h185v-187zM82 346v335q0 77 28 139.5t73 103t104 67.5t118 38.5t118 11.5q62 0 122 -11.5t118.5 -38.5t102.5 -67t71 -103t27 -140v-234h-642v-116q0 -45 20 -79.5t52.5 -52t65 -26t65.5 -8.5q114 0 385 35l27 -169
q-225 -45 -400 -45q-67 0 -128.5 10.5t-122 37t-105 66.5t-72 103t-27.5 143zM724 580v115q0 46 -20 80.5t-51.5 52t-64 25.5t-65.5 8q-45 0 -88 -14t-78 -53.5t-35 -98.5v-115h402z" />
    <glyph glyph-name="igrave" unicode="&#xec;" horiz-adv-x="436" 
d="M406 1166h-193l-219 302h247zM347 0h-256v1024h256v-1024z" />
    <glyph glyph-name="iacute" unicode="&#xed;" horiz-adv-x="436" 
d="M209 1167h-194l166 301h247zM347 0h-256v1024h256v-1024z" />
    <glyph glyph-name="icircumflex" unicode="&#xee;" horiz-adv-x="436" 
d="M595 1152h-227l-146 165l-146 -166h-228l291 317h163zM347 0h-256v1024h256v-1024z" />
    <glyph glyph-name="idieresis" unicode="&#xef;" horiz-adv-x="436" 
d="M145 1226h-184v187h184v-187zM480 1226h-185v187h185v-187zM347 0h-256v1024h256v-1024z" />
    <glyph glyph-name="eth" unicode="&#xf0;" horiz-adv-x="1116" 
d="M1050 1408l-131 -99q78 -105 78 -249v-726q0 -148 -106.5 -247t-261.5 -99h-187q-148 0 -252 100t-104 246v198q0 145 103 243.5t249 100.5h119q59 0 186 -23v239q0 38 -11 73l-182 -138l-73 92l186 141q-49 35 -116 35h-111q-136 0 -298 -27v166q182 38 296 38h126
q161 0 275 -82l144 109zM748 343v297q-61 38 -148 38h-116q-62 0 -105 -45t-43 -112v-178q0 -68 43 -112.5t105 -44.5h109q68 0 111.5 44t43.5 113z" />
    <glyph glyph-name="ntilde" unicode="&#xf1;" horiz-adv-x="1093" 
d="M791 1449l105 -111q-105 -111 -202 -123q-74 -6 -144 40q-6 4 -22 15.5t-23.5 16l-20 12t-23.5 10t-23 2.5q-10 0 -24 -5t-25.5 -11.5t-27 -18t-23.5 -18t-21 -17t-14 -11.5l-101 113q140 132 238 132q33 0 63 -10.5t46 -20.5t44 -30q48 -35 90 -34q38 3 108 69z
M323 1024l10 -80q156 98 302 98q158 0 256.5 -98.5t98.5 -247.5v-696h-242v674q0 73 -50 121.5t-126 48.5q-85 0 -203 -58v-786h-256v1024h210z" />
    <glyph glyph-name="ograve" unicode="&#xf2;" horiz-adv-x="1067" 
d="M716 1166h-194l-219 302h247zM82 356v311q0 94 38 167.5t102 117t143 66t167 22.5q93 0 173 -22t143 -66t99.5 -117.5t36.5 -167.5v-311q0 -94 -36.5 -167t-100 -117.5t-143.5 -67t-172 -22.5q-123 0 -222.5 40t-163.5 126.5t-64 207.5zM735 359v305q0 88 -56 132.5
t-147 44.5q-90 0 -145 -44.5t-55 -132.5v-305q0 -88 55.5 -132.5t144.5 -44.5q91 0 147 44.5t56 132.5z" />
    <glyph glyph-name="oacute" unicode="&#xf3;" horiz-adv-x="1067" 
d="M518 1167h-193l165 301h247zM82 356v311q0 94 38 167.5t102 117t143 66t167 22.5q93 0 173 -22t143 -66t99.5 -117.5t36.5 -167.5v-311q0 -94 -36.5 -167t-100 -117.5t-143.5 -67t-172 -22.5q-123 0 -222.5 40t-163.5 126.5t-64 207.5zM735 359v305q0 88 -56 132.5
t-147 44.5q-90 0 -145 -44.5t-55 -132.5v-305q0 -88 55.5 -132.5t144.5 -44.5q91 0 147 44.5t56 132.5z" />
    <glyph glyph-name="ocircumflex" unicode="&#xf4;" horiz-adv-x="1067" 
d="M905 1152h-228l-146 165l-146 -166h-228l291 317h163zM82 356v311q0 94 38 167.5t102 117t143 66t167 22.5q93 0 173 -22t143 -66t99.5 -117.5t36.5 -167.5v-311q0 -94 -36.5 -167t-100 -117.5t-143.5 -67t-172 -22.5q-123 0 -222.5 40t-163.5 126.5t-64 207.5zM735 359
v305q0 88 -56 132.5t-147 44.5q-90 0 -145 -44.5t-55 -132.5v-305q0 -88 55.5 -132.5t144.5 -44.5q91 0 147 44.5t56 132.5z" />
    <glyph glyph-name="otilde" unicode="&#xf5;" horiz-adv-x="1067" 
d="M772 1449l105 -111q-105 -111 -202 -123q-74 -6 -144 40q-6 4 -22 15.5t-23.5 16l-20 12t-23.5 10t-23 2.5q-10 0 -23.5 -5t-25.5 -12t-27 -17.5t-23.5 -17.5t-20.5 -17.5t-14 -11.5l-102 113q140 132 238 132q33 0 63 -10.5t46 -20.5t44 -30q48 -35 91 -34q37 3 107 69z
M82 356v311q0 94 38 167.5t102 117t143 66t167 22.5q93 0 173 -22.5t143.5 -66.5t99.5 -117t36 -167v-311q0 -94 -36.5 -167t-100 -117.5t-143.5 -67t-172 -22.5q-123 0 -222.5 40t-163.5 126.5t-64 207.5zM734 359v305q0 88 -55 132t-146 44q-90 0 -145.5 -44t-55.5 -132
v-305q0 -88 56 -132t145 -44q91 0 146 44t55 132z" />
    <glyph glyph-name="odieresis" unicode="&#xf6;" horiz-adv-x="1067" 
d="M454 1226h-185v187h185v-187zM789 1226h-185v187h185v-187zM82 356v311q0 94 38 167.5t102 117t143 66t167 22.5q93 0 173 -22t143 -66t99.5 -117.5t36.5 -167.5v-311q0 -94 -36.5 -167t-100 -117.5t-143.5 -67t-172 -22.5q-123 0 -222.5 40t-163.5 126.5t-64 207.5z
M735 359v305q0 88 -56 132.5t-147 44.5q-90 0 -145 -44.5t-55 -132.5v-305q0 -88 55.5 -132.5t144.5 -44.5q91 0 147 44.5t56 132.5z" />
    <glyph glyph-name="divide" unicode="&#xf7;" horiz-adv-x="1103" 
d="M690 935h-276v233h276v-233zM1041 542h-979v214h979v-214zM690 133h-276v233h276v-233z" />
    <glyph glyph-name="oslash" unicode="&#xf8;" horiz-adv-x="1087" 
d="M873 1127l-64 -145q185 -97 185 -315v-311q0 -94 -36.5 -167t-100 -117.5t-143 -67t-171.5 -22.5t-170 22l-47 -106h-112l64 145q-87 47 -136 126t-49 187v311q0 94 38 167.5t102 117t143 66t167 22.5q91 0 171 -21l48 108h111zM342 664v-305q0 -61 31 -105l256 574
q-39 12 -86 12q-90 0 -145.5 -44t-55.5 -132zM745 359v305q0 62 -31 106l-256 -575q39 -12 85 -12q91 0 146.5 44t55.5 132z" />
    <glyph glyph-name="ugrave" unicode="&#xf9;" horiz-adv-x="1087" 
d="M726 1166h-194l-217 302h245zM980 0h-211l-10 80q-158 -99 -290 -99q-166 0 -266 98t-100 249v696h242v-673q0 -75 52.5 -123t133.5 -48q77 0 193 58v786h256v-1024z" />
    <glyph glyph-name="uacute" unicode="&#xfa;" horiz-adv-x="1087" 
d="M530 1167h-194l165 301h247zM980 0h-211l-10 80q-158 -99 -290 -99q-166 0 -266 98t-100 249v696h242v-673q0 -75 52.5 -123t133.5 -48q77 0 193 58v786h256v-1024z" />
    <glyph glyph-name="ucircumflex" unicode="&#xfb;" horiz-adv-x="1087" 
d="M915 1152h-227l-147 165l-146 -166h-228l292 317h164zM980 0h-211l-10 80q-158 -99 -290 -99q-166 0 -266 98t-100 249v696h242v-673q0 -75 52.5 -123t133.5 -48q77 0 193 58v786h256v-1024z" />
    <glyph glyph-name="udieresis" unicode="&#xfc;" horiz-adv-x="1087" 
d="M464 1226h-183v187h183v-187zM799 1226h-185v187h185v-187zM980 0h-211l-10 80q-158 -99 -290 -99q-166 0 -266 98t-100 249v696h242v-673q0 -75 52.5 -123t133.5 -48q77 0 193 58v786h256v-1024z" />
    <glyph glyph-name="yacute" unicode="&#xfd;" horiz-adv-x="1093" 
d="M534 1167h-194l165 301h247zM976 1024v-1049q0 -66 -17.5 -121.5t-49 -94t-72 -67.5t-88.5 -45.5t-95.5 -24.5t-97.5 -9q-164 0 -411 51l30 176q207 -41 327 -41q31 0 64 8t69.5 26t60 55.5t23.5 88.5v104q-155 -89 -286 -91q-91 0 -166 39t-122 119.5t-47 189.5v686h242
v-673q0 -73 50.5 -122t126.5 -49q79 0 202 58v786h257z" />
    <glyph glyph-name="thorn" unicode="&#xfe;" horiz-adv-x="1128" 
d="M359 1449v-494q144 93 301 93q158 0 256.5 -98t98.5 -244v-359q0 -75 -22.5 -136t-59 -99.5t-84.5 -64.5t-96.5 -36.5t-97.5 -10.5q-135 1 -261 47v-459h-255v1861h220zM774 360v318q0 71 -51 121t-126 50q-94 0 -202 -60v-587q68 -13 159 -13q37 0 72.5 8.5t70 26.5
t56 53t21.5 83z" />
    <glyph glyph-name="ydieresis" unicode="&#xff;" horiz-adv-x="1093" 
d="M469 1226h-184v187h184v-187zM803 1226h-185v187h185v-187zM976 1024v-1049q0 -66 -17.5 -121.5t-49 -94t-72 -67.5t-88.5 -45.5t-95.5 -24.5t-97.5 -9q-164 0 -411 51l30 176q207 -41 327 -41q31 0 64 8t69.5 26t60 55.5t23.5 88.5v104q-155 -89 -286 -91q-91 0 -166 39
t-122 119.5t-47 189.5v686h242v-673q0 -73 50.5 -122t126.5 -49q79 0 202 58v786h257z" />
    <glyph glyph-name="Amacron" unicode="&#x100;" horiz-adv-x="1404" 
d="M1032 1687h-655v156h655v-156zM1323 0h-288l-103 341h-460l-101 -341h-289l448 1434h345zM512 560h381l-190 647z" />
    <glyph glyph-name="amacron" unicode="&#x101;" horiz-adv-x="1040" 
d="M850 1277h-655v157h655v-157zM178 812l-29 185q208 44 352 44q65 0 124 -10.5t117 -37t100.5 -66.5t68.5 -104t26 -144v-679h-211l-12 93q-73 -43 -162.5 -75t-169.5 -32q-139 0 -229 81t-91 218v34q1 69 25.5 121.5t63 84t92.5 51.5t107 27t114 7q100 0 217 -23v82
q0 50 -21.5 86.5t-56.5 55t-70 27t-70 8.5q-122 0 -285 -34zM681 224v247q-70 14 -170 14q-41 0 -75 -6.5t-66 -21.5t-50 -44.5t-18 -71.5v-56q0 -63 42 -101.5t106 -39.5q98 0 231 80z" />
    <glyph glyph-name="Abreve" unicode="&#x102;" horiz-adv-x="1404" 
d="M845 1883h168q-6 -116 -68.5 -195.5t-167.5 -79.5h-131q-104 0 -166.5 79.5t-65.5 195.5h168q3 -56 28.5 -86t67.5 -30h71q39 0 64.5 30.5t31.5 85.5zM1324 0h-289l-103 340h-460l-101 -340h-289l449 1434h344zM512 559h381l-191 648z" />
    <glyph glyph-name="abreve" unicode="&#x103;" horiz-adv-x="1040" 
d="M662 1473h169q-6 -116 -68.5 -195.5t-167.5 -79.5h-131q-104 0 -166.5 79.5t-65.5 195.5h167q3 -56 29 -86t68 -30h71q39 0 64 30.5t31 85.5zM178 812l-29 185q208 44 352 44q65 0 124 -10.5t117 -37t100.5 -66.5t68.5 -104t26 -144v-679h-211l-12 93q-73 -43 -162.5 -75
t-169.5 -32q-139 0 -229 81t-91 218v34q1 69 25.5 121.5t63 84t92.5 51.5t107 27t114 7q100 0 217 -23v82q0 50 -21.5 86.5t-56.5 55t-70 27t-70 8.5q-122 0 -285 -34zM681 224v247q-70 14 -170 14q-41 0 -75 -6.5t-66 -21.5t-50 -44.5t-18 -71.5v-56q0 -63 42 -101.5
t106 -39.5q98 0 231 80z" />
    <glyph glyph-name="Aogonek" unicode="&#x104;" horiz-adv-x="1404" 
d="M1324 0h-299q-28 0 -48 -21t-20 -51v-18q0 -31 20 -52.5t48 -21.5h207v-131h-244q-79 0 -134 49.5t-55 134.5v52q0 85 55 133t134 48h23l-85 256h-448l-107 -378h-289l449 1434h344zM514 575h376l-188 632z" />
    <glyph glyph-name="aogonek" unicode="&#x105;" horiz-adv-x="1040" 
d="M178 812l-29 185q208 44 352 44q65 0 124 -10.5t117 -37t100.5 -66.5t68.5 -104t26 -144v-706h-66q-28 0 -47.5 -20.5t-19.5 -50.5v-19q0 -30 19.5 -50.5t47.5 -20.5h208v-134h-245q-78 0 -133 50.5t-55 134.5v51q0 41 22 71t54 36l1 6l-9 66q-73 -43 -162.5 -75
t-169.5 -32q-139 0 -229 81t-91 218v34q1 69 25.5 121.5t63 84t92.5 51.5t107 27t114 7q100 0 217 -23v82q0 50 -21.5 86.5t-56.5 55t-70 27t-70 8.5q-122 0 -285 -34zM681 224v247q-70 14 -170 14q-56 0 -99.5 -11t-76.5 -45t-33 -89v-55q0 -63 42 -101.5t106 -39.5
q98 0 231 80z" />
    <glyph glyph-name="Cacute" unicode="&#x106;" horiz-adv-x="1081" 
d="M610 1577h-194l165 301h247zM632 1451h55q141 0 307 -42l-16 -203q-163 25 -290 26h-42q-109 0 -183.5 -73.5t-74.5 -194.5v-493q0 -121 74.5 -194.5t183.5 -73.5h42q127 1 290 26l16 -203q-166 -42 -307 -42h-55q-143 0 -260 57.5t-188 171.5t-71 265v479q0 151 71 265
t188 171.5t260 57.5z" />
    <glyph glyph-name="cacute" unicode="&#x107;" horiz-adv-x="856" 
d="M483 1168h-194l165 301h247zM82 339v343q0 79 27 143t70.5 103.5t101.5 66t114.5 37t115.5 10.5q128 0 272 -32l-15 -193q-118 26 -211 26q-39 0 -76 -9.5t-71.5 -29.5t-55.5 -57.5t-21 -87.5v-297q0 -50 21 -87.5t55.5 -58t71.5 -30t76 -9.5q88 0 211 27l15 -193
q-144 -32 -272 -32q-58 0 -115 10.5t-115 37t-101 66t-70.5 103.5t-27.5 143z" />
    <glyph glyph-name="Cdotaccent" unicode="&#x10a;" horiz-adv-x="1081" 
d="M712 1635h-185v188h185v-188zM632 1451h55q141 0 307 -42l-16 -203q-163 25 -290 26h-42q-109 0 -183.5 -73.5t-74.5 -194.5v-493q0 -121 74.5 -194.5t183.5 -73.5h42q127 1 290 26l16 -203q-166 -42 -307 -42h-55q-143 0 -260 57.5t-188 171.5t-71 265v479q0 151 71 265
t188 171.5t260 57.5z" />
    <glyph glyph-name="cdotaccent" unicode="&#x10b;" horiz-adv-x="856" 
d="M585 1226h-185v187h185v-187zM82 339v343q0 79 27 143t70.5 103.5t101.5 66t114.5 37t115.5 10.5q128 0 272 -32l-15 -193q-118 26 -211 26q-39 0 -76 -9.5t-71.5 -29.5t-55.5 -57.5t-21 -87.5v-297q0 -50 21 -87.5t55.5 -58t71.5 -30t76 -9.5q88 0 211 27l15 -193
q-144 -32 -272 -32q-58 0 -115 10.5t-115 37t-101 66t-70.5 103.5t-27.5 143z" />
    <glyph glyph-name="Ccaron" unicode="&#x10c;" horiz-adv-x="1081" 
d="M704 1561h-164l-292 317h227l146 -166l147 166h228zM632 1451h55q141 0 307 -42l-16 -203q-163 25 -290 26h-42q-109 0 -183.5 -73.5t-74.5 -194.5v-493q0 -121 74.5 -194.5t183.5 -73.5h42q127 1 290 26l16 -203q-166 -42 -307 -42h-55q-143 0 -260 57.5t-188 171.5
t-71 265v479q0 151 71 265t188 171.5t260 57.5z" />
    <glyph glyph-name="ccaron" unicode="&#x10d;" horiz-adv-x="856" 
d="M577 1152h-164l-292 316h227l146 -165l147 165h228zM82 339v343q0 79 27 143t70.5 103.5t101.5 66t114.5 37t115.5 10.5q128 0 272 -32l-15 -193q-118 26 -211 26q-39 0 -76 -9.5t-71.5 -29.5t-55.5 -57.5t-21 -87.5v-297q0 -50 21 -87.5t55.5 -58t71.5 -30t76 -9.5
q88 0 211 27l15 -193q-144 -32 -272 -32q-58 0 -115 10.5t-115 37t-101 66t-70.5 103.5t-27.5 143z" />
    <glyph glyph-name="Dcaron" unicode="&#x10e;" horiz-adv-x="1339" 
d="M738 1560h-163l-292 317h227l146 -166l146 166h228zM165 1435h542q142 0 259.5 -59.5t188.5 -173.5t71 -262v-446q0 -114 -41.5 -208t-112 -156t-165 -96t-200.5 -34h-542v1435zM441 1215v-995h251q109 0 183.5 73t74.5 194v460q0 117 -75 192.5t-183 75.5h-251z" />
    <glyph glyph-name="dcaron" unicode="&#x10f;" horiz-adv-x="1327" 
d="M960 0h-210l-10 77q-146 -91 -287 -91q-164 -6 -267.5 92.5t-103.5 247.5v369q0 75 22.5 135.5t58.5 99t84.5 64.5t97 36.5t98.5 10.5q139 0 261 -46v439h256v-1434zM1286 1321l-89 -168h-123l52 103h-52v177h212v-112zM704 244v587q-64 12 -163 12q-35 0 -69.5 -8
t-69.5 -26t-56.5 -53t-21.5 -83v-318q0 -71 51 -121t126 -50q95 0 203 60z" />
    <glyph glyph-name="Dcroat" unicode="&#x110;" horiz-adv-x="1339" 
d="M165 1435h542q142 0 259.5 -59.5t188.5 -173.5t71 -262v-446q0 -114 -41.5 -208t-112 -156t-165 -96t-200.5 -34h-542v602h-113v152h113v681zM441 1215v-461h219v-152h-219v-382h251q109 0 183.5 73t74.5 194v460q0 117 -75 192.5t-183 75.5h-251z" />
    <glyph glyph-name="dcroat" unicode="&#x111;" horiz-adv-x="1093" 
d="M1130 1163h-170v-1163h-210l-10 77q-146 -91 -287 -91q-164 -6 -267.5 92.5t-103.5 247.5v369q0 75 22.5 135.5t58.5 99t84.5 64.5t97 36.5t98.5 10.5q139 0 261 -46v168h-228v155h228v116h256v-116h170v-155zM704 244v587q-64 12 -163 12q-35 0 -69.5 -8t-69.5 -26
t-56.5 -53t-21.5 -83v-318q0 -71 51 -121t126 -50q95 0 203 60z" />
    <glyph glyph-name="Emacron" unicode="&#x112;" horiz-adv-x="1116" 
d="M909 1687h-654v156h654v-156zM1026 1215h-605v-379h528v-219h-528v-398h605v-219h-882v1434h882v-219z" />
    <glyph glyph-name="emacron" unicode="&#x113;" horiz-adv-x="1042" 
d="M846 1277h-655v157h655v-157zM82 346v335q0 77 28 139.5t73 103t104 67.5t118 38.5t118 11.5q62 0 122 -11.5t118.5 -38.5t102.5 -67t71 -103t27 -140v-234h-642v-116q0 -45 20 -79.5t52.5 -52t65 -26t65.5 -8.5q114 0 385 35l27 -169q-225 -45 -400 -45
q-67 0 -128.5 10.5t-122 37t-105 66.5t-72 103t-27.5 143zM724 580v115q0 46 -20 80.5t-51.5 52t-64 25.5t-65.5 8q-45 0 -88 -14t-78 -53.5t-35 -98.5v-115h402z" />
    <glyph glyph-name="Edotaccent" unicode="&#x116;" horiz-adv-x="1116" 
d="M672 1635h-184v188h184v-188zM1026 1215h-605v-379h528v-219h-528v-398h605v-219h-882v1434h882v-219z" />
    <glyph glyph-name="edotaccent" unicode="&#x117;" horiz-adv-x="1042" 
d="M609 1226h-185v187h185v-187zM82 346v335q0 77 28 139.5t73 103t104 67.5t118 38.5t118 11.5q62 0 122 -11.5t118.5 -38.5t102.5 -67t71 -103t27 -140v-234h-642v-116q0 -45 20 -79.5t52.5 -52t65 -26t65.5 -8.5q114 0 385 35l27 -169q-225 -45 -400 -45
q-67 0 -128.5 10.5t-122 37t-105 66.5t-72 103t-27.5 143zM724 580v115q0 46 -20 80.5t-51.5 52t-64 25.5t-65.5 8q-45 0 -88 -14t-78 -53.5t-35 -98.5v-115h402z" />
    <glyph glyph-name="Eogonek" unicode="&#x118;" horiz-adv-x="1116" 
d="M1025 1215h-604v-380h527v-218h-527v-398h604v-219h-245q-28 0 -47.5 -21.5t-19.5 -52.5v-18q0 -31 19.5 -51.5t47.5 -20.5h208v-133h-245q-78 0 -133 50t-55 134v25q0 47 23 88h-434v1434h881v-219z" />
    <glyph glyph-name="eogonek" unicode="&#x119;" horiz-adv-x="1042" 
d="M82 346v335q0 77 28 139.5t73 103t104 67.5t118 38.5t118 11.5q62 0 122 -11.5t118.5 -38.5t102.5 -67t71 -103t27 -140v-234h-642v-116q0 -45 20 -79.5t52.5 -52t65 -26t65.5 -8.5q39 0 165.5 11.5t219.5 23.5l27 -169q-79 -17 -180 -30q-27 -4 -44.5 -24t-17.5 -47v-18
q0 -31 19.5 -52.5t47.5 -21.5h208v-131h-245q-79 0 -134 49.5t-55 134.5v19q0 38 19 78l-33 -2q-83 2 -156.5 21t-139.5 59t-105 112t-39 168zM724 580v115q0 46 -20 80.5t-51.5 52t-64 25.5t-65.5 8q-45 0 -88 -14t-78 -53.5t-35 -98.5v-115h402z" />
    <glyph glyph-name="Ecaron" unicode="&#x11a;" horiz-adv-x="1116" 
d="M664 1561h-163l-292 317h227l146 -166l146 166h228zM1026 1215h-605v-379h528v-219h-528v-398h605v-219h-882v1434h882v-219z" />
    <glyph glyph-name="ecaron" unicode="&#x11b;" horiz-adv-x="1042" 
d="M601 1152h-164l-292 316h227l147 -165l146 165h228zM82 346v335q0 77 28 139.5t73 103t104 67.5t118 38.5t118 11.5q62 0 122 -11.5t118.5 -38.5t102.5 -67t71 -103t27 -140v-234h-642v-116q0 -45 20 -79.5t52.5 -52t65 -26t65.5 -8.5q114 0 385 35l27 -169
q-225 -45 -400 -45q-67 0 -128.5 10.5t-122 37t-105 66.5t-72 103t-27.5 143zM724 580v115q0 46 -20 80.5t-51.5 52t-64 25.5t-65.5 8q-45 0 -88 -14t-78 -53.5t-35 -98.5v-115h402z" />
    <glyph glyph-name="Gbreve" unicode="&#x11e;" horiz-adv-x="1292" 
d="M812 1883h168q-6 -116 -68.5 -195.5t-167.5 -79.5h-131q-104 0 -166.5 79.5t-65.5 195.5h168q3 -56 28.5 -86t67.5 -30h71q39 0 64.5 30.5t31.5 85.5zM633 1450h55q140 -1 237.5 -18t194.5 -55l-34 -209q-102 36 -197.5 49.5t-241.5 13.5q-119 0 -189 -72.5t-70 -196.5
v-493q0 -120 66.5 -193t186.5 -74h40q141 0 226 43v365h-235v197h472v-710q-111 -61 -212 -87t-238 -26h-61q-244 1 -382 133t-138 360v478q0 236 142 365.5t378 129.5z" />
    <glyph glyph-name="gbreve" unicode="&#x11f;" horiz-adv-x="1073" 
d="M670 1473h169q-6 -116 -68.5 -195.5t-167.5 -79.5h-131q-104 0 -166.5 79.5t-65.5 195.5h167q3 -56 29 -86t68 -30h71q39 0 64 30.5t31 85.5zM82 345v354q0 148 103 244t268 96q61 2 141.5 -12.5t144.5 -40.5l10 37h210v-1039q0 -98 -38 -171t-101.5 -113t-133.5 -59
t-147 -20q-174 0 -410 51l29 176q207 -41 328 -41q23 0 49 4.5t57 17t55 31.5t40.5 51.5t16.5 74.5v96q-148 -84 -277 -84q-149 0 -247 91t-98 256zM705 239v583q-43 11 -106.5 16t-96.5 3q-76 -5 -126.5 -53t-50.5 -118v-313q0 -75 52 -122.5t133 -47.5q64 0 195 52z" />
    <glyph glyph-name="Gdotaccent" unicode="&#x120;" horiz-adv-x="1292" 
d="M762 1635h-184v188h184v-188zM633 1450h55q140 -1 237.5 -18t194.5 -55l-34 -209q-102 36 -197.5 49.5t-241.5 13.5q-119 0 -189 -72.5t-70 -196.5v-493q0 -120 66.5 -193t186.5 -74h40q141 0 226 43v365h-235v197h472v-710q-111 -61 -212 -87t-238 -26h-61
q-244 1 -382 133t-138 360v478q0 236 142 365.5t378 129.5z" />
    <glyph glyph-name="gdotaccent" unicode="&#x121;" horiz-adv-x="1073" 
d="M622 1226h-185v187h185v-187zM82 345v354q0 148 103 244t268 96q61 2 141.5 -12.5t144.5 -40.5l10 37h210v-1039q0 -98 -38 -171t-101.5 -113t-133.5 -59t-147 -20q-174 0 -410 51l29 176q207 -41 328 -41q23 0 49 4.5t57 17t55 31.5t40.5 51.5t16.5 74.5v96
q-148 -84 -277 -84q-149 0 -247 91t-98 256zM705 239v583q-43 11 -106.5 16t-96.5 3q-76 -5 -126.5 -53t-50.5 -118v-313q0 -75 52 -122.5t133 -47.5q64 0 195 52z" />
    <glyph glyph-name="Gcommaaccent" unicode="&#x122;" horiz-adv-x="1292" 
d="M633 1450h55q140 -1 237.5 -18t194.5 -55l-34 -209q-102 36 -197.5 49.5t-241.5 13.5q-119 0 -189 -72.5t-70 -196.5v-493q0 -120 66.5 -193t186.5 -74h40q141 0 226 43v365h-235v197h472v-710q-111 -61 -212 -87t-238 -26h-61q-244 1 -382 133t-138 360v478
q0 236 142 365.5t378 129.5zM752 -274l-88 -170h-123l52 104h-52v176h211v-110z" />
    <glyph glyph-name="gcommaaccent" unicode="&#x123;" horiz-adv-x="1073" 
d="M575 1447h52v-177h-211v112l88 168h123zM82 345v354q0 148 103 244t268 96q61 2 141.5 -12.5t144.5 -40.5l10 37h210v-1039q0 -98 -38 -171t-101.5 -113t-133.5 -59t-147 -20q-174 0 -410 51l29 176q207 -41 328 -41q23 0 49 4.5t57 17t55 31.5t40.5 51.5t16.5 74.5v96
q-148 -84 -277 -84q-149 0 -247 91t-98 256zM705 239v583q-43 11 -106.5 16t-96.5 3q-76 -5 -126.5 -53t-50.5 -118v-313q0 -76 52 -123.5t133 -47.5q61 0 195 53z" />
    <glyph glyph-name="Hbar" unicode="&#x126;" horiz-adv-x="1331" 
d="M1214 1225h92v-199h-92v-1026h-275v610h-547v-610h-275v1026h-91v199h91v209h275v-209h547v209h275v-209zM392 1026v-198h547v198h-547z" />
    <glyph glyph-name="hbar" unicode="&#x127;" horiz-adv-x="1146" 
d="M409 1331h238v-173h-239v-166q135 51 261 51q72 0 134.5 -19.5t114 -59.5t81.5 -108.5t30 -158.5v-696h-242v674q0 86 -61 127.5t-147 41.5q-80 0 -170 -18v-826h-256v1158h-147v173h147v103h256v-103z" />
    <glyph glyph-name="Itilde" unicode="&#x128;" horiz-adv-x="583" 
d="M534 1858l105 -111q-105 -111 -202 -123q-72 -6 -144 41q-6 4 -19 13t-19 13.5t-17 11t-18.5 9.5t-18 5.5t-20.5 2.5q-9 0 -19.5 -3.5t-22.5 -10t-22 -12.5t-22.5 -15.5t-19.5 -15t-17.5 -14t-11.5 -9.5l-101 112q141 133 238 133q33 0 63 -10.5t45.5 -20t43.5 -30.5
q48 -35 91 -34q39 3 108 68zM429 0h-275v1434h275v-1434z" />
    <glyph glyph-name="itilde" unicode="&#x129;" horiz-adv-x="436" 
d="M463 1449l105 -111q-105 -111 -202 -123q-74 -6 -144 40q-6 4 -22 15.5t-23.5 16l-20 12t-23.5 10t-23 2.5t-27.5 -6.5t-32.5 -17.5t-29.5 -20.5t-28 -22t-17.5 -14.5l-102 113q142 132 239 132q33 0 63 -10.5t46 -20.5t44 -30q48 -35 91 -34q37 3 107 69zM347 0h-256
v1024h256v-1024z" />
    <glyph glyph-name="Imacron" unicode="&#x12a;" horiz-adv-x="583" 
d="M619 1687h-656v156h656v-156zM429 0h-275v1434h275v-1434z" />
    <glyph glyph-name="imacron" unicode="&#x12b;" horiz-adv-x="436" 
d="M548 1277h-654v157h654v-157zM347 0h-256v1024h256v-1024z" />
    <glyph glyph-name="Iogonek" unicode="&#x12e;" horiz-adv-x="563" 
d="M419 0h-264q-28 0 -48 -21t-20 -51v-18q0 -31 20 -52.5t48 -21.5h207v-131h-244q-79 0 -134.5 49.5t-55.5 134.5v52q0 84 55.5 132.5t134.5 48.5h26v1312h275v-1434z" />
    <glyph glyph-name="iogonek" unicode="&#x12f;" horiz-adv-x="436" 
d="M355 1201h-275v195h275v-195zM347 0h-243q-28 0 -48 -21t-20 -51v-18q0 -30 20 -51t48 -21h207v-133h-244q-79 0 -134.5 50t-55.5 134v52q0 85 55.5 133.5t134.5 48.5h24v901h256v-1024z" />
    <glyph glyph-name="Idotaccent" unicode="&#x130;" horiz-adv-x="583" 
d="M383 1635h-185v188h185v-188zM429 0h-274v1434h274v-1434z" />
    <glyph glyph-name="dotlessi" unicode="&#x131;" horiz-adv-x="436" 
d="M347 0h-256v1024h256v-1024z" />
    <glyph glyph-name="IJ" unicode="&#x132;" horiz-adv-x="1507" 
d="M429 0h-275v1434h275v-1434zM1353 1434l1 -956q0 -151 -71.5 -265t-188.5 -171.5t-260 -57.5h-194v220h180q109 0 183.5 73t74.5 194v963h275z" />
    <glyph glyph-name="ij" unicode="&#x133;" horiz-adv-x="1024" 
d="M398 1176h-274v195h274v-195zM905 1176h-274v195h274v-195zM388 0h-255v1024h255v-1024zM896 1024v-1143q0 -108 -86.5 -188t-209.5 -80h-99v199h45q38 0 65.5 25.5t27.5 70.5v1116h257z" />
    <glyph glyph-name="Kcommaaccent" unicode="&#x136;" horiz-adv-x="1341" 
d="M631 714l644 -714h-333l-527 574v-574h-271v1435h271v-577l519 577h321zM764 -274l-88 -170h-123l52 104h-52v176h211v-110z" />
    <glyph glyph-name="kcommaaccent" unicode="&#x137;" horiz-adv-x="1073" 
d="M379 606l364 418h271l-411 -483l418 -541h-270l-372 449v-449h-255v1434h255v-828zM667 -274l-88 -170h-123l52 104h-52v176h211v-110z" />
    <glyph glyph-name="Lacute" unicode="&#x139;" horiz-adv-x="1130" 
d="M566 1585h-194l165 301h247zM440 218h614v-218h-889v1433h275v-1215z" />
    <glyph glyph-name="lacute" unicode="&#x13a;" horiz-adv-x="481" 
d="M235 1595h-194l165 301h247zM374 0h-256v1434h256v-1434z" />
    <glyph glyph-name="Lcommaaccent" unicode="&#x13b;" horiz-adv-x="1130" 
d="M440 218h614v-218h-889v1433h275v-1215zM740 -274l-88 -170h-123l52 104h-52v176h211v-110z" />
    <glyph glyph-name="lcommaaccent" unicode="&#x13c;" horiz-adv-x="487" 
d="M379 0h-255v1434h255v-1434zM356 -274l-88 -170h-123l52 104h-52v176h211v-110z" />
    <glyph glyph-name="Lcaron" unicode="&#x13d;" horiz-adv-x="1130" 
d="M440 218h614v-218h-889v1433h275v-1215zM954 1321l-88 -169h-123l52 104h-52v177h211v-112z" />
    <glyph glyph-name="lcaron" unicode="&#x13e;" horiz-adv-x="737" 
d="M374 0h-256v1434h256v-1434zM691 1320l-89 -169h-123l52 104h-52v176h212v-111z" />
    <glyph glyph-name="Ldot" unicode="&#x13f;" horiz-adv-x="1136" 
d="M440 218h614v-218h-889v1433h275v-1215zM933 583h-233v182h233v-182z" />
    <glyph glyph-name="ldot" unicode="&#x140;" horiz-adv-x="770" 
d="M374 0h-256v1434h256v-1434zM729 592h-232v182h232v-182z" />
    <glyph glyph-name="Lslash" unicode="&#x141;" horiz-adv-x="1150" 
d="M455 891l258 173v-235l-258 -174v-437h614v-218h-889v497l-170 -112v236l170 112v700h275v-542z" />
    <glyph glyph-name="lslash" unicode="&#x142;" horiz-adv-x="722" 
d="M453 889l260 175v-235l-260 -175v-654h-255v507l-188 -122v236l188 122v691h255v-545z" />
    <glyph glyph-name="Nacute" unicode="&#x143;" 
d="M684 1577h-193l165 301h247zM1258 0h-269l-584 965v-965h-271v1434h268l584 -971v971h272v-1434z" />
    <glyph glyph-name="nacute" unicode="&#x144;" horiz-adv-x="1093" 
d="M537 1168h-194l166 301h247zM323 1024l10 -80q156 98 302 98q158 0 256.5 -98.5t98.5 -247.5v-696h-242v674q0 73 -50 121.5t-126 48.5q-85 0 -203 -58v-786h-256v1024h210z" />
    <glyph glyph-name="Ncommaaccent" unicode="&#x145;" 
d="M1258 0h-269l-584 965v-965h-271v1434h268l584 -971v971h272v-1434zM801 -274l-88 -170h-123l52 104h-52v176h211v-110z" />
    <glyph glyph-name="ncommaaccent" unicode="&#x146;" horiz-adv-x="1093" 
d="M323 1024l10 -80q156 98 302 98q158 0 256.5 -98.5t98.5 -247.5v-696h-242v674q0 73 -50 121.5t-126 48.5q-85 0 -203 -58v-786h-256v1024h210zM655 -274l-89 -170h-123l52 104h-52v176h212v-110z" />
    <glyph glyph-name="Ncaron" unicode="&#x147;" 
d="M779 1561h-164l-292 317h227l146 -166l146 166h229zM1258 0h-269l-584 965v-965h-271v1434h268l584 -971v971h272v-1434z" />
    <glyph glyph-name="ncaron" unicode="&#x148;" horiz-adv-x="1093" 
d="M631 1152h-163l-292 316h227l146 -165l146 165h228zM323 1024l10 -80q156 98 302 98q158 0 256.5 -98.5t98.5 -247.5v-696h-242v674q0 73 -50 121.5t-126 48.5q-85 0 -203 -58v-786h-256v1024h210z" />
    <glyph glyph-name="Eng" unicode="&#x14a;" 
d="M1258 1434v-1395q1 -194 -120.5 -315t-309.5 -121h-187v198h134q84 0 146 50t76 133l-592 981v-965h-271v1434h268l584 -971v971h272z" />
    <glyph glyph-name="eng" unicode="&#x14b;" horiz-adv-x="1136" 
d="M341 1024l10 -80q156 98 302 98q158 0 257 -98.5t99 -247.5v-815q0 -108 -86.5 -188t-209.5 -80h-124v199h85q38 0 65 25.5t27 70.5v771q-2 70 -52 117.5t-124 47.5q-85 0 -203 -58v-786h-256v1024h210z" />
    <glyph glyph-name="Omacron" unicode="&#x14c;" horiz-adv-x="1341" 
d="M998 1687h-655v156h655v-156zM634 1450h69q103 0 198.5 -36.5t168 -100t115.5 -157t43 -201.5v-478q0 -214 -150.5 -353.5t-374.5 -139.5h-69q-233 0 -377 139t-144 354v478q0 218 149 356.5t372 138.5zM692 1231h-45q-109 -1 -184 -76.5t-75 -192.5v-493
q0 -121 75.5 -194t183.5 -73h45q107 0 184 72.5t77 194.5v493q0 117 -78 193t-183 76z" />
    <glyph glyph-name="omacron" unicode="&#x14d;" horiz-adv-x="1067" 
d="M857 1277h-654v157h654v-157zM82 356v311q0 94 38 167.5t102 117t143 66t167 22.5q93 0 173 -22t143 -66t99.5 -117.5t36.5 -167.5v-311q0 -94 -36.5 -167t-100 -117.5t-143.5 -67t-172 -22.5q-123 0 -222.5 40t-163.5 126.5t-64 207.5zM735 359v305q0 88 -56 132.5
t-147 44.5q-90 0 -145 -44.5t-55 -132.5v-305q0 -88 55.5 -132.5t144.5 -44.5q91 0 147 44.5t56 132.5z" />
    <glyph glyph-name="Ohungarumlaut" unicode="&#x150;" horiz-adv-x="1341" 
d="M491 1573h-194l165 303h247zM852 1573h-193l165 303h247zM634 1450h69q103 0 198.5 -36.5t168 -100t115.5 -157t43 -201.5v-478q0 -214 -150.5 -353.5t-374.5 -139.5h-69q-233 0 -377 139t-144 354v478q0 218 149 356.5t372 138.5zM692 1231h-45q-109 -1 -184 -76.5
t-75 -192.5v-493q0 -121 75.5 -194t183.5 -73h45q107 0 184 72.5t77 194.5v493q0 117 -78 193t-183 76z" />
    <glyph glyph-name="ohungarumlaut" unicode="&#x151;" horiz-adv-x="1067" 
d="M350 1164h-193l165 302h247zM712 1164h-194l165 302h247zM82 356v311q0 94 38 167.5t102 117t143 66t167 22.5q93 0 173 -22t143 -66t99.5 -117.5t36.5 -167.5v-311q0 -94 -36.5 -167t-100 -117.5t-143.5 -67t-172 -22.5q-123 0 -222.5 40t-163.5 126.5t-64 207.5z
M735 359v305q0 88 -56 132.5t-147 44.5q-90 0 -145 -44.5t-55 -132.5v-305q0 -88 55.5 -132.5t144.5 -44.5q91 0 147 44.5t56 132.5z" />
    <glyph glyph-name="OE" unicode="&#x152;" horiz-adv-x="1935" 
d="M597 1450h69q92 0 176 -41.5t140 -109.5v135h881v-219h-604v-380h526v-218h-527v-398h605v-219h-881v128q-53 -67 -137.5 -105.5t-178.5 -38.5h-69q-233 0 -377 139t-144 354v478q0 218 149 356.5t372 138.5zM654 1231h-44q-109 -1 -184 -76.5t-75 -192.5v-493
q0 -121 75.5 -194t183.5 -73h44q101 0 177 66t84 180v534q-8 111 -84.5 180t-176.5 69z" />
    <glyph glyph-name="oe" unicode="&#x153;" horiz-adv-x="1705" 
d="M82 356v311q0 94 38 167.5t102 117t143 66t167 22.5q107 0 194 -34.5t138 -101.5q49 70 139.5 103.5t182.5 33.5q62 0 122 -11.5t119 -38.5t103 -67t71 -103t27 -140v-227h-642v-123q0 -45 20 -79.5t52.5 -52t65 -26t65.5 -8.5q114 0 385 35l27 -169q-225 -45 -400 -45
q-99 0 -194 31.5t-145 102.5q-51 -68 -137.5 -103t-192.5 -35q-123 0 -222.5 40t-163.5 126.5t-64 207.5zM1388 571v124q0 46 -20 80.5t-51.5 52t-64 25.5t-65.5 8q-45 0 -88 -14t-78 -53.5t-35 -98.5v-124h402zM734 359v305q0 88 -55 132t-146 44q-90 0 -145.5 -44
t-55.5 -132v-305q0 -88 56 -132t145 -44q91 0 146 44t55 132z" />
    <glyph glyph-name="Racute" unicode="&#x154;" horiz-adv-x="1339" 
d="M633 1577h-193l165 301h247zM154 1434h637q179 0 286 -112.5t107 -293.5v-148q0 -120 -57.5 -210.5t-150.5 -126.5l249 -543h-318l-192 475h-286v-475h-275v1434zM430 1211v-516h319q69 0 114.5 45t45.5 116v193q0 67 -46 114.5t-114 47.5h-319z" />
    <glyph glyph-name="racute" unicode="&#x155;" horiz-adv-x="675" 
d="M336 1168h-194l165 301h247zM620 825h-100q-48 0 -91.5 -21t-59.5 -48v-756h-256v1024h210l10 -102q46 47 113 78.5t133 31.5h41v-207z" />
    <glyph glyph-name="Rcommaaccent" unicode="&#x156;" horiz-adv-x="1339" 
d="M154 1434h637q179 0 286 -112.5t107 -293.5v-148q0 -120 -57.5 -210.5t-150.5 -126.5l249 -543h-318l-192 475h-286v-475h-275v1434zM430 1211v-516h319q69 0 114.5 45t45.5 116v193q0 67 -46 114.5t-114 47.5h-319zM760 -274l-88 -170h-123l52 104h-52v176h211v-110z
" />
    <glyph glyph-name="rcommaaccent" unicode="&#x157;" horiz-adv-x="675" 
d="M620 825h-100q-48 0 -91.5 -21t-59.5 -48v-756h-256v1024h210l10 -102q46 47 113 78.5t133 31.5h41v-207zM449 -274l-88 -170h-123l52 104h-52v176h211v-110z" />
    <glyph glyph-name="Rcaron" unicode="&#x158;" horiz-adv-x="1339" 
d="M727 1561h-163l-292 317h227l146 -166l146 166h229zM154 1434h637q179 0 286 -112.5t107 -293.5v-148q0 -120 -57.5 -210.5t-150.5 -126.5l249 -543h-318l-192 475h-286v-475h-275v1434zM430 1211v-516h319q69 0 114.5 45t45.5 116v193q0 67 -46 114.5t-114 47.5h-319z
" />
    <glyph glyph-name="rcaron" unicode="&#x159;" horiz-adv-x="675" 
d="M430 1152h-164l-293 316h228l147 -165l146 165h228zM620 825h-100q-48 0 -91.5 -21t-59.5 -48v-756h-256v1024h210l10 -102q46 47 113 78.5t133 31.5h41v-207z" />
    <glyph glyph-name="Sacute" unicode="&#x15a;" horiz-adv-x="1124" 
d="M544 1577h-194l165 301h247zM93 1020v28q0 88 23 157.5t63.5 115t98 75t123 42.5t142.5 13q141 1 233.5 -11.5t176.5 -50.5l-22 -226q-75 36 -159.5 50t-202.5 14q-32 0 -62 -6t-61.5 -20t-51 -44.5t-19.5 -72.5v-26q0 -43 24.5 -77.5t63.5 -53.5l312 -140
q140 -57 198.5 -133.5t58.5 -216.5v-33q-1 -212 -124 -316t-347 -104q-289 0 -456 64l20 225q116 -39 212.5 -54.5t242.5 -14.5q74 0 124 50t50 123v36q0 99 -99 149l-324 142q-130 54 -183.5 121t-54.5 195z" />
    <glyph glyph-name="sacute" unicode="&#x15b;" horiz-adv-x="892" 
d="M433 1168h-194l166 301h246zM388 1039h107q154 -1 275 -45l-22 -166q-112 41 -225 42h-106q-45 0 -75.5 -30t-30.5 -75q0 -32 16.5 -58t44.5 -36l256 -90q108 -38 156 -103.5t48 -173.5q0 -159 -97 -238.5t-272 -79.5h-97q-164 0 -291 51l21 162q148 -47 262 -46h94
q58 0 95.5 39t37.5 95q0 45 -23 82.5t-61 51.5l-265 91q-96 34 -135 85t-39 147q0 144 84.5 219.5t241.5 75.5z" />
    <glyph glyph-name="Scedilla" unicode="&#x15e;" horiz-adv-x="1124" 
d="M93 1020v28q0 88 23 157.5t63.5 115t98 75t123 42.5t142.5 13q141 1 233.5 -11.5t176.5 -50.5l-22 -226q-75 36 -159.5 50t-202.5 14q-32 0 -62 -6t-61.5 -20t-51 -44.5t-19.5 -72.5v-26q0 -43 24.5 -77.5t63.5 -53.5l312 -140q140 -57 198.5 -133.5t58.5 -216.5v-33
q-1 -202 -114 -308t-314 -112h-38v-50h24q59 0 102.5 -45t43.5 -108v-31q0 -72 -47.5 -120t-112.5 -48h-201v131h192q18 0 31 12.5t13 32.5v13q0 20 -13 32.5t-31 12.5h-113v170q-207 8 -349 62l20 225q115 -39 212 -54.5t243 -14.5q74 0 124 50t50 123v36q0 99 -99 149
l-324 142q-130 54 -183.5 121t-54.5 195z" />
    <glyph glyph-name="scedilla" unicode="&#x15f;" horiz-adv-x="892" 
d="M388 1039h107q150 0 275 -45l-22 -166q-112 41 -225 42h-106q-45 0 -75.5 -30t-30.5 -75q0 -32 16.5 -58t44.5 -36l256 -90q107 -38 155 -103t48 -174q0 -150 -87 -231t-241 -87h-47v-52h24q59 0 102 -45t43 -108v-31q0 -72 -47.5 -120t-112.5 -48h-201v131h192
q18 0 31.5 12.5t13.5 32.5v13q0 20 -13.5 32.5t-31.5 12.5h-113v172h-51q-119 9 -217 49l21 162q144 -47 262 -46h94q58 0 95.5 39t37.5 95q0 45 -23 82.5t-61 51.5l-265 91q-96 34 -135 85t-39 147q0 144 84.5 219.5t241.5 75.5z" />
    <glyph glyph-name="Scaron" unicode="&#x160;" horiz-adv-x="1124" 
d="M638 1561h-164l-292 317h227l147 -166l146 166h228zM93 1020v28q0 88 23 157.5t63.5 115t98 75t123 42.5t142.5 13q141 1 233.5 -11.5t176.5 -50.5l-22 -226q-75 36 -159.5 50t-202.5 14q-32 0 -62 -6t-61.5 -20t-51 -44.5t-19.5 -72.5v-26q0 -43 24.5 -77.5t63.5 -53.5
l312 -140q140 -57 198.5 -133.5t58.5 -216.5v-33q-1 -212 -124 -316t-347 -104q-289 0 -456 64l20 225q116 -39 212.5 -54.5t242.5 -14.5q74 0 124 50t50 123v36q0 99 -99 149l-324 142q-130 54 -183.5 121t-54.5 195z" />
    <glyph glyph-name="scaron" unicode="&#x161;" horiz-adv-x="892" 
d="M527 1152h-163l-292 316h227l146 -165l146 165h228zM388 1039h107q150 0 275 -45l-22 -166q-112 41 -225 42h-106q-45 0 -75.5 -30t-30.5 -75q0 -32 16.5 -58t44.5 -36l256 -90q108 -38 156 -103.5t48 -173.5q0 -159 -97 -238.5t-272 -79.5h-97q-164 0 -291 51l22 162
q144 -47 261 -46h94q58 0 95.5 39t37.5 95q0 45 -23 82.5t-61 51.5l-265 91q-96 34 -135 85t-39 147q0 144 84.5 219.5t241.5 75.5z" />
    <glyph glyph-name="Tcedilla" unicode="&#x162;" horiz-adv-x="1253" 
d="M1176 1217h-408v-1217l-110 -18v-48h24q59 0 102.5 -45t43.5 -108v-31q0 -72 -47.5 -120t-112.5 -48h-201v131h192q18 0 31 12.5t13 32.5v13q0 20 -13 32.5t-31 12.5h-113v166l-53 18v1217h-416v217h1099v-217z" />
    <glyph glyph-name="tcedilla" unicode="&#x163;" horiz-adv-x="708" 
d="M413 1024h229v-197h-229v-552q0 -45 28 -70.5t66 -25.5h135v-197h-189q-44 0 -83 12v-41h24q60 0 103 -46t43 -110v-30q0 -72 -47.5 -119t-112.5 -47h-202v131h192q18 0 31.5 12t13.5 33v12q0 20 -13.5 32.5t-31.5 12.5h-113v215q-99 81 -99 200v578h-96v197h96v226h255
v-226z" />
    <glyph glyph-name="Tcaron" unicode="&#x164;" horiz-adv-x="1253" 
d="M710 1561h-164l-292 317h227l146 -166l146 166h229zM1176 1217h-408v-1217h-275v1217h-416v217h1099v-217z" />
    <glyph glyph-name="tcaron" unicode="&#x165;" horiz-adv-x="718" 
d="M824 1372l-89 -168h-122l51 103h-51v177h211v-112zM413 1024h229v-197h-229v-552q0 -45 28 -70.5t66 -25.5h135v-197h-189q-123 0 -209 79t-86 188v578h-96v197h96v226h255v-226z" />
    <glyph glyph-name="Tbar" unicode="&#x166;" horiz-adv-x="1222" 
d="M753 1215v-394h207v-176h-207v-645h-276v645h-213v176h213v394h-415v217h1099v-217h-408z" />
    <glyph glyph-name="tbar" unicode="&#x167;" horiz-adv-x="718" 
d="M423 827v-164h229v-125h-229v-263q0 -45 28 -70.5t66 -25.5h135v-197h-189q-123 0 -209 79t-86 188v289h-96v125h96v164h-96v197h96v226h255v-226h229v-197h-229z" />
    <glyph glyph-name="Utilde" unicode="&#x168;" 
d="M934 1858l105 -111q-105 -111 -202 -123q-72 -6 -144 41q-6 4 -19 13t-19 13.5t-17 11t-18.5 9.5t-18 5.5t-20.5 2.5t-23.5 -5t-25 -11.5t-27 -17.5t-23.5 -17.5t-21 -17.5t-14 -11l-102 112q141 133 238 133q33 0 63 -10.5t46 -20.5t44 -30q48 -35 91 -34q38 3 107 68z
M1244 1434v-975q0 -115 -42.5 -207.5t-115.5 -150t-165 -87.5t-196 -30h-65q-147 0 -262 52.5t-184.5 161.5t-69.5 261v975h275v-975q0 -121 73.5 -189t180.5 -68h44q104 0 178 68.5t74 188.5v975h275z" />
    <glyph glyph-name="utilde" unicode="&#x169;" horiz-adv-x="1087" 
d="M783 1449l105 -111q-105 -111 -202 -123q-74 -6 -144 40q-6 4 -22 15.5t-23.5 16l-20 12t-23.5 10t-23 2.5q-10 0 -24 -5t-25.5 -11.5t-27 -18t-23.5 -18t-21 -17t-14 -11.5l-101 113q140 132 238 132q33 0 63 -10.5t45.5 -20t43.5 -30.5q48 -35 91 -34q38 3 108 69z
M980 0h-211l-10 80q-158 -99 -290 -99q-166 0 -266 98t-100 249v696h242v-673q0 -75 52.5 -123t133.5 -48q77 0 193 58v786h256v-1024z" />
    <glyph glyph-name="Umacron" unicode="&#x16a;" 
d="M1020 1687h-655v156h655v-156zM1244 1434v-975q0 -115 -42.5 -207.5t-115.5 -150t-165 -87.5t-196 -30h-65q-147 0 -262 52.5t-184.5 161.5t-69.5 261v975h275v-975q0 -121 73.5 -189t180.5 -68h44q104 0 178 68.5t74 188.5v975h275z" />
    <glyph glyph-name="umacron" unicode="&#x16b;" horiz-adv-x="1087" 
d="M869 1277h-655v157h655v-157zM980 0h-211l-10 80q-158 -99 -290 -99q-166 0 -266 98t-100 249v696h242v-673q0 -75 52.5 -123t133.5 -48q77 0 193 58v786h256v-1024z" />
    <glyph glyph-name="Uring" unicode="&#x16e;" 
d="M690 1947q88 0 150.5 -62.5t62.5 -145.5q0 -91 -61.5 -152.5t-151.5 -61.5q-88 0 -148 61.5t-60 152.5q0 83 60.5 145.5t147.5 62.5zM690 1835q-40 0 -67.5 -28.5t-27.5 -67.5q0 -41 27.5 -69.5t67.5 -28.5t68.5 29t28.5 69q0 39 -28.5 67.5t-68.5 28.5zM1244 1434v-975
q0 -115 -42.5 -207.5t-115.5 -150t-165 -87.5t-196 -30h-65q-147 0 -262 52.5t-184.5 161.5t-69.5 261v975h275v-975q0 -121 73.5 -189t180.5 -68h44q104 0 178 68.5t74 188.5v975h275z" />
    <glyph glyph-name="uring" unicode="&#x16f;" horiz-adv-x="1087" 
d="M539 1537q88 0 150.5 -62.5t62.5 -145.5q0 -90 -61.5 -151.5t-151.5 -61.5q-89 0 -148.5 61t-59.5 152q0 83 60.5 145.5t147.5 62.5zM539 1425q-40 0 -67.5 -28.5t-27.5 -67.5q0 -41 27 -69t68 -28q40 0 68 28t28 69q0 39 -28.5 67.5t-67.5 28.5zM980 0h-211l-10 80
q-158 -99 -290 -99q-166 0 -266 98t-100 249v696h242v-673q0 -75 52.5 -123t133.5 -48q77 0 193 58v786h256v-1024z" />
    <glyph glyph-name="Uhungarumlaut" unicode="&#x170;" 
d="M512 1573h-193l165 303h247zM874 1573h-194l165 303h247zM1244 1434v-975q0 -115 -42.5 -207.5t-115.5 -150t-165 -87.5t-196 -30h-65q-147 0 -262 52.5t-184.5 161.5t-69.5 261v975h275v-975q0 -121 73.5 -189t180.5 -68h44q104 0 178 68.5t74 188.5v975h275z" />
    <glyph glyph-name="uhungarumlaut" unicode="&#x171;" horiz-adv-x="1087" 
d="M361 1164h-193l165 302h246zM723 1164h-194l166 302h245zM980 0h-211l-10 80q-158 -99 -290 -99q-166 0 -266 98t-100 249v696h242v-673q0 -75 52.5 -123t133.5 -48q77 0 193 58v786h256v-1024z" />
    <glyph glyph-name="Uogonek" unicode="&#x172;" horiz-adv-x="1388" 
d="M1244 1434v-975q0 -158 -76.5 -269t-204.5 -164q-37 -20 -38 -65v-47q0 -30 20 -51t48 -21h207v-133h-244q-78 0 -133.5 50.5t-55.5 134.5v24q0 28 10 70q-24 -4 -68 -4h-49q-147 0 -262 52.5t-184.5 161.5t-69.5 261v975h275v-975q0 -121 73.5 -189t180.5 -68h47
q103 0 176 69t73 188v975h275z" />
    <glyph glyph-name="uogonek" unicode="&#x173;" horiz-adv-x="1093" 
d="M985 -100h-174q-28 0 -47.5 -21t-19.5 -53v-19q0 -30 19.5 -50.5t47.5 -20.5h208v-131h-245q-78 0 -133.5 49t-55.5 133v51q0 81 49.5 129.5t123.5 53.5h8l-2 59q-159 -99 -298 -99q-159 0 -258.5 99t-99.5 248v696h242v-673q0 -73 50.5 -122t126.5 -49q82 0 202 58v786
h256v-1124z" />
    <glyph glyph-name="Wcircumflex" unicode="&#x174;" horiz-adv-x="1875" 
d="M1312 1561h-228l-146 166l-146 -167h-228l291 318h164zM1497 0h-342l-216 1014l-216 -1014h-342l-309 1434h288l206 -1107l230 1107h285l232 -1107l206 1107h287z" />
    <glyph glyph-name="wcircumflex" unicode="&#x175;" horiz-adv-x="1470" 
d="M1108 1152h-227l-146 165l-146 -166h-229l293 317h163zM1162 0h-259l-168 622l-168 -622h-260l-249 1024h261l152 -766l175 766h177l176 -766l151 766h262z" />
    <glyph glyph-name="Ycircumflex" unicode="&#x176;" horiz-adv-x="1325" 
d="M1037 1561h-227l-146 166l-147 -167h-228l291 318h164zM800 588v-588h-275v590l-457 844h295l299 -592l301 592h295z" />
    <glyph glyph-name="ycircumflex" unicode="&#x177;" horiz-adv-x="1093" 
d="M919 1152h-227l-146 165l-147 -166h-228l292 317h164zM976 1024v-1049q0 -79 -26 -142.5t-67.5 -103.5t-97.5 -66.5t-113 -37.5t-117 -12q-163 0 -410 51l30 176q207 -41 327 -41q31 0 64 8t69.5 26t60 55.5t23.5 88.5v104q-155 -89 -286 -91q-91 0 -166 39t-122 119.5
t-47 189.5v686h242v-673q0 -73 50.5 -122t126.5 -49q79 0 202 58v786h257z" />
    <glyph glyph-name="Ydieresis" unicode="&#x178;" horiz-adv-x="1325" 
d="M588 1635h-185v188h185v-188zM922 1635h-185v188h185v-188zM800 588v-588h-275v590l-457 844h295l299 -592l301 592h295z" />
    <glyph glyph-name="Zacute" unicode="&#x179;" horiz-adv-x="1232" 
d="M619 1577h-194l166 301h247zM1135 1325l-686 -1106h696v-219h-1058v109l686 1106h-665v219h1027v-109z" />
    <glyph glyph-name="zacute" unicode="&#x17a;" horiz-adv-x="923" 
d="M450 1167h-193l165 301h247zM841 889l-486 -701h496v-188h-789v137l487 699h-467v189h759v-136z" />
    <glyph glyph-name="Zdotaccent" unicode="&#x17b;" horiz-adv-x="1232" 
d="M721 1635h-184v188h184v-188zM1135 1325l-686 -1106h696v-219h-1058v109l686 1106h-665v219h1027v-109z" />
    <glyph glyph-name="zdotaccent" unicode="&#x17c;" horiz-adv-x="923" 
d="M552 1226h-184v187h184v-187zM841 889l-486 -701h496v-188h-789v137l487 699h-467v189h759v-136z" />
    <glyph glyph-name="Zcaron" unicode="&#x17d;" horiz-adv-x="1232" 
d="M713 1561h-163l-292 317h227l146 -166l146 166h228zM1135 1325l-686 -1106h696v-219h-1058v109l686 1106h-665v219h1027v-109z" />
    <glyph glyph-name="zcaron" unicode="&#x17e;" horiz-adv-x="923" 
d="M545 1152h-164l-292 316h227l146 -165l146 165h229zM841 889l-486 -701h496v-188h-789v137l487 699h-467v189h759v-136z" />
    <glyph glyph-name="florin" unicode="&#x192;" horiz-adv-x="718" 
d="M664 1243h-135q-38 0 -65.5 -25.5t-27.5 -70.5v-320h228v-197h-228v-716q0 -139 -91.5 -217t-257.5 -78v199q38 0 65.5 25.5t27.5 70.5v716h-96v197h96v347q0 109 86 188.5t209 79.5h189v-199z" />
    <glyph glyph-name="Acaron" unicode="&#x1cd;" horiz-adv-x="1404" 
d="M787 1561h-164l-292 317h228l146 -166l146 166h228zM1323 0h-288l-103 341h-460l-101 -341h-289l448 1434h345zM512 560h381l-190 647z" />
    <glyph glyph-name="acaron" unicode="&#x1ce;" horiz-adv-x="1040" 
d="M605 1152h-164l-292 316h228l146 -165l146 165h228zM178 812l-29 185q208 44 352 44q65 0 124 -10.5t117 -37t100.5 -66.5t68.5 -104t26 -144v-679h-211l-12 93q-73 -43 -162.5 -75t-169.5 -32q-139 0 -229 81t-91 218v34q1 69 25.5 121.5t63 84t92.5 51.5t107 27t114 7
q100 0 217 -23v82q0 50 -21.5 86.5t-56.5 55t-70 27t-70 8.5q-122 0 -285 -34zM681 224v247q-70 14 -170 14q-56 0 -99.5 -11t-76.5 -45t-33 -89v-55q0 -63 42 -101.5t106 -39.5q98 0 231 80z" />
    <glyph glyph-name="Icaron" unicode="&#x1cf;" horiz-adv-x="583" 
d="M374 1561h-164l-292 317h227l146 -166l146 166h229zM429 0h-275v1434h275v-1434z" />
    <glyph glyph-name="icaron" unicode="&#x1d0;" horiz-adv-x="436" 
d="M303 1152h-163l-292 316h227l146 -165l146 165h228zM347 0h-256v1024h256v-1024z" />
    <glyph glyph-name="Ocaron" unicode="&#x1d1;" horiz-adv-x="1341" 
d="M753 1561h-164l-292 317h228l146 -166l146 166h228zM634 1450h69q103 0 198.5 -36.5t168 -100t115.5 -157t43 -201.5v-478q0 -214 -150.5 -353.5t-374.5 -139.5h-69q-233 0 -377 139t-144 354v478q0 218 149 356.5t372 138.5zM692 1231h-45q-109 -1 -184 -76.5
t-75 -192.5v-493q0 -121 75.5 -194t183.5 -73h45q107 0 184 72.5t77 194.5v493q0 117 -78 193t-183 76z" />
    <glyph glyph-name="ocaron" unicode="&#x1d2;" horiz-adv-x="1067" 
d="M612 1152h-163l-292 316h227l146 -165l146 165h229zM82 356v311q0 94 38 167.5t102 117t143 66t167 22.5q93 0 173 -22t143 -66t99.5 -117.5t36.5 -167.5v-311q0 -94 -36.5 -167t-100 -117.5t-143.5 -67t-172 -22.5q-123 0 -222.5 40t-163.5 126.5t-64 207.5zM735 359
v305q0 88 -56 132.5t-147 44.5q-90 0 -145 -44.5t-55 -132.5v-305q0 -88 55.5 -132.5t144.5 -44.5q91 0 147 44.5t56 132.5z" />
    <glyph glyph-name="Ucaron" unicode="&#x1d3;" 
d="M775 1561h-164l-292 317h227l146 -166l146 166h229zM1244 1434v-975q0 -115 -42.5 -207.5t-115.5 -150t-165 -87.5t-196 -30h-65q-147 0 -262 52.5t-184.5 161.5t-69.5 261v975h275v-975q0 -121 73.5 -189t180.5 -68h44q104 0 178 68.5t74 188.5v975h275z" />
    <glyph glyph-name="ucaron" unicode="&#x1d4;" horiz-adv-x="1087" 
d="M624 1152h-164l-292 316h227l146 -165l147 165h228zM980 0h-211l-10 80q-158 -99 -290 -99q-166 0 -266 98t-100 249v696h242v-673q0 -75 52.5 -123t133.5 -48q77 0 193 58v786h256v-1024z" />
    <glyph glyph-name="Udieresismacron" unicode="&#x1d5;" horiz-adv-x="1388" 
d="M1020 1871h-655v156h655v-156zM616 1590h-184v187h184v-187zM951 1590h-185v187h185v-187zM1244 1434v-975q0 -115 -42.5 -207.5t-115.5 -150t-165 -87.5t-196 -30h-65q-147 0 -262 52.5t-184.5 161.5t-69.5 261v975h275v-975q0 -121 73.5 -189t180.5 -68h44
q104 0 178 68.5t74 188.5v975h275z" />
    <glyph glyph-name="udieresismacron" unicode="&#x1d6;" horiz-adv-x="1093" 
d="M873 1514h-654v156h654v-156zM470 1193h-185v188h185v-188zM804 1193h-184v188h184v-188zM985 0h-211l-10 80q-159 -99 -298 -99q-159 0 -258.5 99t-99.5 248v696h242v-673q0 -73 50.5 -122t126.5 -49q82 0 202 58v786h256v-1024z" />
    <glyph glyph-name="Udieresisacute" unicode="&#x1d7;" horiz-adv-x="1388" 
d="M680 1871h-193l165 301h247zM616 1590h-184v187h184v-187zM951 1590h-185v187h185v-187zM1244 1434v-975q0 -115 -42.5 -207.5t-115.5 -150t-165 -87.5t-196 -30h-65q-147 0 -262 52.5t-184.5 161.5t-69.5 261v975h275v-975q0 -121 73.5 -189t180.5 -68h44
q104 0 178 68.5t74 188.5v975h275z" />
    <glyph glyph-name="udieresisacute" unicode="&#x1d8;" horiz-adv-x="1093" 
d="M534 1484h-194l166 301h247zM470 1193h-185v188h185v-188zM804 1193h-184v188h184v-188zM985 0h-211l-10 80q-159 -99 -298 -99q-159 0 -258.5 99t-99.5 248v696h242v-673q0 -73 50.5 -122t126.5 -49q82 0 202 58v786h256v-1024z" />
    <glyph glyph-name="Udieresiscaron" unicode="&#x1d9;" 
d="M775 1871h-164l-292 316h227l146 -165l146 165h229zM616 1590h-184v187h184v-187zM951 1590h-185v187h185v-187zM1244 1434v-975q0 -115 -42.5 -207.5t-115.5 -150t-165 -87.5t-196 -30h-65q-147 0 -262 52.5t-184.5 161.5t-69.5 261v975h275v-975q0 -121 73.5 -189
t180.5 -68h44q104 0 178 68.5t74 188.5v975h275z" />
    <glyph glyph-name="udieresiscaron" unicode="&#x1da;" horiz-adv-x="1093" 
d="M628 1484h-163l-292 317h227l146 -166l146 166h228zM470 1193h-185v188h185v-188zM804 1193h-184v188h184v-188zM985 0h-211l-10 80q-159 -99 -298 -99q-159 0 -258.5 99t-99.5 248v696h242v-673q0 -73 50.5 -122t126.5 -49q82 0 202 58v786h256v-1024z" />
    <glyph glyph-name="Udieresisgrave" unicode="&#x1db;" horiz-adv-x="1388" 
d="M878 1871h-194l-218 302h246zM616 1590h-184v187h184v-187zM951 1590h-185v187h185v-187zM1244 1434v-975q0 -115 -42.5 -207.5t-115.5 -150t-165 -87.5t-196 -30h-65q-147 0 -262 52.5t-184.5 161.5t-69.5 261v975h275v-975q0 -121 73.5 -189t180.5 -68h44
q104 0 178 68.5t74 188.5v975h275z" />
    <glyph glyph-name="udieresisgrave" unicode="&#x1dc;" horiz-adv-x="1093" 
d="M731 1484h-193l-219 302h247zM470 1193h-185v188h185v-188zM804 1193h-185v188h185v-188zM985 0h-211l-10 80q-159 -99 -298 -99q-159 0 -258.5 99t-99.5 248v696h242v-673q0 -73 50.5 -122t126.5 -49q82 0 202 58v786h256v-1024z" />
    <glyph glyph-name="Adieresismacron" unicode="&#x1de;" horiz-adv-x="1404" 
d="M1032 1880h-654v156h654v-156zM629 1590h-185v187h185v-187zM963 1590h-184v187h184v-187zM1324 0h-289l-103 340h-460l-101 -340h-289l449 1434h344zM512 559h381l-191 648z" />
    <glyph glyph-name="adieresismacron" unicode="&#x1df;" horiz-adv-x="1040" 
d="M840 1502h-655v156h655v-156zM436 1193h-184v188h184v-188zM771 1193h-185v188h185v-188zM178 812l-29 185q208 44 352 44q65 0 124 -10.5t117 -37t100.5 -66.5t68.5 -104t26 -144v-679h-211l-12 93q-73 -43 -162.5 -75t-169.5 -32q-139 0 -229 81t-91 218v34
q1 69 25.5 121.5t63 84t92.5 51.5t107 27t114 7q100 0 217 -23v82q0 50 -21.5 86.5t-56.5 55t-70 27t-70 8.5q-122 0 -285 -34zM681 224v247q-70 14 -170 14q-56 0 -99.5 -11t-76.5 -45t-33 -89v-55q0 -63 42 -101.5t106 -39.5q98 0 231 80z" />
    <glyph glyph-name="Gcaron" unicode="&#x1e6;" horiz-adv-x="1292" 
d="M754 1561h-163l-292 317h227l146 -166l146 166h229zM633 1450h55q140 -1 237.5 -18t194.5 -55l-34 -209q-102 36 -197.5 49.5t-241.5 13.5q-119 0 -189 -72.5t-70 -196.5v-493q0 -120 66.5 -193t186.5 -74h40q141 0 226 43v365h-235v197h472v-710q-111 -61 -212 -87
t-238 -26h-61q-244 1 -382 133t-138 360v478q0 236 142 365.5t378 129.5z" />
    <glyph glyph-name="gcaron" unicode="&#x1e7;" horiz-adv-x="1073" 
d="M613 1152h-163l-292 316h227l146 -165l146 165h229zM82 345v354q0 148 103 244t268 96q61 2 141.5 -12.5t144.5 -40.5l10 37h210v-1039q0 -98 -38 -171t-101.5 -113t-133.5 -59t-147 -20q-174 0 -410 51l29 176q207 -41 328 -41q23 0 49 4.5t57 17t55 31.5t40.5 51.5
t16.5 74.5v96q-148 -84 -277 -84q-149 0 -247 91t-98 256zM705 239v583q-43 11 -106.5 16t-96.5 3q-76 -5 -126.5 -53t-50.5 -118v-313q0 -76 52 -123.5t133 -47.5q61 0 195 53z" />
    <glyph glyph-name="Oslashacute" unicode="&#x1fe;" horiz-adv-x="1382" 
d="M637 1577h-194l166 301h246zM1151 1536l-89 -200q87 -67 136.5 -165.5t49.5 -215.5v-478q0 -214 -150 -353.5t-374 -139.5h-69q-97 0 -181 26l-49 -112h-193l85 191q-88 67 -135.5 167.5t-47.5 220.5v478q0 218 149 356.5t372 138.5h69q96 0 183 -30l52 116h192zM409 962
v-493q0 -63 24 -119l381 860q-48 21 -102 21h-44q-109 -1 -184 -76.5t-75 -192.5zM974 469v493q0 63 -25 118l-381 -859q49 -19 100 -19h44q107 0 184.5 73t77.5 194z" />
    <glyph glyph-name="oslashacute" unicode="&#x1ff;" horiz-adv-x="1087" 
d="M495 1167h-194l166 301h247zM873 1127l-65 -145q186 -97 186 -315v-311q0 -94 -36.5 -167t-100 -117.5t-143.5 -67t-172 -22.5q-91 0 -169 22l-47 -106h-112l65 145q-186 101 -186 313v311q0 94 37.5 167.5t102 117t143 66t166.5 22.5q92 0 171 -21l49 108h111zM342 664
v-305q0 -63 31 -105l256 574q-42 13 -87 13q-90 0 -145 -44.5t-55 -132.5zM745 359v305q0 64 -31 106l-256 -575q42 -13 84 -13q91 0 147 44.5t56 132.5z" />
    <glyph glyph-name="Scommaaccent" unicode="&#x218;" horiz-adv-x="1124" 
d="M93 1020v28q0 88 23 157.5t63.5 115t98 75t123 42.5t142.5 13q141 1 233.5 -11.5t176.5 -50.5l-22 -226q-75 36 -159.5 50t-202.5 14q-32 0 -62 -6t-61.5 -20t-51 -44.5t-19.5 -72.5v-26q0 -43 24.5 -77.5t63.5 -53.5l312 -140q140 -57 198.5 -133.5t58.5 -216.5v-33
q-1 -212 -124 -316t-347 -104q-289 0 -456 64l20 225q116 -39 212.5 -54.5t242.5 -14.5q74 0 124 50t50 123v36q0 99 -99 149l-324 142q-130 54 -183.5 121t-54.5 195zM661 -274l-88 -170h-123l52 104h-52v176h211v-110z" />
    <glyph glyph-name="scommaaccent" unicode="&#x219;" horiz-adv-x="892" 
d="M388 1039h107q150 0 275 -45l-22 -166q-112 41 -225 42h-106q-45 0 -75.5 -30t-30.5 -75q0 -32 16.5 -58t44.5 -36l256 -90q108 -38 156 -103.5t48 -173.5q0 -159 -97 -238.5t-272 -79.5h-97q-164 0 -291 51l21 162q144 -47 262 -46h94q58 0 95.5 39t37.5 95
q0 45 -23 82.5t-61 51.5l-265 91q-96 34 -135 85t-39 147q0 144 84.5 219.5t241.5 75.5zM551 -274l-89 -170h-123l52 104h-52v176h212v-110z" />
    <glyph glyph-name="uni021A" unicode="&#x21a;" horiz-adv-x="1253" 
d="M1176 1217h-408v-1217h-275v1217h-416v217h1099v-217zM737 -274l-89 -170h-123l52 104h-52v176h212v-110z" />
    <glyph glyph-name="uni021B" unicode="&#x21b;" horiz-adv-x="708" 
d="M413 1024h229v-197h-229v-552q0 -45 28 -70.5t66 -25.5h135v-197h-189q-123 0 -209 79t-86 188v578h-96v197h96v226h255v-226zM455 -274l-88 -170h-123l52 104h-52v176h211v-110z" />
    <glyph glyph-name="circumflex" unicode="&#x2c6;" horiz-adv-x="899" 
d="M824 1152h-228l-146 165l-146 -167h-228l291 318h164z" />
    <glyph glyph-name="caron" unicode="&#x2c7;" horiz-adv-x="897" 
d="M531 1152h-164l-292 316h227l146 -165l146 165h229z" />
    <glyph glyph-name="breve" unicode="&#x2d8;" horiz-adv-x="757" 
d="M509 1473h169q-6 -116 -68.5 -195.5t-167.5 -79.5h-131q-104 0 -166.5 79.5t-65.5 195.5h167q3 -56 29 -86t68 -30h71q39 0 64 30.5t31 85.5z" />
    <glyph glyph-name="dotaccent" unicode="&#x2d9;" horiz-adv-x="348" 
d="M267 1226h-185v187h185v-187z" />
    <glyph glyph-name="ring" unicode="&#x2da;" horiz-adv-x="579" 
d="M288 1537q88 0 150 -62.5t62 -145.5q0 -91 -61 -152t-151 -61q-89 0 -149 61t-60 152q0 83 61 145.5t148 62.5zM288 1425q-40 0 -68 -28.5t-28 -67.5q0 -41 28 -69t68 -28t68 28.5t28 68.5q0 39 -28.5 67.5t-67.5 28.5z" />
    <glyph glyph-name="ogonek" unicode="&#x2db;" horiz-adv-x="587" 
d="M372 -123h-66q-28 0 -48 -21t-20 -51v-18q0 -30 20 -51t48 -21h207v-133h-244q-78 0 -133.5 50.5t-55.5 134.5v51q0 85 55 133.5t134 48.5h103v-123z" />
    <glyph glyph-name="tilde" unicode="&#x2dc;" horiz-adv-x="845" 
d="M664 1449l105 -111q-105 -111 -202 -123q-74 -6 -144 40q-6 4 -22 15.5t-23.5 16l-20 12t-23.5 10t-23 2.5q-10 0 -24 -5t-25.5 -11.5t-27 -18t-23.5 -18t-21 -17t-14 -11.5l-101 113q140 132 238 132q33 0 63 -10.5t46 -20.5t44 -30q48 -35 91 -34q37 3 107 69z" />
    <glyph glyph-name="hungarumlaut" unicode="&#x2dd;" horiz-adv-x="927" 
d="M272 1164h-194l165 302h247zM633 1164h-194l166 302h247z" />
    <glyph glyph-name="dotbelowcomb" unicode="&#x323;" horiz-adv-x="0" 
d="M293 -313h-232v180h232v-180z" />
    <glyph glyph-name="commaaccentcomb" unicode="&#x326;" horiz-adv-x="0" 
d="M273 -274l-89 -170h-123l52 104h-52v176h212v-110z" />
    <glyph glyph-name="circumflexbelowcomb" unicode="&#x32d;" horiz-adv-x="0" 
d="M809 -426h-228l-146 166l-147 -166h-227l292 317h164z" />
    <glyph glyph-name="macronbelowcomb" unicode="&#x331;" horiz-adv-x="0" 
d="M736 -313h-675v137h675v-137z" />
    <glyph glyph-name="Delta" unicode="&#x394;" horiz-adv-x="1705" 
 />
    <glyph glyph-name="Omega" unicode="&#x3a9;" horiz-adv-x="1705" 
 />
    <glyph glyph-name="mu" unicode="&#x3bc;" horiz-adv-x="1705" 
 />
    <glyph glyph-name="pi" unicode="&#x3c0;" horiz-adv-x="241" 
 />
    <glyph glyph-name="uni0401" unicode="&#x401;" horiz-adv-x="1116" 
d="M439 1635v188h283v-188h-283zM421 1215v-380h527v-218h-527v-398h604v-219h-881v1434h881v-219h-604z" />
    <glyph glyph-name="uni0410" unicode="&#x410;" horiz-adv-x="1404" 
d="M1323 0h-288l-103 341h-460l-101 -341h-289l448 1434h345zM512 560h381l-190 647z" />
    <glyph glyph-name="uni0411" unicode="&#x411;" horiz-adv-x="1304" 
d="M1104 1225h-665v-334h361q182 0 287.5 -106t105.5 -289v-112q-3 -174 -109 -279t-284 -105h-635v1434h939v-209zM439 668v-445h319q68 0 114 47.5t46 115.5v120q0 71 -45.5 116.5t-114.5 45.5h-319z" />
    <glyph glyph-name="uni0412" unicode="&#x412;" horiz-adv-x="1308" 
d="M154 1434h695q141 0 227 -90.5t86 -230.5v-71q0 -103 -47 -179.5t-132 -115.5q100 -30 156.5 -112.5t56.5 -203.5v-97q0 -146 -85.5 -240t-226.5 -94h-730v1434zM429 1226v-404h312q69 0 114.5 44.5t45.5 114.5v83q0 67 -46 114.5t-114 47.5h-312zM429 648v-429h341
q69 0 114 45.5t45 116.5v107q0 70 -45 115t-114 45h-341z" />
    <glyph glyph-name="uni0413" unicode="&#x413;" horiz-adv-x="1181" 
d="M1104 1225h-665v-1225h-274v1434h939v-209z" />
    <glyph glyph-name="uni0414" unicode="&#x414;" horiz-adv-x="1529" 
d="M1330 222h128v-433h-274v212h-857v-212h-273v433h75q80 0 131 53t51 143v1016h1019v-1212zM587 1213v-851q-3 -47 -28.5 -84.5t-65.5 -55.5h564v991h-470z" />
    <glyph glyph-name="uni0415" unicode="&#x415;" horiz-adv-x="1116" 
d="M1026 1215h-605v-379h528v-219h-528v-398h605v-219h-882v1434h882v-219z" />
    <glyph glyph-name="uni0416" unicode="&#x416;" horiz-adv-x="2052" 
d="M1321 714l674 -714h-373l-460 553v-553h-271v553l-460 -553h-373l674 714l-655 721h362l452 -557v557h271v-557l452 557h362z" />
    <glyph glyph-name="uni0417" unicode="&#x417;" horiz-adv-x="1265" 
d="M462 1432h303q152 0 257.5 -103t106.5 -245v-90q0 -90 -47 -153.5t-99 -86.5q58 -19 113.5 -89.5t55.5 -170.5v-145q0 -147 -105 -248t-259 -101h-335q-155 0 -259.5 103t-104.5 252h241q0 -66 45.5 -112.5t111.5 -46.5h268q68 0 112.5 45t44.5 114v143q0 69 -44.5 113.5
t-112.5 44.5h-344v179h331q68 0 112.5 44.5t44.5 113.5v81q0 66 -45.5 112.5t-111.5 46.5h-256q-66 0 -111.5 -46.5t-45.5 -112.5h-231q2 150 106 254t258 104z" />
    <glyph glyph-name="uni0418" unicode="&#x418;" horiz-adv-x="1413" 
d="M1268 0h-271v965l-584 -965h-269v1434h272v-971l584 971h268v-1434z" />
    <glyph glyph-name="uni0419" unicode="&#x419;" horiz-adv-x="1413" 
d="M790 1562h-164l-292 317h228l146 -166l146 166h228zM1268 0h-271v965l-584 -965h-269v1434h272v-971l584 971h268v-1434z" />
    <glyph glyph-name="uni041A" unicode="&#x41a;" horiz-adv-x="1341" 
d="M631 714l644 -714h-333l-527 574v-574h-271v1435h271v-577l519 577h321z" />
    <glyph glyph-name="uni041B" unicode="&#x41b;" horiz-adv-x="1437" 
d="M1294 0h-275v1213h-470v-859q-4 -158 -103 -259t-241 -101h-151v256h59q77 0 118.5 52t41.5 145v987h1021v-1434z" />
    <glyph glyph-name="uni041C" unicode="&#x41c;" horiz-adv-x="1673" 
d="M1539 0h-271l-32 934l-320 -602h-157l-321 602l-34 -934h-270l52 1434h272l378 -751l375 751h272z" />
    <glyph glyph-name="uni041D" unicode="&#x41d;" horiz-adv-x="1406" 
d="M1252 0h-276v610h-547v-610h-275v1434h275v-606h547v606h276v-1434z" />
    <glyph glyph-name="uni041E" unicode="&#x41e;" horiz-adv-x="1341" 
d="M634 1450h69q103 0 198.5 -36.5t168 -100t115.5 -157t43 -201.5v-478q0 -214 -150.5 -353.5t-374.5 -139.5h-69q-233 0 -377 139t-144 354v478q0 218 149 356.5t372 138.5zM692 1231h-45q-109 -1 -184 -76.5t-75 -192.5v-493q0 -121 75.5 -194t183.5 -73h45
q107 0 184 72.5t77 194.5v493q0 117 -78 193t-183 76z" />
    <glyph glyph-name="uni041F" unicode="&#x41f;" horiz-adv-x="1388" 
d="M1234 0h-274v1213h-531v-1213h-275v1434h1080v-1434z" />
    <glyph glyph-name="uni0420" unicode="&#x420;" horiz-adv-x="1296" 
d="M165 1434h635q179 0 286 -112.5t107 -293.5v-150q0 -185 -106 -295t-287 -110h-361v-473h-274v1434zM439 1211v-515h319q69 0 114.5 45.5t45.5 116.5v191q0 67 -46 114.5t-114 47.5h-319z" />
    <glyph glyph-name="uni0421" unicode="&#x421;" horiz-adv-x="1081" 
d="M632 1451h55q141 0 307 -42l-16 -203q-163 25 -290 26h-42q-109 0 -183.5 -73.5t-74.5 -194.5v-493q0 -121 74.5 -194.5t183.5 -73.5h42q127 1 290 26l16 -203q-166 -42 -307 -42h-55q-143 0 -260 57.5t-188 171.5t-71 265v479q0 151 71 265t188 171.5t260 57.5z" />
    <glyph glyph-name="uni0422" unicode="&#x422;" horiz-adv-x="1253" 
d="M1176 1217h-408v-1217h-275v1217h-416v217h1099v-217z" />
    <glyph glyph-name="uni0423" unicode="&#x423;" horiz-adv-x="1376" 
d="M826 644v-644h-276v646l-482 788h290l330 -582l331 582h290z" />
    <glyph glyph-name="uni0424" unicode="&#x424;" horiz-adv-x="1816" 
d="M1045 1288h275q180 0 286.5 -112t106.5 -293v-196q0 -185 -106 -295t-287 -110h-275v-281h-274v281h-275q-181 0 -287 110t-106 295v196q0 181 106.5 293t286.5 112h275v147h274v-147zM771 1065h-233q-68 0 -114 -47.5t-46 -114.5v-236q0 -71 45.5 -116.5t114.5 -45.5
h233v560zM1045 1065v-560h234q69 0 114.5 45.5t45.5 116.5v236q0 67 -46 114.5t-114 47.5h-234z" />
    <glyph glyph-name="uni0425" unicode="&#x425;" horiz-adv-x="1288" 
d="M808 717l421 -717h-290l-296 530l-295 -530h-290l423 717l-422 717h290l295 -532l296 532h290z" />
    <glyph glyph-name="uni0426" unicode="&#x426;" horiz-adv-x="1464" 
d="M1234 222h159v-419h-274v199h-954v1435h274v-1215h521v1215h274v-1215z" />
    <glyph glyph-name="uni0427" unicode="&#x427;" horiz-adv-x="1331" 
d="M1166 0h-273v561q-22 -28 -61 -36.5t-103 -8.5h-191q-103 0 -187 33t-137.5 89.5t-82 130.5t-28.5 158v507h274v-525q0 -76 41.5 -123t107.5 -47h214q76 0 114 28.5t38 110.5v556h274v-1434z" />
    <glyph glyph-name="uni0428" unicode="&#x428;" horiz-adv-x="2041" 
d="M1886 1h-1721v1435h273v-1215h450v1215h274v-1215h450v1215h274v-1435z" />
    <glyph glyph-name="uni0429" unicode="&#x429;" horiz-adv-x="2127" 
d="M1887 221h169v-418h-273v198h-1618v1435h274v-1215h450v1215h274v-1215h450v1215h274v-1215z" />
    <glyph glyph-name="uni042A" unicode="&#x42a;" 
d="M536 962h360q181 0 287.5 -110.5t106.5 -295.5v-150q0 -181 -107 -293.5t-287 -112.5h-635v1217h-207v217h482v-472zM536 738v-515h319q68 0 114 47.5t46 115.5v191q0 71 -45.5 116.5t-114.5 44.5h-319z" />
    <glyph glyph-name="uni042B" unicode="&#x42b;" horiz-adv-x="1751" 
d="M439 962h361q181 0 287 -110.5t106 -295.5v-150q0 -181 -106.5 -293.5t-286.5 -112.5h-635v1435h274v-473zM1596 0h-274v1434h274v-1434zM439 738v-515h319q68 0 114.5 47.5t46.5 115.5v191q0 71 -46 116.5t-115 44.5h-319z" />
    <glyph glyph-name="uni042C" unicode="&#x42c;" horiz-adv-x="1296" 
d="M439 962h361q181 0 287 -110.5t106 -295.5v-150q0 -181 -106.5 -293.5t-286.5 -112.5h-635v1435h274v-473zM439 738v-515h319q68 0 114.5 47.5t46.5 115.5v191q0 71 -46 116.5t-115 44.5h-319z" />
    <glyph glyph-name="uni042D" unicode="&#x42d;" horiz-adv-x="1081" 
d="M394 1451h55q107 0 201 -34t165 -96t112.5 -156t41.5 -208v-479q0 -114 -41.5 -208t-112.5 -156t-165 -96t-201 -34h-55q-137 0 -307 41l17 203q143 -23 289 -25h43q109 0 183.5 73t74.5 194v149h-493v196h493v148q0 121 -74.5 194t-183.5 73h-44q-138 -2 -288 -26
l-17 203q171 41 307 44z" />
    <glyph glyph-name="uni042E" unicode="&#x42e;" horiz-adv-x="1894" 
d="M1188 1451h68q103 0 199 -36.5t168 -100t115.5 -157t43.5 -201.5v-478q0 -214 -150.5 -354t-374.5 -140h-69q-227 0 -370 133.5t-151 340.5v149h-228v-607h-274v1434h274v-607h228v142q5 212 153.5 347t367.5 135zM1243 1232h-44q-104 -1 -181.5 -78t-77.5 -191v-493
q0 -121 75.5 -194t183.5 -73h44q107 0 184.5 73t77.5 194v493q0 117 -78.5 193t-183.5 76z" />
    <glyph glyph-name="uni042F" unicode="&#x42f;" horiz-adv-x="1339" 
d="M1184 0h-274v475h-286l-193 -475h-318l250 543q-93 36 -150.5 126.5t-57.5 210.5v148q0 181 107 293.5t286 112.5h636v-1434zM909 1211h-320q-68 0 -114 -47.5t-46 -114.5v-193q0 -71 45.5 -116t114.5 -45h320v516z" />
    <glyph glyph-name="uni0430" unicode="&#x430;" horiz-adv-x="1040" 
d="M178 812l-29 185q208 44 352 44q65 0 124 -10.5t117 -37t100.5 -66.5t68.5 -104t26 -144v-679h-211l-12 93q-73 -43 -162.5 -75t-169.5 -32q-139 0 -229 81t-91 218v34q1 69 25.5 121.5t63 84t92.5 51.5t107 27t114 7q100 0 217 -23v82q0 50 -21.5 86.5t-56.5 55t-70 27
t-70 8.5q-122 0 -285 -34zM681 224v247q-70 14 -170 14q-41 0 -75 -6.5t-66 -21.5t-50 -44.5t-18 -71.5v-56q0 -63 42 -101.5t106 -39.5q98 0 231 80z" />
    <glyph glyph-name="uni0431" unicode="&#x431;" horiz-adv-x="1112" 
d="M470 1448h165q146 0 325 -39v-220q-198 50 -325 50h-110q-70 0 -115 -48t-47 -121v-200q138 23 165 23h157q139 -2 234.5 -83.5t95.5 -217.5v-257q0 -109 -55.5 -189.5t-143.5 -120t-194 -39.5h-112q-108 0 -199 40t-148 119t-60 183v779q0 146 105.5 243.5t261.5 97.5z
M614 689h-110q-100 0 -151 -36v-315q0 -70 45.5 -112.5t112.5 -42.5h103q62 0 107 43.5t45 111.5v196q0 68 -44.5 111.5t-107.5 43.5z" />
    <glyph glyph-name="uni0432" unicode="&#x432;" horiz-adv-x="1081" 
d="M124 1024h596q112 0 187 -75.5t75 -173.5v-71q0 -106 -86 -169q47 -30 75 -79.5t28 -105.5v-101q0 -105 -74.5 -177t-188.5 -72h-612v1024zM382 853v-246h261q46 0 74 28.5t28 73.5v41q0 44 -28.5 73.5t-73.5 29.5h-261zM382 439v-264h277q46 0 74.5 28t28.5 74v59
q0 45 -28.5 74t-74.5 29h-277z" />
    <glyph glyph-name="uni0433" unicode="&#x433;" horiz-adv-x="903" 
d="M841 815h-459v-815h-258v1024h717v-209z" />
    <glyph glyph-name="uni0434" unicode="&#x434;" horiz-adv-x="1261" 
d="M1067 209h139v-373h-263v164h-624v-164h-263v373h93q43 10 68.5 44t25.5 87v684h824v-815zM492 815v-507q-3 -69 -68 -99h394v606h-326z" />
    <glyph glyph-name="uni0435" unicode="&#x435;" horiz-adv-x="1042" 
d="M82 346v335q0 77 28 139.5t73 103t104 67.5t118 38.5t118 11.5q62 0 122 -11.5t118.5 -38.5t102.5 -67t71 -103t27 -140v-227h-642v-123q0 -45 20 -79.5t52.5 -52t65 -26t65.5 -8.5q114 0 385 35l27 -169q-225 -45 -400 -45q-67 0 -128.5 10.5t-122 37t-105 66.5t-72 103
t-27.5 143zM724 571v124q0 46 -20 80.5t-51.5 52t-64 25.5t-65.5 8q-45 0 -88 -14t-78 -53.5t-35 -98.5v-124h402z" />
    <glyph glyph-name="uni0436" unicode="&#x436;" horiz-adv-x="1708" 
d="M1139 541l517 -541h-306l-373 398v-398h-246v398l-373 -398h-306l516 541l-509 483h307l365 -350v351h246v-351l365 350h307z" />
    <glyph glyph-name="uni0437" unicode="&#x437;" horiz-adv-x="1005" 
d="M337 1025h308q112 0 187 -75.5t75 -173.5v-70q0 -56 -30.5 -106t-62.5 -64q37 -13 73 -68t36 -117v-101q0 -105 -74 -177t-188 -72h-324q-109 1 -185 92t-79 202h216q1 -53 27.5 -84t70.5 -31h223q44 0 71 28t27 74v69q0 44 -27 72t-71 28h-222v148h207q43 0 69 28.5
t27 75.5v40q-1 45 -27 74.5t-69 29.5h-209q-43 0 -70 -33t-28 -79h-216q2 110 78.5 200t186.5 90z" />
    <glyph glyph-name="uni0438" unicode="&#x438;" horiz-adv-x="1116" 
d="M998 0h-249v621l-417 -621h-214v1024h250v-632l416 632h214v-1024z" />
    <glyph glyph-name="uni0439" unicode="&#x439;" horiz-adv-x="1116" 
d="M689 1474h169q-6 -116 -68.5 -196t-167.5 -80h-131q-104 0 -166.5 80t-65.5 196h167q3 -57 29 -86.5t69 -29.5h68q40 0 65.5 30t31.5 86zM998 0h-249v620l-417 -620h-214v1024h250v-631l416 631h214v-1024z" />
    <glyph glyph-name="uni043A" unicode="&#x43a;" horiz-adv-x="1120" 
d="M532 541l538 -541h-307l-393 398v-398h-246v1025h246v-351l385 350h307z" />
    <glyph glyph-name="uni043B" unicode="&#x43b;" horiz-adv-x="1163" 
d="M1045 0h-259v814h-326v-575q-3 -102 -87.5 -174.5t-201.5 -72.5h-115v202h19q55 1 90.5 38.5t35.5 98.5v692h844v-1023z" />
    <glyph glyph-name="uni043C" unicode="&#x43c;" horiz-adv-x="1427" 
d="M714 439l305 584h266l34 -1023h-259l-25 704l-246 -477h-149l-248 477l-24 -704h-260l35 1024h268z" />
    <glyph glyph-name="uni043D" unicode="&#x43d;" horiz-adv-x="1138" 
d="M1020 0h-259v419h-382v-419h-261v1024h261v-396h382v396h259v-1024z" />
    <glyph glyph-name="uni043E" unicode="&#x43e;" horiz-adv-x="1067" 
d="M82 356v311q0 94 38 167.5t102 117t143 66t167 22.5q93 0 173 -22t143 -66t99.5 -117.5t36.5 -167.5v-311q0 -94 -36.5 -167t-100 -117.5t-143.5 -67t-172 -22.5q-123 0 -222.5 40t-163.5 126.5t-64 207.5zM735 359v305q0 88 -56 132.5t-147 44.5q-90 0 -145 -44.5
t-55 -132.5v-305q0 -88 55.5 -132.5t144.5 -44.5q91 0 147 44.5t56 132.5z" />
    <glyph glyph-name="uni043F" unicode="&#x43f;" horiz-adv-x="1163" 
d="M1045 0h-258v815h-410v-815h-259v1024h927v-1024z" />
    <glyph glyph-name="uni0440" unicode="&#x440;" horiz-adv-x="1083" 
d="M333 1024l10 -77q144 93 302 93t256.5 -98t98.5 -244v-359q0 -76 -22.5 -136.5t-58.5 -99t-84 -64.5t-96.5 -36.5t-99.5 -10.5q-130 0 -260 47v-412h-255v1397h209zM759 352v317q0 71 -51.5 121.5t-126.5 50.5q-93 0 -201 -60v-587q68 -13 159 -13q35 0 70 8t70.5 26
t57.5 53.5t22 83.5z" />
    <glyph glyph-name="uni0441" unicode="&#x441;" horiz-adv-x="856" 
d="M82 339v343q0 79 27 143t70.5 103.5t101.5 66t114.5 37t115.5 10.5q128 0 272 -32l-15 -193q-118 26 -211 26q-39 0 -76 -9.5t-71.5 -29.5t-55.5 -57.5t-21 -87.5v-297q0 -50 21 -87.5t55.5 -58t71.5 -30t76 -9.5q88 0 211 27l15 -193q-144 -32 -272 -32q-58 0 -115 10.5
t-115 37t-101 66t-70.5 103.5t-27.5 143z" />
    <glyph glyph-name="uni0442" unicode="&#x442;" horiz-adv-x="995" 
d="M945 815h-317v-815h-259v815h-318v209h894v-209z" />
    <glyph glyph-name="uni0443" unicode="&#x443;" horiz-adv-x="1093" 
d="M976 1024v-1049q0 -66 -17.5 -121.5t-49 -94t-72 -67.5t-88.5 -45.5t-95.5 -24.5t-97.5 -9q-164 0 -411 51l30 176q207 -41 327 -41q31 0 64 8t69.5 26t60 55.5t23.5 88.5v104q-155 -89 -286 -91q-91 0 -166 39t-122 119.5t-47 189.5v686h242v-673q0 -73 50.5 -122
t126.5 -49q79 0 202 58v786h257z" />
    <glyph glyph-name="uni0444" unicode="&#x444;" horiz-adv-x="1662" 
d="M925 1434v-456q63 26 144 40.5t141 12.5q165 0 268 -96.5t103 -244.5v-359q0 -161 -95.5 -251t-238.5 -96q-139 3 -288 86v-498h-255v498q-148 -83 -288 -86q-143 6 -238.5 96t-95.5 251v359q0 148 103 244.5t268 96.5q61 2 142 -12t145 -41v456h185zM703 227v587
q-43 11 -105.5 15.5t-96.5 2.5q-76 -5 -126.5 -52.5t-50.5 -117.5v-318q0 -71 49 -117.5t125 -52.5q96 -1 205 53zM1339 344v318q0 70 -50.5 117.5t-126.5 52.5q-34 2 -96.5 -2.5t-105.5 -15.5v-587q109 -54 205 -53q76 6 125 52.5t49 117.5z" />
    <glyph glyph-name="uni0445" unicode="&#x445;" horiz-adv-x="1054" 
d="M698 512l304 -512h-270l-208 370l-206 -370h-266l303 512l-293 512h266l196 -373l198 373h270z" />
    <glyph glyph-name="uni0446" unicode="&#x446;" horiz-adv-x="1249" 
d="M1032 209h162v-404h-263v195h-813v1024h260v-815h396v815h258v-815z" />
    <glyph glyph-name="uni0447" unicode="&#x447;" horiz-adv-x="1054" 
d="M937 0h-258v406q-17 -28 -53.5 -36.5t-97.5 -8.5h-166q-145 0 -212.5 82.5t-67.5 213.5v367h261v-365q0 -44 29.5 -75t75.5 -31h120q54 0 82.5 16t28.5 63v392h258v-1024z" />
    <glyph glyph-name="uni0448" unicode="&#x448;" horiz-adv-x="1583" 
d="M1464 0h-1346v1024h259v-815h285v815h258v-815h286v815h258v-1024z" />
    <glyph glyph-name="uni0449" unicode="&#x449;" horiz-adv-x="1683" 
d="M1465 209h162v-404h-263v195h-1246v1024h260v-815h284v815h259v-815h285v815h259v-815z" />
    <glyph glyph-name="uni044A" unicode="&#x44a;" horiz-adv-x="1169" 
d="M494 627h315q116 0 196 -80t82 -194v-78q0 -111 -82 -193t-196 -82h-571v814h-182v210h438v-397zM494 469v-312h259q51 0 85.5 34t34.5 84v78q0 53 -34 85t-86 31h-259z" />
    <glyph glyph-name="uni044B" unicode="&#x44b;" horiz-adv-x="1488" 
d="M380 628h315q115 0 196 -79.5t82 -194.5v-78q0 -113 -82.5 -194t-195.5 -81h-571v1025h256v-398zM1371 0h-255v1024h255v-1024zM380 470v-312h259q52 0 86 35t34 86v73q0 54 -33.5 86.5t-86.5 31.5h-259z" />
    <glyph glyph-name="uni044C" unicode="&#x44c;" horiz-adv-x="1054" 
d="M380 628h315q115 0 196 -79.5t82 -194.5v-78q0 -113 -82.5 -194t-195.5 -81h-571v1025h256v-398zM380 470v-312h259q52 0 86 35t34 86v73q0 54 -33.5 86.5t-86.5 31.5h-259z" />
    <glyph glyph-name="uni044D" unicode="&#x44d;" horiz-adv-x="856" 
d="M87 814l-15 193q137 31 274 31q63 0 121.5 -11.5t115 -38.5t98.5 -67.5t67.5 -103t25.5 -140.5v-338q0 -78 -26.5 -141t-68.5 -103.5t-99 -67.5t-114.5 -38.5t-117.5 -11.5q-118 0 -276 33l15 193q119 -27 216 -27q49 0 97 14.5t88.5 55t43.5 99.5v96h-336v136h335v96
q-2 38 -18.5 68.5t-41 48.5t-55.5 30t-59 16.5t-54 4.5q-101 0 -216 -27z" />
    <glyph glyph-name="uni044E" unicode="&#x44e;" horiz-adv-x="1527" 
d="M546 615v85q9 114 74.5 192t161 112t213.5 34q91 0 171 -23t143 -68t99.5 -117.5t36.5 -164.5v-309q0 -120 -63 -206.5t-163 -127t-224 -40.5q-118 0 -213.5 34.5t-161 112t-75.5 189.5v89h-171v-407h-256v1024h256v-409h172zM1195 358v304q0 89 -55.5 133.5t-145.5 44.5
t-145.5 -44.5t-55.5 -133.5v-304q0 -89 55.5 -133.5t145.5 -44.5t145.5 44.5t55.5 133.5z" />
    <glyph glyph-name="uni044F" unicode="&#x44f;" horiz-adv-x="1093" 
d="M974 0h-256v360h-182l-186 -360h-278l264 419q-89 18 -147.5 87t-58.5 162v84q0 111 82.5 191.5t195.5 80.5h566v-1024zM718 867h-254q-51 0 -85.5 -34t-34.5 -84v-76q0 -53 33.5 -85.5t86.5 -32.5h254v312z" />
    <glyph glyph-name="uni0451" unicode="&#x451;" horiz-adv-x="1042" 
d="M442 1226h-184v187h184v-187zM777 1226h-185v187h185v-187zM82 346v335q0 77 28 139.5t73 103t104 67.5t118 38.5t118 11.5q62 0 122 -11.5t118.5 -38.5t102.5 -67t71 -103t27 -140v-227h-642v-123q0 -45 20 -79.5t52.5 -52t65 -26t65.5 -8.5q114 0 385 35l27 -169
q-225 -45 -400 -45q-67 0 -128.5 10.5t-122 37t-105 66.5t-72 103t-27.5 143zM724 571v124q0 46 -20 80.5t-51.5 52t-64 25.5t-65.5 8q-45 0 -88 -14t-78 -53.5t-35 -98.5v-124h402z" />
    <glyph glyph-name="Bdotbelow" unicode="&#x1e04;" horiz-adv-x="1308" 
d="M154 1434h695q141 0 227 -90.5t86 -230.5v-71q0 -103 -47 -179.5t-132 -115.5q100 -30 156.5 -112.5t56.5 -203.5v-97q0 -146 -85.5 -240t-226.5 -94h-730v1434zM429 1226v-404h312q69 0 114.5 44.5t45.5 114.5v83q0 67 -46 114.5t-114 47.5h-312zM429 648v-429h341
q69 0 114 45.5t45 116.5v107q0 70 -45 115t-114 45h-341zM761 -313h-233v180h233v-180z" />
    <glyph glyph-name="bdotbelow" unicode="&#x1e05;" horiz-adv-x="1077" 
d="M374 1434v-439q125 46 259 46q64 0 124.5 -18t115.5 -56t88.5 -108t33.5 -164v-369q0 -151 -105 -248.5t-271 -91.5q-137 0 -281 91l-10 -77h-210v1434h256zM752 356v317q0 48 -22 83.5t-57.5 53.5t-70 26t-69.5 8q-90 0 -160 -13v-587q110 -60 198 -60q80 0 131 50.5
t50 121.5zM661 -313h-232v180h232v-180z" />
    <glyph glyph-name="Ddotbelow" unicode="&#x1e0c;" horiz-adv-x="1339" 
d="M165 1435h542q142 0 259.5 -59.5t188.5 -173.5t71 -262v-446q0 -114 -41.5 -208t-112 -156t-165 -96t-200.5 -34h-542v1435zM441 1215v-995h251q109 0 183.5 73t74.5 194v460q0 117 -75 192.5t-183 75.5h-251zM756 -313h-233v180h233v-180z" />
    <glyph glyph-name="ddotbelow" unicode="&#x1e0d;" horiz-adv-x="1077" 
d="M960 0h-210l-10 77q-144 -91 -282 -91q-167 -6 -271.5 91t-104.5 249v369q0 75 22.5 135.5t58.5 99t84.5 64.5t97 36.5t98.5 10.5q139 0 261 -46v439h256v-1434zM704 244v587q-64 12 -163 12q-35 0 -69.5 -8t-69.5 -26t-56.5 -53t-21.5 -83v-318q0 -71 51 -121t131 -50
q88 0 198 60zM670 -313h-232v180h232v-180z" />
    <glyph glyph-name="Dlinebelow" unicode="&#x1e0e;" horiz-adv-x="1339" 
d="M165 1435h542q142 0 259.5 -59.5t188.5 -173.5t71 -262v-446q0 -114 -41.5 -208t-112 -156t-165 -96t-200.5 -34h-542v1435zM441 1215v-995h251q109 0 183.5 73t74.5 194v460q0 117 -75 192.5t-183 75.5h-251zM996 -313h-674v137h674v-137z" />
    <glyph glyph-name="dlinebelow" unicode="&#x1e0f;" horiz-adv-x="1077" 
d="M960 0h-210l-10 77q-144 -91 -282 -91q-167 -6 -271.5 91t-104.5 249v369q0 75 22.5 135.5t58.5 99t84.5 64.5t97 36.5t98.5 10.5q139 0 261 -46v439h256v-1434zM704 244v587q-64 12 -163 12q-35 0 -69.5 -8t-69.5 -26t-56.5 -53t-21.5 -83v-318q0 -71 51 -121t131 -50
q88 0 198 60zM891 -313h-675v137h675v-137z" />
    <glyph glyph-name="Dcircumflexbelow" unicode="&#x1e12;" horiz-adv-x="1339" 
d="M165 1435h542q142 0 259.5 -59.5t188.5 -173.5t71 -262v-446q0 -114 -41.5 -208t-112 -156t-165 -96t-200.5 -34h-542v1435zM441 1215v-995h251q109 0 183.5 73t74.5 194v460q0 117 -75 192.5t-183 75.5h-251zM1044 -426h-229l-146 166l-146 -166h-227l292 317h163z" />
    <glyph glyph-name="dcircumflexbelow" unicode="&#x1e13;" horiz-adv-x="1077" 
d="M960 0h-210l-10 77q-144 -91 -282 -91q-167 -6 -271.5 91t-104.5 249v369q0 75 22.5 135.5t58.5 99t84.5 64.5t97 36.5t98.5 10.5q139 0 261 -46v439h256v-1434zM704 244v587q-64 12 -163 12q-35 0 -69.5 -8t-69.5 -26t-56.5 -53t-21.5 -83v-318q0 -71 51 -121t131 -50
q88 0 198 60zM925 -426h-228l-146 166l-146 -166h-227l292 317h163z" />
    <glyph glyph-name="Hdotbelow" unicode="&#x1e24;" horiz-adv-x="1406" 
d="M1252 0h-276v610h-547v-610h-275v1434h275v-606h547v606h276v-1434zM832 -313h-232v180h232v-180z" />
    <glyph glyph-name="hdotbelow" unicode="&#x1e25;" horiz-adv-x="1097" 
d="M374 1434v-440q120 47 260 47q51 0 99.5 -10.5t96.5 -36t84 -64t58.5 -99t22.5 -136.5v-695h-241v672q0 45 -19.5 79.5t-51 53.5t-65 28.5t-67.5 9.5q-100 2 -177 -13v-830h-256v1434h256zM677 -313h-232v180h232v-180z" />
    <glyph glyph-name="Idieresisacute" unicode="&#x1e2e;" horiz-adv-x="563" 
d="M270 1892h-194l165 301h247zM205 1590h-185v187h185v-187zM540 1590h-185v187h185v-187zM419 0h-275v1434h275v-1434z" />
    <glyph glyph-name="idieresisacute" unicode="&#x1e2f;" horiz-adv-x="436" 
d="M209 1484h-193l165 301h247zM145 1193h-184v188h184v-188zM480 1193h-185v188h185v-188zM347 0h-256v1024h256v-1024z" />
    <glyph glyph-name="Ldotbelow" unicode="&#x1e36;" horiz-adv-x="1130" 
d="M440 218h614v-218h-889v1433h275v-1215zM724 -313h-233v180h233v-180z" />
    <glyph glyph-name="ldotbelow" unicode="&#x1e37;" horiz-adv-x="487" 
d="M379 0h-255v1434h255v-1434zM367 -313h-233v180h233v-180z" />
    <glyph glyph-name="Lcircumflexbelow" unicode="&#x1e3c;" horiz-adv-x="1130" 
d="M440 218h614v-218h-889v1433h275v-1215zM1014 -426h-229l-146 166l-146 -166h-227l292 317h164z" />
    <glyph glyph-name="lcircumflexbelow" unicode="&#x1e3d;" horiz-adv-x="487" 
d="M379 0h-255v1434h255v-1434zM622 -426h-228l-146 166l-146 -166h-227l292 317h163z" />
    <glyph glyph-name="Macute" unicode="&#x1e3e;" horiz-adv-x="1673" 
d="M882 1585h-194l165 301h247zM1539 0h-271l-32 934l-320 -602h-157l-321 602l-34 -934h-270l52 1434h272l378 -751l375 751h272z" />
    <glyph glyph-name="macute" unicode="&#x1e3f;" horiz-adv-x="1681" 
d="M872 1168h-193l165 301h247zM314 1024l9 -80q153 98 286 98q163 0 268 -112q186 112 327 112q170 0 272 -98t102 -248v-696h-231v674q0 74 -52.5 122t-130.5 48q-79 0 -215 -68q19 -44 19 -93v-683h-231v674q0 75 -52 122.5t-133 47.5q-76 0 -194 -58v-786h-245v1024h201
z" />
    <glyph glyph-name="Ndotaccent" unicode="&#x1e44;" 
d="M787 1635h-185v188h185v-188zM1258 0h-269l-584 965v-965h-271v1434h268l584 -971v971h272v-1434z" />
    <glyph glyph-name="ndotaccent" unicode="&#x1e45;" horiz-adv-x="1093" 
d="M639 1226h-184v187h184v-187zM323 1024l10 -80q156 98 302 98q158 0 256.5 -98.5t98.5 -247.5v-696h-242v674q0 73 -50 121.5t-126 48.5q-85 0 -203 -58v-786h-256v1024h210z" />
    <glyph glyph-name="Ndotbelow" unicode="&#x1e46;" 
d="M1258 0h-269l-584 965v-965h-271v1434h268l584 -971v971h272v-1434zM812 -313h-232v180h232v-180z" />
    <glyph glyph-name="ndotbelow" unicode="&#x1e47;" horiz-adv-x="1093" 
d="M323 1024l10 -80q156 98 302 98q158 0 256.5 -98.5t98.5 -247.5v-696h-242v674q0 73 -50 121.5t-126 48.5q-85 0 -203 -58v-786h-256v1024h210zM665 -313h-232v180h232v-180z" />
    <glyph glyph-name="Ncircumflexbelow" unicode="&#x1e4a;" 
d="M1258 0h-269l-584 965v-965h-271v1434h268l584 -971v971h272v-1434zM1068 -426h-229l-146 166l-146 -166h-227l292 317h164z" />
    <glyph glyph-name="ncircumflexbelow" unicode="&#x1e4b;" horiz-adv-x="1093" 
d="M323 1024l10 -80q156 98 302 98q158 0 256.5 -98.5t98.5 -247.5v-696h-242v674q0 73 -50 121.5t-126 48.5q-85 0 -203 -58v-786h-256v1024h210zM921 -426h-229l-146 166l-146 -166h-227l292 317h164z" />
    <glyph glyph-name="Otildeacute" unicode="&#x1e4c;" horiz-adv-x="1382" 
d="M679 1872h-193l165 301h247zM933 1773l106 -111q-105 -111 -203 -123q-72 -6 -144 41q-6 4 -19 13t-19 13.5t-17 11t-18.5 9.5t-18 5.5t-20.5 2.5t-23.5 -5t-25 -11.5t-27 -17.5t-23.5 -17.5t-21 -17.5t-14 -11l-102 112q141 133 238 133q33 0 63 -10.5t46 -20.5t44 -30
q48 -35 91 -34q38 3 107 68zM655 1450h69q103 0 198.5 -36.5t168 -100t115.5 -157t43 -201.5v-478q0 -214 -150.5 -353.5t-374.5 -139.5h-69q-233 0 -377 139t-144 354v478q0 218 149 356.5t372 138.5zM712 1231h-44q-109 -1 -184 -76.5t-75 -192.5v-493q0 -121 75.5 -194
t183.5 -73h44q107 0 184.5 73t77.5 194v493q0 117 -78.5 193t-183.5 76z" />
    <glyph glyph-name="otildeacute" unicode="&#x1e4d;" horiz-adv-x="1087" 
d="M528 1484h-193l165 301h247zM782 1395l105 -111q-105 -111 -202 -123q-74 -6 -144 40q-6 4 -22 15.5t-23.5 16l-20 12t-23.5 10t-23 2.5q-10 0 -23.5 -5t-25.5 -12t-27 -17.5t-23.5 -17.5t-20.5 -17.5t-14 -11.5l-102 113q140 132 238 132q33 0 63 -10.5t46 -20.5t44 -30
q48 -35 91 -34q37 3 107 69zM93 356v311q0 94 38 167.5t102 117t143 66t167 22.5q93 0 173 -22.5t143 -66.5t99 -117t36 -167v-311q0 -94 -36.5 -167t-100 -117.5t-143 -67t-171.5 -22.5q-123 0 -222.5 40t-163.5 126.5t-64 207.5zM745 359v305q0 88 -55.5 132t-146.5 44
q-90 0 -145.5 -44t-55.5 -132v-305q0 -88 56 -132t145 -44q91 0 146.5 44t55.5 132z" />
    <glyph glyph-name="Omacrongrave" unicode="&#x1e50;" horiz-adv-x="1382" 
d="M850 1871h-194l-217 302h246zM1018 1604h-654v156h654v-156zM655 1450h69q103 0 198.5 -36.5t167.5 -100t115 -157t43 -201.5v-478q0 -214 -150 -353.5t-374 -139.5h-69q-233 0 -377 139t-144 354v478q0 218 149 356.5t372 138.5zM712 1231h-44q-109 -1 -184 -76.5
t-75 -192.5v-493q0 -121 75.5 -194t183.5 -73h44q107 0 184.5 73t77.5 194v493q0 117 -78.5 193t-183.5 76z" />
    <glyph glyph-name="omacrongrave" unicode="&#x1e51;" horiz-adv-x="1087" 
d="M747 1484h-194l-218 301h247zM868 1208h-655v156h655v-156zM93 356v311q0 94 38 167.5t102 117t143 66t167 22.5q93 0 173 -22.5t143 -66.5t99 -117t36 -167v-311q0 -94 -36.5 -167t-100 -117.5t-143 -67t-171.5 -22.5q-123 0 -222.5 40t-163.5 126.5t-64 207.5zM745 359
v305q0 88 -55.5 132t-146.5 44q-90 0 -145.5 -44t-55.5 -132v-305q0 -88 56 -132t145 -44q91 0 146.5 44t55.5 132z" />
    <glyph glyph-name="Omacronacute" unicode="&#x1e52;" horiz-adv-x="1382" 
d="M683 1871h-194l165 301h247zM1019 1604h-655v156h655v-156zM655 1450h69q103 0 198.5 -36.5t168 -100t115.5 -157t43 -201.5v-478q0 -214 -150.5 -353.5t-374.5 -139.5h-69q-233 0 -377 139t-144 354v478q0 218 149 356.5t372 138.5zM712 1231h-44q-109 -1 -184 -76.5
t-75 -192.5v-493q0 -121 75.5 -194t183.5 -73h44q107 0 184.5 73t77.5 194v493q0 117 -78.5 193t-183.5 76z" />
    <glyph glyph-name="omacronacute" unicode="&#x1e53;" horiz-adv-x="1087" 
d="M528 1484h-193l165 301h247zM868 1208h-655v156h655v-156zM93 356v311q0 94 38 167.5t102 117t143 66t167 22.5q93 0 173 -22.5t143 -66.5t99 -117t36 -167v-311q0 -94 -36.5 -167t-100 -117.5t-143 -67t-171.5 -22.5q-123 0 -222.5 40t-163.5 126.5t-64 207.5zM745 359
v305q0 88 -55.5 132t-146.5 44q-90 0 -145.5 -44t-55.5 -132v-305q0 -88 56 -132t145 -44q91 0 146.5 44t55.5 132z" />
    <glyph glyph-name="Sdotbelow" unicode="&#x1e62;" horiz-adv-x="1124" 
d="M93 1020v28q0 88 23 157.5t63.5 115t98 75t123 42.5t142.5 13q141 1 233.5 -11.5t176.5 -50.5l-22 -226q-75 36 -159.5 50t-202.5 14q-32 0 -62 -6t-61.5 -20t-51 -44.5t-19.5 -72.5v-26q0 -43 24.5 -77.5t63.5 -53.5l312 -140q140 -57 198.5 -133.5t58.5 -216.5v-33
q-1 -212 -124 -316t-347 -104q-289 0 -456 64l20 225q116 -39 212.5 -54.5t242.5 -14.5q74 0 124 50t50 123v36q0 99 -99 149l-324 142q-130 54 -183.5 121t-54.5 195zM671 -313h-231v180h231v-180z" />
    <glyph glyph-name="sdotbelow" unicode="&#x1e63;" horiz-adv-x="892" 
d="M388 1039h107q150 0 275 -45l-22 -166q-112 41 -225 42h-106q-45 0 -75.5 -30t-30.5 -75q0 -32 16.5 -58t44.5 -36l256 -90q108 -38 156 -103.5t48 -173.5q0 -159 -97 -238.5t-272 -79.5h-97q-164 0 -291 51l21 162q144 -47 262 -46h94q58 0 95.5 39t37.5 95
q0 45 -23 82.5t-61 51.5l-265 91q-96 34 -135 85t-39 147q0 144 84.5 219.5t241.5 75.5zM561 -313h-232v180h232v-180z" />
    <glyph glyph-name="Tdotbelow" unicode="&#x1e6c;" horiz-adv-x="1253" 
d="M1176 1217h-408v-1217h-275v1217h-416v217h1099v-217zM747 -313h-232v180h232v-180z" />
    <glyph glyph-name="tdotbelow" unicode="&#x1e6d;" horiz-adv-x="708" 
d="M413 1024h229v-197h-229v-552q0 -45 28 -70.5t66 -25.5h135v-197h-189q-123 0 -209 79t-86 188v578h-96v197h96v226h255v-226zM466 -313h-233v180h233v-180z" />
    <glyph glyph-name="Tlinebelow" unicode="&#x1e6e;" horiz-adv-x="1253" 
d="M1176 1217h-408v-1217h-275v1217h-416v217h1099v-217zM969 -313h-675v137h675v-137z" />
    <glyph glyph-name="tlinebelow" unicode="&#x1e6f;" horiz-adv-x="708" 
d="M413 1024h229v-197h-229v-552q0 -45 28 -70.5t66 -25.5h135v-197h-189q-123 0 -209 79t-86 188v578h-96v197h96v226h255v-226zM687 -313h-675v137h675v-137z" />
    <glyph glyph-name="Tcircumflexbelow" unicode="&#x1e70;" horiz-adv-x="1253" 
d="M1176 1217h-408v-1217h-275v1217h-416v217h1099v-217zM1003 -426h-229l-146 166l-146 -166h-227l292 317h164z" />
    <glyph glyph-name="tcircumflexbelow" unicode="&#x1e71;" horiz-adv-x="708" 
d="M413 1024h229v-197h-229v-552q0 -45 28 -70.5t66 -25.5h135v-197h-189q-123 0 -209 79t-86 188v578h-96v197h96v226h255v-226zM722 -426h-229l-146 166l-146 -166h-228l293 317h163z" />
    <glyph glyph-name="Wgrave" unicode="&#x1e80;" horiz-adv-x="1875" 
d="M1124 1576h-194l-219 302h247zM1497 0h-342l-216 1014l-216 -1014h-342l-309 1434h288l206 -1107l230 1107h285l232 -1107l206 1107h287z" />
    <glyph glyph-name="wgrave" unicode="&#x1e81;" horiz-adv-x="1470" 
d="M919 1166h-193l-218 302h246zM1162 0h-259l-168 622l-168 -622h-260l-249 1024h261l152 -766l175 766h177l176 -766l151 766h262z" />
    <glyph glyph-name="Wacute" unicode="&#x1e82;" horiz-adv-x="1875" 
d="M926 1577h-193l165 301h247zM1497 0h-342l-216 1014l-216 -1014h-342l-309 1434h288l206 -1107l230 1107h285l232 -1107l206 1107h287z" />
    <glyph glyph-name="wacute" unicode="&#x1e83;" horiz-adv-x="1470" 
d="M723 1167h-194l166 301h246zM1162 0h-259l-168 622l-168 -622h-260l-249 1024h261l152 -766l175 766h177l176 -766l151 766h262z" />
    <glyph glyph-name="Wdieresis" unicode="&#x1e84;" horiz-adv-x="1875" 
d="M862 1635h-184v188h184v-188zM1197 1635h-185v188h185v-188zM1497 0h-342l-216 1014l-216 -1014h-342l-309 1434h288l206 -1107l230 1107h285l232 -1107l206 1107h287z" />
    <glyph glyph-name="wdieresis" unicode="&#x1e85;" horiz-adv-x="1470" 
d="M658 1226h-184v187h184v-187zM993 1226h-185v187h185v-187zM1162 0h-259l-168 622l-168 -622h-260l-249 1024h261l152 -766l175 766h177l176 -766l151 766h262z" />
    <glyph glyph-name="Zdotbelow" unicode="&#x1e92;" horiz-adv-x="1232" 
d="M1135 1325l-686 -1106h696v-219h-1058v109l686 1106h-665v219h1027v-109zM750 -313h-233v180h233v-180z" />
    <glyph glyph-name="zdotbelow" unicode="&#x1e93;" horiz-adv-x="923" 
d="M841 889l-486 -701h496v-188h-789v137l487 699h-467v189h759v-136zM602 -313h-232v180h232v-180z" />
    <glyph glyph-name="adotbelow" unicode="&#x1ea1;" horiz-adv-x="1040" 
d="M178 812l-29 185q208 44 352 44q65 0 124 -10.5t117 -37t100.5 -66.5t68.5 -104t26 -144v-679h-211l-12 93q-73 -43 -162.5 -75t-169.5 -32q-139 0 -229 81t-91 218v34q1 69 25.5 121.5t63 84t92.5 51.5t107 27t114 7q100 0 217 -23v82q0 50 -21.5 86.5t-56.5 55t-70 27
t-70 8.5q-122 0 -285 -34zM681 224v247q-70 14 -170 14q-41 0 -75 -6.5t-66 -21.5t-50 -44.5t-18 -71.5v-56q0 -63 42 -101.5t106 -39.5q98 0 231 80zM638 -322h-232v181h232v-181z" />
    <glyph glyph-name="Acircumflexdotbelow" unicode="&#x1eac;" horiz-adv-x="1404" 
d="M1079 1561h-227l-146 166l-146 -167h-229l291 318h164zM1323 0h-288l-103 341h-460l-101 -341h-289l448 1434h345zM512 560h381l-190 647zM809 -313h-232v180h232v-180z" />
    <glyph glyph-name="acircumflexdotbelow" unicode="&#x1ead;" horiz-adv-x="1040" 
d="M897 1152h-227l-147 165l-146 -167h-228l291 318h164zM178 812l-29 185q208 44 352 44q65 0 124 -10.5t117 -37t100.5 -66.5t68.5 -104t26 -144v-679h-211l-12 93q-73 -43 -162.5 -75t-169.5 -32q-139 0 -229 81t-91 218v34q1 69 25.5 121.5t63 84t92.5 51.5t107 27
t114 7q100 0 217 -23v82q0 50 -21.5 86.5t-56.5 55t-70 27t-70 8.5q-122 0 -285 -34zM681 224v247q-70 14 -170 14q-41 0 -75 -6.5t-66 -21.5t-50 -44.5t-18 -71.5v-56q0 -63 41.5 -101.5t106.5 -39.5q98 0 231 80zM638 -322h-232v181h232v-181z" />
    <glyph glyph-name="Edotbelow" unicode="&#x1eb8;" horiz-adv-x="1116" 
d="M1026 1215h-605v-379h528v-219h-528v-398h605v-219h-882v1434h882v-219zM698 -313h-233v180h233v-180z" />
    <glyph glyph-name="edotbelow" unicode="&#x1eb9;" horiz-adv-x="1042" 
d="M82 346v335q0 77 28 139.5t73 103t104 67.5t118 38.5t118 11.5q62 0 122 -11.5t118.5 -38.5t102.5 -67t71 -103t27 -140v-234h-642v-116q0 -45 20 -79.5t52.5 -52t65 -26t65.5 -8.5q114 0 385 35l27 -169q-225 -45 -400 -45q-67 0 -128.5 10.5t-122 37t-105 66.5t-72 103
t-27.5 143zM724 580v115q0 46 -20 80.5t-51.5 52t-64 25.5t-65.5 8q-45 0 -88 -14t-78 -53.5t-35 -98.5v-115h402zM635 -313h-232v180h232v-180z" />
    <glyph glyph-name="Etilde" unicode="&#x1ebc;" horiz-adv-x="1116" 
d="M824 1858l105 -111q-105 -111 -202 -123q-72 -6 -144 41q-6 4 -19 13t-19 13.5t-17 11t-18.5 9.5t-18 5.5t-20.5 2.5q-9 0 -19.5 -3.5t-22.5 -10t-22 -12.5t-22.5 -15.5t-19.5 -15t-17.5 -14t-11.5 -9.5l-101 112q141 133 238 133q33 0 63 -10.5t45.5 -20t43.5 -30.5
q48 -35 91 -34q39 3 108 68zM1025 1215h-604v-380h527v-218h-527v-398h604v-219h-881v1434h881v-219z" />
    <glyph glyph-name="etilde" unicode="&#x1ebd;" horiz-adv-x="1042" 
d="M761 1449l105 -111q-105 -111 -202 -123q-74 -6 -144 40q-6 4 -22 15.5t-23.5 16l-20 12t-23.5 10t-23 2.5q-10 0 -24 -5t-25.5 -11.5t-27 -18t-23.5 -18t-21 -17t-14 -11.5l-102 113q140 132 239 132q33 0 63 -10.5t45.5 -20t43.5 -30.5q48 -35 91 -34q38 3 108 69z
M82 346v335q0 77 28 139.5t73 103t104 67.5t118 38.5t118 11.5q62 0 122 -11.5t118.5 -38.5t102.5 -67t71 -103t27 -140v-234h-642v-116q0 -45 20 -79.5t52.5 -52t65 -26t65.5 -8.5q114 0 385 35l27 -169q-225 -45 -400 -45q-67 0 -128.5 10.5t-122 37t-105 66.5t-72 103
t-27.5 143zM724 580v115q0 46 -20 80.5t-51.5 52t-64 25.5t-65.5 8q-45 0 -88 -14t-78 -53.5t-35 -98.5v-115h402z" />
    <glyph glyph-name="Ecircumflexdotbelow" unicode="&#x1ec6;" horiz-adv-x="1116" 
d="M956 1561h-227l-146 166l-146 -167h-228l291 318h163zM1026 1215h-605v-379h528v-219h-528v-398h605v-219h-882v1434h882v-219zM698 -313h-233v180h233v-180z" />
    <glyph glyph-name="ecircumflexdotbelow" unicode="&#x1ec7;" horiz-adv-x="1042" 
d="M893 1152h-227l-147 165l-146 -167h-228l291 318h164zM82 346v335q0 77 28 139.5t73 103t104 67.5t118 38.5t118 11.5q62 0 122 -11.5t118.5 -38.5t102.5 -67t71 -103t27 -140v-234h-642v-116q0 -45 20 -79.5t52.5 -52t65 -26t65.5 -8.5q114 0 385 35l27 -169
q-225 -45 -400 -45q-67 0 -128.5 10.5t-122 37t-105 66.5t-72 103t-27.5 143zM724 580v115q0 46 -20 80.5t-51.5 52t-64 25.5t-65.5 8q-45 0 -88 -14t-78 -53.5t-35 -98.5v-115h402zM635 -313h-232v180h232v-180z" />
    <glyph glyph-name="Idotbelow" unicode="&#x1eca;" horiz-adv-x="583" 
d="M429 0h-275v1434h275v-1434zM415 -313h-232v180h232v-180z" />
    <glyph glyph-name="idotbelow" unicode="&#x1ecb;" horiz-adv-x="516" 
d="M396 1176h-275v195h275v-195zM387 0h-256v1024h256v-1024zM375 -313h-232v180h232v-180z" />
    <glyph glyph-name="Odotbelow" unicode="&#x1ecc;" horiz-adv-x="1341" 
d="M634 1450h69q103 0 198.5 -36.5t168 -100t115.5 -157t43 -201.5v-478q0 -214 -150.5 -353.5t-374.5 -139.5h-69q-233 0 -377 139t-144 354v478q0 218 149 356.5t372 138.5zM692 1231h-45q-109 -1 -184 -76.5t-75 -192.5v-493q0 -121 75.5 -194t183.5 -73h45
q107 0 184 72.5t77 194.5v493q0 117 -78 193t-183 76zM787 -324h-232v181h232v-181z" />
    <glyph glyph-name="odotbelow" unicode="&#x1ecd;" horiz-adv-x="1067" 
d="M82 356v311q0 94 38 167.5t102 117t143 66t167 22.5q93 0 173 -22t143 -66t99.5 -117.5t36.5 -167.5v-311q0 -94 -36.5 -167t-100 -117.5t-143.5 -67t-172 -22.5q-123 0 -222.5 40t-163.5 126.5t-64 207.5zM735 359v305q0 88 -56 132.5t-147 44.5q-90 0 -145 -44.5
t-55 -132.5v-305q0 -88 55.5 -132.5t144.5 -44.5q91 0 147 44.5t56 132.5zM647 -313h-233v180h233v-180z" />
    <glyph glyph-name="Ocircumflexdotbelow" unicode="&#x1ed8;" horiz-adv-x="1341" 
d="M1045 1561h-227l-147 166l-146 -167h-228l292 318h163zM634 1450h69q103 0 198.5 -36.5t168 -100t115.5 -157t43 -201.5v-478q0 -214 -150.5 -353.5t-374.5 -139.5h-69q-233 0 -377 139t-144 354v478q0 218 149 356.5t372 138.5zM692 1231h-45q-109 -1 -184 -76.5
t-75 -192.5v-493q0 -121 75.5 -194t183.5 -73h45q107 0 184 72.5t77 194.5v493q0 117 -78 193t-183 76zM787 -324h-232v181h232v-181z" />
    <glyph glyph-name="ocircumflexdotbelow" unicode="&#x1ed9;" horiz-adv-x="1067" 
d="M905 1152h-228l-146 165l-146 -166h-228l291 317h163zM82 356v311q0 94 38 167.5t102 117t143 66t167 22.5q93 0 173 -22t143 -66t99.5 -117.5t36.5 -167.5v-311q0 -94 -36.5 -167t-100 -117.5t-143.5 -67t-172 -22.5q-123 0 -222.5 40t-163.5 126.5t-64 207.5zM735 359
v305q0 88 -56 132.5t-147 44.5q-90 0 -145 -44.5t-55 -132.5v-305q0 -88 55.5 -132.5t144.5 -44.5q91 0 147 44.5t56 132.5zM647 -313h-232v180h232v-180z" />
    <glyph glyph-name="Udotbelow" unicode="&#x1ee4;" 
d="M1244 1434v-975q0 -115 -42.5 -207.5t-115.5 -150t-165 -87.5t-196 -30h-65q-147 0 -262 52.5t-184.5 161.5t-69.5 261v975h275v-975q0 -121 73.5 -189t180.5 -68h44q104 0 178 68.5t74 188.5v975h275zM809 -324h-232v181h232v-181z" />
    <glyph glyph-name="udotbelow" unicode="&#x1ee5;" horiz-adv-x="1087" 
d="M980 0h-211l-10 80q-158 -99 -290 -99q-166 0 -266 98t-100 249v696h242v-673q0 -75 52.5 -123t133.5 -48q77 0 193 58v786h256v-1024zM681 -313h-232v180h232v-180z" />
    <glyph glyph-name="Ygrave" unicode="&#x1ef2;" horiz-adv-x="1325" 
d="M849 1576h-194l-218 302h247zM800 588v-588h-275v590l-457 844h295l299 -592l301 592h295z" />
    <glyph glyph-name="ygrave" unicode="&#x1ef3;" horiz-adv-x="1093" 
d="M730 1166h-194l-217 302h246zM976 1024v-1049q0 -66 -17.5 -121.5t-49 -94t-72 -67.5t-88.5 -45.5t-95.5 -24.5t-97.5 -9q-164 0 -411 51l30 176q207 -41 327 -41q31 0 64 8t69.5 26t60 55.5t23.5 88.5v104q-155 -89 -286 -91q-91 0 -166 39t-122 119.5t-47 189.5v686
h242v-673q0 -73 50.5 -122t126.5 -49q79 0 202 58v786h257z" />
    <glyph glyph-name="endash" unicode="&#x2013;" horiz-adv-x="1150" 
d="M1069 449h-987v196h987v-196z" />
    <glyph glyph-name="emdash" unicode="&#x2014;" horiz-adv-x="1501" 
d="M1418 449h-1336v196h1336v-196z" />
    <glyph glyph-name="quoteleft" unicode="&#x2018;" horiz-adv-x="434" 
d="M286 1380h66v-226h-273v142l114 216h159z" />
    <glyph glyph-name="quoteright" unicode="&#x2019;" horiz-adv-x="432" 
d="M354 1371l-113 -217h-160l66 132h-66v226h273v-141z" />
    <glyph glyph-name="quotesinglbase" unicode="&#x201a;" horiz-adv-x="432" 
d="M355 78l-114 -215h-160l66 131h-66v226h274v-142z" />
    <glyph glyph-name="quotedblleft" unicode="&#x201c;" horiz-adv-x="770" 
d="M288 1380h67v-226h-274v142l114 216h160zM621 1380h66v-226h-273v142l114 216h159z" />
    <glyph glyph-name="quotedblright" unicode="&#x201d;" horiz-adv-x="768" 
d="M355 1371l-113 -217h-160l67 132h-67v226h273v-141zM688 1371l-114 -217h-159l66 132h-66v226h273v-141z" />
    <glyph glyph-name="quotedblbase" unicode="&#x201e;" horiz-adv-x="768" 
d="M356 78l-114 -215h-160l67 131h-67v226h274v-142zM687 78l-114 -215h-160l67 131h-67v226h274v-142z" />
    <glyph glyph-name="dagger" unicode="&#x2020;" horiz-adv-x="811" 
d="M533 1023h210v-212h-210v-1036h-255v1036h-210v212h210v411h255v-411z" />
    <glyph glyph-name="daggerdbl" unicode="&#x2021;" horiz-adv-x="813" 
d="M534 1023h210v-212h-210v-413h210v-213h-210v-410h-255v410h-210v213h210v413h-210v212h210v411h255v-411z" />
    <glyph glyph-name="bullet" unicode="&#x2022;" horiz-adv-x="733" 
d="M367 917q122 0 204.5 -83t82.5 -203q0 -124 -82.5 -207.5t-204.5 -83.5t-205 83.5t-83 207.5q0 120 83 203t205 83z" />
    <glyph glyph-name="ellipsis" unicode="&#x2026;" horiz-adv-x="1292" 
d="M356 0h-274v220h274v-220zM783 0h-274v220h274v-220zM1210 0h-274v220h274v-220z" />
    <glyph glyph-name="perthousand" unicode="&#x2030;" horiz-adv-x="2134" 
d="M365 -35h-181l935 1503h180zM313 1446h58q91 0 161 -56t70 -151v-339q0 -96 -70.5 -151t-161.5 -55h-56q-89 0 -160.5 54.5t-71.5 151.5v339q0 65 36.5 114t87.5 71t107 22zM346 1326h-7q-42 0 -76 -22.5t-33 -69.5v-329q0 -47 33.5 -70t75.5 -23h7q43 0 76 23.5t32 69.5
v329q0 45 -32.5 68t-75.5 24zM1762 739h60q90 0 159.5 -56t69.5 -151v-339q0 -95 -70 -150t-161 -55h-57q-89 0 -160 54.5t-71 150.5v339q0 97 71 152t159 55zM1127 739h60q90 0 160 -56t70 -151v-339q0 -95 -70.5 -150t-161.5 -55h-57q-89 0 -160 54.5t-71 150.5v339
q0 97 71 152t159 55zM1161 619h-7q-43 0 -76.5 -22.5t-32.5 -69.5v-329q0 -46 33 -69t74 -23h7q44 0 77.5 23t32.5 69v329q0 46 -33 69t-75 23zM1796 619h-8q-43 0 -76 -22.5t-32 -69.5v-329q0 -47 32.5 -69.5t73.5 -22.5h8q44 0 77 23t32 69v329q0 46 -32.5 69t-74.5 23z
" />
    <glyph glyph-name="guilsinglleft" unicode="&#x2039;" horiz-adv-x="528" 
d="M436 686l-154 -122l154 -120v-216l-367 292v91l367 291v-216z" />
    <glyph glyph-name="guilsinglright" unicode="&#x203a;" horiz-adv-x="528" 
d="M460 611v-91l-368 -292v216l155 120l-155 122v216z" />
    <glyph glyph-name="fraction" unicode="&#x2044;" horiz-adv-x="1009" 
d="M261 -35h-179l668 1502h177z" />
    <glyph glyph-name="Euro" unicode="&#x20ac;" horiz-adv-x="1120" 
d="M671 1451h55q141 0 307 -42l-16 -203q-163 25 -290 26h-42q-99 0 -171 -65t-80 -164v-57h491v-151h-498v-148h435v-152h-426v-65q7 -99 78.5 -163t170.5 -64h42q127 1 290 26l16 -203q-166 -42 -307 -42h-55q-134 0 -246.5 52.5t-185 153.5t-84.5 235v70h-145v152h142
v148h-142v151h146v63q18 201 163.5 321.5t351.5 120.5z" />
    <glyph glyph-name="trademark" unicode="&#x2122;" horiz-adv-x="1507" 
d="M1425 707h-157l-14 425l-143 -262h-90l-143 262l-15 -425h-157l27 728h152l181 -355l178 355h154zM644 1308h-202v-601h-160v601h-205v127h567v-127z" />
    <glyph glyph-name="oneeighth" unicode="&#x215b;" horiz-adv-x="1335" 
d="M355 -35h-177l666 1502h178zM370 697h-149v583l-95 -24l-39 124l170 53h113v-736zM954 741h79q84 0 143 -56t59 -135v-46q0 -78 -62 -121q32 -19 52.5 -53t20.5 -78v-73q0 -80 -59 -135.5t-145 -55.5h-100q-85 0 -144 56.5t-59 136.5v73q0 43 24.5 79t50.5 49
q-65 43 -65 122v46q1 80 60 135.5t145 55.5zM1016 623h-44q-32 0 -54.5 -21t-22.5 -52v-48q0 -31 22 -52.5t54 -21.5h46q31 1 52.5 22t21.5 52v48q0 31 -22 52t-53 21zM1020 339h-54q-32 0 -54 -21t-22 -52v-87q0 -31 21.5 -52.5t53.5 -21.5h54q32 0 55 21.5t23 52.5v87
q0 31 -22.5 52t-54.5 21z" />
    <glyph glyph-name="threeeighths" unicode="&#x215c;" horiz-adv-x="1423" 
d="M460 -35h-178l667 1502h178zM287 1449h66q80 -2 137 -55.5t57 -129.5v-51q0 -76 -67 -121q34 -21 53.5 -56.5t19.5 -71.5v-83q0 -76 -58 -130.5t-138 -54.5h-70q-110 0 -183 45l24 109q72 -30 170 -30h34q30 0 49.5 19t19.5 47v78q0 29 -19.5 47.5t-49.5 18.5h-80v117h80
q30 0 49.5 18.5t19.5 47.5v45q0 28 -18.5 45.5t-51.5 21.5h-33q-98 0 -169 -25l-26 106q79 43 184 43zM1059 742h79q84 0 143 -56t59 -135v-46q0 -77 -63 -121q32 -19 53 -53t21 -78v-73q0 -80 -59 -135t-145 -55h-100q-85 0 -144 55t-59 135v73q0 43 24 79.5t50 50.5
q-64 42 -64 122v46q1 80 60 135.5t145 55.5zM1121 624h-44q-33 0 -55.5 -21t-22.5 -52v-48q0 -31 22.5 -52.5t54.5 -21.5h46q32 1 53 22t21 52v48q0 31 -22 52t-53 21zM1125 340h-55q-32 0 -54 -21t-22 -52v-87q0 -31 21.5 -52.5t53.5 -21.5h55q32 0 54.5 21.5t22.5 52.5v87
q0 31 -22 52t-54 21z" />
    <glyph glyph-name="fiveeighths" unicode="&#x215d;" horiz-adv-x="1423" 
d="M460 -35h-178l667 1502h178zM515 1311h-251l-11 -142h96q84 -3 141.5 -55t57.5 -126v-112q0 -80 -58.5 -134t-139.5 -54h-71q-123 0 -193 53l25 106q31 -17 65 -25.5t52.5 -9.5t51.5 -1h47q31 0 51.5 20t20.5 50v95q0 29 -21.5 48.5t-51.5 20.5h-168l-64 44l37 344h384
v-122zM1059 742h79q84 0 142.5 -55.5t58.5 -135.5v-46q0 -78 -62 -121q32 -19 53 -53t21 -78v-73q0 -80 -59 -135t-145 -55h-100q-85 0 -144 55t-59 135v73q0 44 24.5 80.5t49.5 49.5q-64 42 -64 122v46q1 80 60 135.5t145 55.5zM1121 624h-44q-33 0 -55.5 -21t-22.5 -52
v-48q0 -31 22.5 -52.5t54.5 -21.5h46q32 1 53 22t21 52v48q0 31 -22 52t-53 21zM1125 340h-55q-32 0 -54 -21t-22 -52v-87q0 -31 21.5 -52.5t53.5 -21.5h55q32 0 54.5 21.5t22.5 52.5v87q0 31 -22 52t-54 21z" />
    <glyph glyph-name="seveneighths" unicode="&#x215e;" horiz-adv-x="1298" 
d="M328 -35h-178l667 1502h177zM308 695h-166l238 606h-292v132h510zM926 741h79q84 0 142.5 -55.5t58.5 -135.5v-46q0 -78 -62 -121q32 -19 52.5 -53t20.5 -78v-73q0 -80 -59 -135.5t-144 -55.5h-101q-85 0 -143.5 55.5t-58.5 135.5v73q0 43 24 79.5t50 50.5
q-64 42 -64 122v46q1 80 60 135.5t145 55.5zM988 623h-45q-32 0 -54.5 -21t-22.5 -52v-48q0 -31 22 -52.5t54 -21.5h47q31 1 52.5 22t21.5 52v48q0 31 -22 52t-53 21zM992 339h-55q-32 0 -54 -21t-22 -52v-87q0 -31 21.5 -52.5t53.5 -21.5h55q32 0 54.5 21.5t22.5 52.5v87
q0 31 -22 52t-54 21z" />
    <glyph glyph-name="partialdiff" unicode="&#x2202;" horiz-adv-x="1787" 
 />
    <glyph glyph-name="emptyset" unicode="&#x2205;" horiz-adv-x="1228" 
 />
    <glyph glyph-name="product" unicode="&#x220f;" horiz-adv-x="1787" 
 />
    <glyph glyph-name="summation" unicode="&#x2211;" horiz-adv-x="1787" 
 />
    <glyph glyph-name="minus" unicode="&#x2212;" horiz-adv-x="1142" 
d="M1061 506h-979v213h979v-213z" />
    <glyph glyph-name="radical" unicode="&#x221a;" horiz-adv-x="1787" 
 />
    <glyph glyph-name="infinity" unicode="&#x221e;" horiz-adv-x="1787" 
 />
    <glyph glyph-name="integral" unicode="&#x222b;" horiz-adv-x="1787" 
 />
    <glyph glyph-name="approxequal" unicode="&#x2248;" horiz-adv-x="1204" 
d="M266 624l-186 26q2 161 99.5 269.5t249.5 108.5q71 0 119.5 -28.5t99.5 -83.5q79 -86 145 -86q57 0 98 49.5t47 129.5l188 -19q-4 -99 -43.5 -183.5t-111.5 -136.5t-163 -52q-20 0 -39 2.5t-36.5 9.5t-31 12t-30 17t-25 18t-24.5 21.5t-20.5 20t-20.5 22t-18 19.5
q-65 72 -127 72q-6 0 -20 -2q-61 -8 -103 -64t-47 -142zM266 148l-186 25q2 161 99.5 270t249.5 109q73 0 122 -30t103 -88q76 -81 138 -81q58 0 99 49.5t47 129.5l188 -18q-4 -99 -43.5 -183.5t-111.5 -136.5t-163 -52q-18 0 -36 3t-31.5 6t-30 11t-26.5 12.5t-25 16.5
t-21.5 16.5t-21 19.5t-17.5 18t-18 19t-16 17q-67 74 -129 74q-67 0 -115.5 -57t-54.5 -150z" />
    <glyph glyph-name="notequal" unicode="&#x2260;" horiz-adv-x="1085" 
d="M780 886h244v-212h-339l-73 -166h412v-212h-507l-131 -296h-199l132 296h-244v212h338l74 166h-412v212h507l146 330h198z" />
    <glyph glyph-name="lessequal" unicode="&#x2264;" horiz-adv-x="890" 
d="M819 1023l-560 -238l560 -237v-237l-751 321v307l751 320v-236zM819 -16h-751v211h751v-211z" />
    <glyph glyph-name="greaterequal" unicode="&#x2265;" horiz-adv-x="890" 
d="M823 939v-307l-751 -321v237l560 237l-560 238v236zM823 -16h-751v211h751v-211z" />
    <glyph glyph-name="lozenge" unicode="&#x25ca;" horiz-adv-x="1787" 
 />
    <glyph glyph-name="s_t" unicode="&#xfb06;" horiz-adv-x="1544" 
d="M339 1039h121q23 0 41 -4q-62 67 -62 154q0 89 59 158t151 104t198 35q107 0 197.5 -35.5t147.5 -105.5t58 -161v-160h229v-197h-229v-552q0 -45 28 -70.5t66 -25.5h135v-197h-189q-123 0 -209 79t-86 188v896q-2 65 -53 108t-119 43t-122 -44t-54 -111q0 -41 22.5 -74.5
t58.5 -48.5l41 -25l-22 -165q-112 41 -225 42h-106q-45 0 -75.5 -30t-30.5 -75q0 -32 16.5 -58t44.5 -36l256 -90q107 -38 155 -103t48 -174q0 -159 -96.5 -238.5t-271.5 -79.5h-97q-164 0 -291 51l21 162q144 -47 262 -46h94q58 0 95.5 39t37.5 95q0 45 -23 82.5t-61 51.5
l-265 91q-96 34 -135 85t-39 147q0 135 74 215t204 80z" />
    <glyph glyph-name="uni00540068" horiz-adv-x="2304" 
d="M1553 1434v-439q125 46 260 46q70 0 133.5 -20.5t115.5 -61.5t82.5 -109t30.5 -155v-695h-242v672q0 48 -22 84t-57.5 53.5t-70.5 25.5t-70 8q-87 0 -160 -13v-830h-255v1215h-545v-1215h-276v1215h-415v219h1491z" />
    <glyph glyph-name="uni00630068" horiz-adv-x="1912" 
d="M82 339v343q0 67 21 123.5t54 94.5t78 66.5t89 44t91 22.5q25 3 60 3q21 0 69 -2q-28 27 -45 70t-17 83q0 70 39 128t102 94t138.5 56t151.5 20q150 0 275 -54v-436q126 46 260 46q70 0 133.5 -20.5t115.5 -61.5t82.5 -109t30.5 -155v-695h-242v672q0 48 -22 84
t-57.5 53.5t-70.5 25.5t-70 8q-87 0 -160 -13v-830h-255v1273q-35 22 -82 22q-66 0 -113 -43.5t-47 -107.5q0 -43 25 -79t67 -55l-14 -196q-118 27 -214 27q-39 0 -75.5 -9.5t-70.5 -30t-54.5 -57.5t-20.5 -87v-297q0 -50 20.5 -87.5t55 -57.5t71.5 -29.5t76 -9.5
q89 0 212 27l15 -193q-158 -33 -275 -33q-61 0 -119.5 11.5t-115 39t-98.5 68t-68 103.5t-26 140z" />
    <glyph glyph-name="uni00630074" horiz-adv-x="1521" 
d="M82 339v343q0 68 21 124.5t54 94.5t78 66.5t89.5 43.5t91.5 22q26 3 60 3q20 0 64 -2q-59 67 -59 153q0 64 34.5 120.5t89.5 94.5t125.5 60t142.5 22q108 0 202 -45.5t151 -132.5v-282h228v-197h-228v-552q0 -45 28 -70.5t66 -25.5h134v-197h-188q-120 0 -208 77.5
t-88 189.5v986q-45 60 -123 60q-64 0 -110 -43.5t-46 -107.5q0 -44 25.5 -80t66.5 -54l-14 -196q-118 27 -214 27q-39 0 -75.5 -9.5t-70.5 -30t-54.5 -57.5t-20.5 -87v-297q0 -50 20.5 -87.5t55 -57.5t71.5 -29.5t76 -9.5q89 0 212 27l15 -193q-158 -33 -275 -33
q-61 0 -119.5 11.5t-115 39t-98.5 68t-68 103.5t-26 140z" />
    <glyph glyph-name="uni00660062" horiz-adv-x="1757" 
d="M993 1450v-455q125 46 260 46q70 0 133.5 -20.5t115 -61.5t82 -109t30.5 -155v-369q0 -147 -100 -244t-253 -97q-156 0 -303 92l-10 -77h-210v1251h-236q-38 0 -65.5 -25.5t-27.5 -70.5v-131h228v-197h-228v-827h-256v827h-96v197h96v159q0 111 88 189t207 78h545z
M1371 356v317q0 49 -22 84.5t-57 53t-70 25.5t-70 8q-87 0 -160 -13v-587q110 -60 203 -60q75 0 126 50.5t50 121.5z" />
    <glyph glyph-name="uni00660066006A" horiz-adv-x="1888" 
d="M1325 1251h-135q-38 0 -65.5 -25.5t-27.5 -70.5v-131h663v-1143q0 -108 -86.5 -188t-208.5 -80h-99v199h45q38 0 65.5 25.5t27.5 70.5v919h-407v-827h-256v827h-432v-827h-256v827h-96v197h96v159q0 109 86 188t209 79h189v-199h-135q-38 0 -65.5 -25.5t-27.5 -70.5v-131
h432v159q0 109 86 188t209 79h189v-199z" />
    <glyph glyph-name="uni00660068" horiz-adv-x="1792" 
d="M1053 1450v-455q125 46 259 46q70 0 133.5 -20.5t115.5 -61.5t82.5 -109t30.5 -155v-695h-242v672q0 49 -22 84.5t-57 53t-70 25.5t-70 8q-87 0 -160 -13v-830h-255v1251h-300q-38 0 -65.5 -25.5t-27.5 -70.5v-131h228v-197h-228v-827h-256v827h-96v197h96v159
q0 111 88 189t207 78h609z" />
    <glyph glyph-name="uni0066006A" horiz-adv-x="1200" 
d="M637 1251h-135q-38 0 -65.5 -25.5t-27.5 -70.5v-131h663v-1143q0 -108 -86.5 -188t-208.5 -80h-99v199h45q38 0 65.5 25.5t27.5 70.5v919h-407v-827h-256v827h-96v197h96v159q0 109 86 188t209 79h189v-199z" />
    <glyph glyph-name="uni0066006B" horiz-adv-x="1761" 
d="M1068 606l363 418h271l-411 -483l418 -541h-270l-371 449v-449h-256v1253h-310q-38 0 -65.5 -25.5t-27.5 -70.5v-133h228v-197h-228v-827h-256v827h-96v197h96v159q0 109 86 188t209 79h620v-844z" />
    <glyph glyph-name="uni00730070" horiz-adv-x="1912" 
d="M339 1039h121h2q17 0 37 -4q-59 67 -59 154q0 89 54.5 158t140.5 104t185 35q86 0 162.5 -27t128.5 -77q82 -80 82 -198v-237q144 93 302 93t256.5 -98t98.5 -244v-359q0 -76 -22.5 -136.5t-58.5 -99t-84 -64.5t-96.5 -36.5t-99.5 -10.5q-130 0 -260 47v-412h-255v1513
q0 68 -47 112t-113 44q-64 0 -114.5 -43.5t-50.5 -111.5q0 -41 22.5 -74.5t57.5 -48.5l40 -25l-22 -165q-112 41 -225 42h-106q-45 0 -75.5 -30t-30.5 -75q0 -32 16.5 -58t44.5 -36l256 -90q107 -38 155 -103t48 -174q0 -159 -96.5 -238.5t-271.5 -79.5h-97q-164 0 -291 51
l21 162q148 -47 262 -46h94q58 0 95.5 39t37.5 95q0 45 -23 82.5t-61 51.5l-265 91q-96 34 -135 85t-39 147q0 135 74 215t204 80zM1609 352v317q0 71 -51.5 121.5t-126.5 50.5q-93 0 -201 -60v-587q68 -13 159 -13q35 0 70 8t70.5 26t57.5 53.5t22 83.5z" />
    <glyph glyph-name="zero.lf" horiz-adv-x="1097" 
d="M459 1394h193q146 0 250 -99.5t104 -245.5v-715q0 -146 -104 -246t-250 -100h-193q-157 0 -262.5 99t-105.5 247v715q0 148 106.5 246.5t261.5 98.5zM608 1174h-113q-66 0 -109.5 -44.5t-43.5 -111.5v-654q0 -69 43.5 -113t109.5 -44h113q64 0 106.5 44.5t42.5 112.5v654
q0 67 -43 111.5t-106 44.5z" />
    <glyph glyph-name="one.lf" horiz-adv-x="733" 
d="M580 0h-264v1141l-199 -60l-61 205l350 108h174v-1394z" />
    <glyph glyph-name="two.lf" horiz-adv-x="1067" 
d="M485 1397h126q150 0 255.5 -99t105.5 -241v-43q0 -95 -56 -178.5t-150 -133.5l-300 -159q-52 -27 -85 -75t-33 -110v-164h624v-194h-875v389q0 213 224 329l322 168q36 19 59 52t23 75v26q0 59 -42.5 100.5t-105.5 42.5h-87q-177 0 -309 -50l-28 192q138 73 332 73z" />
    <glyph glyph-name="three.lf" horiz-adv-x="1064" 
d="M440 1397h126q150 0 255.5 -99t105.5 -241v-77q0 -82 -44 -144.5t-112 -93.5q76 -33 121 -101.5t45 -148.5v-162q0 -144 -105.5 -242t-255.5 -100h-136q-202 0 -331 78l38 171q69 -27 138.5 -38t172.5 -11h73q67 0 111.5 43.5t44.5 106.5v155q0 64 -44.5 107.5
t-111.5 44.5h-138v185h138q67 0 111.5 43t44.5 107v66q0 64 -44.5 107.5t-111.5 44.5h-68q-200 0 -318 -44l-37 170q138 73 332 73z" />
    <glyph glyph-name="four.lf" horiz-adv-x="1103" 
d="M307 484h330l64 420h171v-420h181v-199h-181v-284h-235v284h-586v129l386 980h229z" />
    <glyph glyph-name="five.lf" horiz-adv-x="1038" 
d="M856 1194h-479l-25 -309h195q152 0 261.5 -98t109.5 -233v-225q0 -144 -105.5 -242.5t-254.5 -98.5h-136q-222 0 -348 89l37 172q123 -64 313 -62h89q67 0 111.5 43.5t44.5 106.5v195q-1 62 -45 104.5t-108 43.5h-332l-96 77l67 636h701v-199z" />
    <glyph glyph-name="six.lf" horiz-adv-x="1136" 
d="M565 1394h127q113 0 295 -38v-190q-164 26 -292 28h-117q-84 0 -139.5 -55t-55.5 -144v-142q131 23 192 23h135q143 0 236 -92t93 -252v-198q0 -153 -103.5 -249.5t-251.5 -96.5h-188q-171 0 -269 103t-98 296v595q0 187 123 299.5t313 112.5zM641 678h-115
q-87 0 -148 -38v-297q0 -69 43.5 -113t111.5 -44h108q62 0 105 44.5t43 112.5v178q0 67 -43 112t-105 45z" />
    <glyph glyph-name="seven.lf" horiz-adv-x="1040" 
d="M436 0h-276l471 1194h-578v200h932z" />
    <glyph glyph-name="eight.lf" horiz-adv-x="1173" 
d="M512 1397h152q150 0 255.5 -98.5t105.5 -240.5v-82q0 -79 -42 -141.5t-106 -93.5q76 -32 122 -101.5t46 -149.5v-164q0 -142 -105.5 -241t-255.5 -99h-194q-151 0 -256 100t-105 240v164q0 83 48.5 152.5t119.5 100.5q-69 33 -108 95.5t-39 137.5v82q1 142 107 240.5
t255 98.5zM631 1198h-86q-67 0 -111 -43.5t-44 -107.5v-71q0 -63 44 -106t111 -43h91q66 1 108 43.5t42 105.5v71q0 64 -44 107.5t-111 43.5zM640 642h-106q-67 0 -111 -43.5t-44 -107.5v-156q0 -64 44 -107.5t111 -43.5h106q67 0 111 43.5t44 107.5v156q0 64 -44 107.5
t-111 43.5z" />
    <glyph glyph-name="nine.lf" horiz-adv-x="1136" 
d="M453 1394h188q171 0 269 -103.5t98 -296.5v-595q0 -187 -123 -299t-313 -112h-127q-118 0 -295 37v190q164 -26 292 -28h117q84 0 139.5 55.5t55.5 144.5v170q-137 -24 -192 -24h-135q-143 0 -236.5 92.5t-93.5 252.5v169q0 153 104 250t252 97zM604 1195h-109
q-62 0 -104.5 -44.5t-42.5 -112.5v-149q0 -67 43 -112t104 -45h116q87 0 148 38v268q0 69 -43.5 113t-111.5 44z" />
    <glyph glyph-name="zero.osf" horiz-adv-x="1089" 
d="M459 1061h184q146 0 248 -98.5t102 -241.5v-395q0 -145 -103 -243.5t-247 -98.5h-184q-155 0 -259 98t-104 244v395q0 145 105 242.5t258 97.5zM603 874h-110q-70 -1 -117 -49.5t-47 -119.5v-365q0 -73 47 -121.5t117 -48.5h109q68 0 113.5 48.5t45.5 121.5v365
q0 71 -45.5 119.5t-112.5 49.5z" />
    <glyph glyph-name="one.osf" horiz-adv-x="976" 
d="M633 0h-236v790l-192 -59l-58 191l333 102h153v-1024z" />
    <glyph glyph-name="two.osf" horiz-adv-x="1046" 
d="M455 1045h111q146 -1 251 -89t105 -218q0 -169 -202 -259l-260 -114q-110 -46 -113 -128v-60h575v-177h-810v228q0 149 207 250l286 134q84 36 84 106q0 59 -43.5 100.5t-106.5 42.5h-66q-181 0 -294 -45l-37 166q124 63 313 63z" />
    <glyph glyph-name="three.osf" horiz-adv-x="1064" 
d="M439 1042h126q150 0 255 -98.5t105 -240.5v-77q0 -82 -43.5 -144.5t-111.5 -93.5q76 -33 121 -101.5t45 -148.5v-163q0 -144 -105.5 -242t-255.5 -100h-136q-204 0 -331 78l38 172q68 -28 137.5 -38.5t173.5 -10.5h73q67 0 111.5 43.5t44.5 106.5v155q0 64 -44.5 107.5
t-111.5 44.5h-138v184h138q67 0 111.5 43.5t44.5 107.5v66q0 64 -44.5 107.5t-111.5 44.5h-68q-197 0 -318 -45l-37 171q136 72 332 72z" />
    <glyph glyph-name="four.osf" horiz-adv-x="1103" 
d="M307 161h330l64 420h171v-420h181v-198h-181v-285h-235v285h-586v129l386 979h229z" />
    <glyph glyph-name="five.osf" horiz-adv-x="1038" 
d="M856 825h-479l-25 -308h195q152 0 261.5 -98.5t109.5 -233.5v-224q0 -145 -105.5 -243.5t-254.5 -98.5h-136q-221 0 -348 88l37 174q125 -64 313 -61h89q67 0 111.5 43t44.5 106v194q-1 62 -45 104.5t-108 43.5h-332l-96 77l67 636h701v-199z" />
    <glyph glyph-name="six.osf" horiz-adv-x="1136" 
d="M565 1394h127q113 0 295 -38v-190q-164 26 -292 28h-117q-84 0 -139.5 -55t-55.5 -144v-142q131 23 192 23h135q143 0 236 -92t93 -252v-198q0 -153 -103.5 -249.5t-251.5 -96.5h-188q-171 0 -269 103t-98 296v595q0 187 123 299.5t313 112.5zM641 678h-115
q-87 0 -148 -38v-297q0 -69 43.5 -113t111.5 -44h108q62 0 105 44.5t43 112.5v178q0 67 -43 112t-105 45z" />
    <glyph glyph-name="seven.osf" horiz-adv-x="1040" 
d="M436 -324h-276l471 1194h-578v200h932z" />
    <glyph glyph-name="eight.osf" horiz-adv-x="1173" 
d="M512 1397h152q150 0 255.5 -98.5t105.5 -240.5v-82q0 -79 -42 -141.5t-106 -93.5q76 -32 122 -101.5t46 -149.5v-164q0 -142 -105.5 -241t-255.5 -99h-194q-151 0 -256 100t-105 240v164q0 83 48.5 152.5t119.5 100.5q-69 33 -108 95.5t-39 137.5v82q1 142 107 240.5
t255 98.5zM631 1198h-86q-67 0 -111 -43.5t-44 -107.5v-71q0 -63 44 -106t111 -43h91q66 1 108 43.5t42 105.5v71q0 64 -44 107.5t-111 43.5zM640 642h-106q-67 0 -111 -43.5t-44 -107.5v-156q0 -64 44 -107.5t111 -43.5h106q67 0 111 43.5t44 107.5v156q0 64 -44 107.5
t-111 43.5z" />
    <glyph glyph-name="nine.osf" horiz-adv-x="1136" 
d="M453 1060h188q171 0 269 -103t98 -296v-596q0 -187 -123 -299t-313 -112h-127q-118 0 -295 39v188q171 -26 292 -26h117q84 0 139.5 54.5t55.5 143.5v170q-131 -23 -192 -23h-135q-143 0 -236.5 92t-93.5 252v169q0 153 104 250t252 97zM604 861h-109q-62 0 -104.5 -44.5
t-42.5 -112.5v-149q0 -67 43 -112t104 -45h116q87 0 148 38v268q0 69 -43.5 113t-111.5 44z" />
    <glyph glyph-name="zero.tf" horiz-adv-x="1097" 
d="M459 1394h193q146 0 250 -99.5t104 -245.5v-715q0 -146 -104 -246t-250 -100h-193q-157 0 -262.5 99t-105.5 247v715q0 148 106.5 246.5t261.5 98.5zM608 1174h-113q-66 0 -109.5 -44.5t-43.5 -111.5v-654q0 -69 43.5 -113t109.5 -44h113q64 0 106.5 44.5t42.5 112.5v654
q0 67 -43 111.5t-106 44.5z" />
    <glyph glyph-name="one.tf" horiz-adv-x="989" 
d="M645 0h-265v1141l-198 -60l-62 205l350 108h175v-1394z" />
    <glyph glyph-name="two.tf" horiz-adv-x="1067" 
d="M485 1397h126q150 0 255.5 -99t105.5 -241v-43q0 -95 -56 -178.5t-150 -133.5l-300 -159q-52 -27 -85 -75t-33 -110v-164h624v-194h-875v389q0 213 224 329l322 168q36 19 59 52t23 75v26q0 59 -42.5 100.5t-105.5 42.5h-87q-177 0 -309 -50l-28 192q138 73 332 73z" />
    <glyph glyph-name="three.tf" horiz-adv-x="1064" 
d="M440 1397h126q150 0 255.5 -99t105.5 -241v-77q0 -82 -44 -144.5t-112 -93.5q76 -33 121 -101.5t45 -148.5v-162q0 -144 -105.5 -242t-255.5 -100h-136q-202 0 -331 78l38 171q69 -27 138.5 -38t172.5 -11h73q67 0 111.5 43.5t44.5 106.5v155q0 64 -44.5 107.5
t-111.5 44.5h-138v185h138q67 0 111.5 43t44.5 107v66q0 64 -44.5 107.5t-111.5 44.5h-68q-200 0 -318 -44l-37 170q138 73 332 73z" />
    <glyph glyph-name="four.tf" horiz-adv-x="1103" 
d="M307 484h330l64 420h171v-420h181v-199h-181v-284h-235v284h-586v129l386 980h229z" />
    <glyph glyph-name="five.tf" horiz-adv-x="1038" 
d="M856 1194h-479l-25 -309h195q152 0 261.5 -98t109.5 -233v-225q0 -144 -105.5 -242.5t-254.5 -98.5h-136q-222 0 -348 89l37 172q123 -64 313 -62h89q67 0 111.5 43.5t44.5 106.5v195q-1 62 -45 104.5t-108 43.5h-332l-96 77l67 636h701v-199z" />
    <glyph glyph-name="six.tf" horiz-adv-x="1136" 
d="M565 1394h127q113 0 295 -38v-190q-164 26 -292 28h-117q-84 0 -139.5 -55t-55.5 -144v-142q131 23 192 23h135q143 0 236 -92t93 -252v-198q0 -153 -103.5 -249.5t-251.5 -96.5h-188q-171 0 -269 103t-98 296v595q0 187 123 299.5t313 112.5zM641 678h-115
q-87 0 -148 -38v-297q0 -69 43.5 -113t111.5 -44h108q62 0 105 44.5t43 112.5v178q0 67 -43 112t-105 45z" />
    <glyph glyph-name="seven.tf" horiz-adv-x="1040" 
d="M436 0h-276l471 1194h-578v200h932z" />
    <glyph glyph-name="eight.tf" horiz-adv-x="1173" 
d="M512 1397h152q150 0 255.5 -98.5t105.5 -240.5v-82q0 -79 -42 -141.5t-106 -93.5q76 -32 122 -101.5t46 -149.5v-164q0 -142 -105.5 -241t-255.5 -99h-194q-151 0 -256 100t-105 240v164q0 83 48.5 152.5t119.5 100.5q-69 33 -108 95.5t-39 137.5v82q1 142 107 240.5
t255 98.5zM631 1198h-86q-67 0 -111 -43.5t-44 -107.5v-71q0 -63 44 -106t111 -43h91q66 1 108 43.5t42 105.5v71q0 64 -44 107.5t-111 43.5zM640 642h-106q-67 0 -111 -43.5t-44 -107.5v-156q0 -64 44 -107.5t111 -43.5h106q67 0 111 43.5t44 107.5v156q0 64 -44 107.5
t-111 43.5z" />
    <glyph glyph-name="nine.tf" horiz-adv-x="1136" 
d="M453 1394h188q171 0 269 -103.5t98 -296.5v-595q0 -187 -123 -299t-313 -112h-127q-118 0 -295 37v190q164 -26 292 -28h117q84 0 139.5 55.5t55.5 144.5v170q-137 -24 -192 -24h-135q-143 0 -236.5 92.5t-93.5 252.5v169q0 153 104 250t252 97zM604 1195h-109
q-62 0 -104.5 -44.5t-42.5 -112.5v-149q0 -67 43 -112t104 -45h116q87 0 148 38v268q0 69 -43.5 113t-111.5 44z" />
    <glyph glyph-name="zero.tosf" horiz-adv-x="1089" 
d="M459 1061h184q146 0 248 -98.5t102 -241.5v-395q0 -145 -103 -243.5t-247 -98.5h-184q-155 0 -259 98t-104 244v395q0 145 105 242.5t258 97.5zM603 874h-110q-70 -1 -117 -49.5t-47 -119.5v-365q0 -73 47 -121.5t117 -48.5h109q68 0 113.5 48.5t45.5 121.5v365
q0 71 -45.5 119.5t-112.5 49.5z" />
    <glyph glyph-name="one.tosf" horiz-adv-x="974" 
d="M633 0h-236v790l-192 -59l-58 191l333 102h153v-1024z" />
    <glyph glyph-name="two.tosf" horiz-adv-x="1067" 
d="M455 1045h111q146 -1 251 -89t105 -218q0 -169 -202 -259l-260 -114q-110 -46 -113 -128v-60h575v-177h-810v228q0 149 207 250l286 134q84 36 84 106q0 59 -43.5 100.5t-106.5 42.5h-66q-181 0 -294 -45l-37 165q126 64 313 64z" />
    <glyph glyph-name="three.tosf" horiz-adv-x="1064" 
d="M439 1042h126q150 0 255 -98.5t105 -240.5v-77q0 -82 -43.5 -144.5t-111.5 -93.5q76 -33 121 -101.5t45 -148.5v-163q0 -144 -105.5 -242t-255.5 -100h-136q-204 0 -331 78l38 172q68 -28 137.5 -38.5t173.5 -10.5h73q67 0 111.5 43.5t44.5 106.5v155q0 64 -44.5 107.5
t-111.5 44.5h-138v184h138q67 0 111.5 43.5t44.5 107.5v66q0 64 -44.5 107.5t-111.5 44.5h-68q-197 0 -318 -45l-37 171q136 72 332 72z" />
    <glyph glyph-name="four.tosf" horiz-adv-x="1103" 
d="M307 161h330l64 420h171v-420h181v-198h-181v-285h-235v285h-586v129l386 979h229z" />
    <glyph glyph-name="five.tosf" horiz-adv-x="1038" 
d="M856 825h-479l-25 -308h195q152 0 261.5 -98.5t109.5 -233.5v-224q0 -145 -105.5 -243.5t-254.5 -98.5h-136q-221 0 -348 88l37 174q125 -64 313 -61h89q67 0 111.5 43t44.5 106v194q-1 62 -45 104.5t-108 43.5h-332l-96 77l67 636h701v-199z" />
    <glyph glyph-name="six.tosf" horiz-adv-x="1136" 
d="M565 1394h127q113 0 295 -38v-190q-164 26 -292 28h-117q-84 0 -139.5 -55t-55.5 -144v-142q131 23 192 23h135q143 0 236 -92t93 -252v-198q0 -153 -103.5 -249.5t-251.5 -96.5h-188q-171 0 -269 103t-98 296v595q0 187 123 299.5t313 112.5zM641 678h-115
q-87 0 -148 -38v-297q0 -69 43.5 -113t111.5 -44h108q62 0 105 44.5t43 112.5v178q0 67 -43 112t-105 45z" />
    <glyph glyph-name="seven.tosf" horiz-adv-x="1040" 
d="M436 -324h-276l471 1194h-578v200h932z" />
    <glyph glyph-name="eight.tosf" horiz-adv-x="1173" 
d="M512 1397h152q150 0 255.5 -98.5t105.5 -240.5v-82q0 -79 -42 -141.5t-106 -93.5q76 -32 122 -101.5t46 -149.5v-164q0 -142 -105.5 -241t-255.5 -99h-194q-151 0 -256 100t-105 240v164q0 83 48.5 152.5t119.5 100.5q-69 33 -108 95.5t-39 137.5v82q1 142 107 240.5
t255 98.5zM631 1198h-86q-67 0 -111 -43.5t-44 -107.5v-71q0 -63 44 -106t111 -43h91q66 1 108 43.5t42 105.5v71q0 64 -44 107.5t-111 43.5zM640 642h-106q-67 0 -111 -43.5t-44 -107.5v-156q0 -64 44 -107.5t111 -43.5h106q67 0 111 43.5t44 107.5v156q0 64 -44 107.5
t-111 43.5z" />
    <glyph glyph-name="nine.tosf" horiz-adv-x="1136" 
d="M453 1060h188q171 0 269 -103t98 -296v-596q0 -187 -123 -299t-313 -112h-127q-118 0 -295 39v188q171 -26 292 -26h117q84 0 139.5 54.5t55.5 143.5v170q-131 -23 -192 -23h-135q-143 0 -236.5 92t-93.5 252v169q0 153 104 250t252 97zM604 861h-109q-62 0 -104.5 -44.5
t-42.5 -112.5v-149q0 -67 43 -112t104 -45h116q87 0 148 38v268q0 69 -43.5 113t-111.5 44z" />
    <glyph glyph-name="zero.dnom" horiz-adv-x="659" 
d="M299 741h60q90 0 160 -56t70 -151v-338q0 -95 -70.5 -150.5t-161.5 -55.5h-57q-89 0 -160 54.5t-71 150.5v339q0 97 71 152t159 55zM333 621h-7q-43 0 -76.5 -22.5t-32.5 -69.5v-328q0 -47 32.5 -70t73.5 -23h8q44 0 77 23.5t32 69.5v328q0 46 -32.5 69t-74.5 23z" />
    <glyph glyph-name="one.dnom" horiz-adv-x="444" 
d="M363 0h-149v583l-95 -25l-39 125l170 52h113v-735z" />
    <glyph glyph-name="two.dnom" horiz-adv-x="645" 
d="M296 745h64q81 0 138.5 -53.5t57.5 -129.5v-22q0 -53 -30 -98t-80 -72l-152 -79q-54 -27 -54 -85v-86h316v-120h-469v223q0 112 121 176l160 84q38 20 38 56v13q0 26 -19 43.5t-47 17.5h-41q-93 0 -167 -30l-16 121q74 41 180 41z" />
    <glyph glyph-name="three.dnom" horiz-adv-x="634" 
d="M284 744h65q80 -2 137.5 -55.5t57.5 -129.5v-51q0 -76 -67 -121q34 -21 53.5 -56.5t19.5 -71.5v-83q0 -76 -57.5 -130t-138.5 -54h-70q-112 0 -183 44l24 109q72 -30 169 -30h35q30 0 49.5 18.5t19.5 46.5v79q0 29 -19.5 47.5t-49.5 18.5h-81v117h81q30 0 49.5 18.5
t19.5 47.5v45q0 28 -18.5 45.5t-51.5 21.5h-33q-98 0 -169 -25l-26 106q79 43 184 43z" />
    <glyph glyph-name="four.dnom" horiz-adv-x="710" 
d="M238 272h157l31 217h109v-217h90v-132h-90v-144h-143v144h-317v82l195 512h148z" />
    <glyph glyph-name="five.dnom" horiz-adv-x="696" 
d="M556 613h-252l-11 -143h97q84 -3 141.5 -55t57.5 -126v-111q0 -80 -58.5 -134t-139.5 -54h-71q-124 0 -194 53l26 106q31 -17 65 -25.5t52.5 -9.5t51.5 -1h46q31 0 52 19.5t21 49.5v95q0 29 -21.5 48.5t-51.5 20.5h-169l-63 45l36 343h385v-121z" />
    <glyph glyph-name="six.dnom" horiz-adv-x="649" 
d="M309 743h67q70 0 168 -22v-129q-98 17 -168 18h-60q-33 0 -57 -22t-28 -58v-63q66 9 84 9h67q82 0 135 -52.5t53 -141.5v-97q0 -82 -57 -138.5t-142 -56.5h-98q-89 0 -147.5 56t-58.5 139v329q0 105 70 167t172 62zM349 370h-59q-47 0 -73 -19v-166q0 -34 21.5 -55.5
t53.5 -21.5h56q31 0 52 22t21 55v108q0 33 -21 55t-51 22z" />
    <glyph glyph-name="seven.dnom" horiz-adv-x="649" 
d="M310 -2h-166l238 604h-292v132h510z" />
    <glyph glyph-name="eight.dnom" horiz-adv-x="643" 
d="M279 741h79q84 0 143 -56t59 -135v-46q0 -78 -62 -121q32 -19 52.5 -53t20.5 -78v-73q0 -80 -59 -135.5t-144 -55.5h-101q-85 0 -143.5 55.5t-58.5 135.5v73q0 43 24 79.5t50 50.5q-64 42 -64 122v46q1 80 59.5 135.5t144.5 55.5zM342 623h-45q-32 0 -54.5 -21t-22.5 -52
v-48q0 -31 22 -52.5t54 -21.5h47q31 1 52.5 22t21.5 52v48q0 31 -22 52t-53 21zM346 339h-55q-32 0 -54 -21t-22 -52v-87q0 -31 21.5 -52.5t53.5 -21.5h55q32 0 54.5 21.5t22.5 52.5v87q0 31 -22 52t-54 21z" />
    <glyph glyph-name="nine.dnom" horiz-adv-x="649" 
d="M267 743h98q88 0 146.5 -56.5t58.5 -138.5v-329q0 -105 -69.5 -167t-171.5 -62h-67q-82 0 -168 22v129q105 -17 167 -18h61q33 0 57 21.5t28 56.5v77q-25 -9 -84 -9h-60q-84 0 -139.5 54t-55.5 140v85q0 81 57 138t142 57zM346 625h-56q-31 0 -52 -22t-21 -55v-97
q0 -33 21 -54.5t51 -21.5h59q49 0 73 19v154q0 34 -21.5 55.5t-53.5 21.5z" />
    <glyph glyph-name="zero.numr" horiz-adv-x="659" 
d="M300 1440h58q91 0 161 -56t70 -151v-339q0 -96 -71 -151.5t-162 -55.5h-55q-89 0 -160.5 55t-71.5 152v339q0 97 71.5 152t159.5 55zM333 1320h-7q-43 0 -76.5 -22.5t-32.5 -69.5v-329q0 -47 34 -70t75 -23h7q43 0 75.5 23.5t31.5 69.5v329q0 45 -32 68t-75 24z" />
    <glyph glyph-name="one.numr" horiz-adv-x="444" 
d="M363 699h-149v582l-95 -24l-39 124l170 53h113v-735z" />
    <glyph glyph-name="two.numr" horiz-adv-x="645" 
d="M307 1446h64q81 0 138 -53.5t57 -129.5v-22q0 -53 -29.5 -97.5t-79.5 -71.5l-152 -80q-54 -27 -54 -84v-86h315v-121h-468v223q0 113 121 177l160 83q38 20 38 56v13q0 26 -19 43.5t-47 17.5h-42q-95 0 -166 -29l-16 120q74 41 180 41z" />
    <glyph glyph-name="three.numr" horiz-adv-x="634" 
d="M284 1449h65q80 -2 137.5 -55.5t57.5 -129.5v-51q0 -76 -67 -121q34 -21 53.5 -56.5t19.5 -71.5v-83q0 -76 -58 -130.5t-138 -54.5h-70q-110 0 -183 45l24 109q72 -30 169 -30h35q30 0 49.5 19t19.5 47v78q0 29 -19.5 47.5t-49.5 18.5h-81v117h81q30 0 49.5 18.5
t19.5 47.5v45q0 28 -18.5 45.5t-51.5 21.5h-33q-98 0 -169 -25l-26 106q79 43 184 43z" />
    <glyph glyph-name="four.numr" horiz-adv-x="710" 
d="M238 970h157l31 217h109v-217h90v-132h-90v-143h-143v143h-317v82l195 513h148z" />
    <glyph glyph-name="five.numr" horiz-adv-x="696" 
d="M563 1311h-251l-11 -142h97q84 -3 141 -55t57 -126v-112q0 -80 -58 -134t-139 -54h-71q-124 0 -194 53l26 106q31 -17 65 -25.5t52 -9.5t51 -1h47q31 0 51.5 20t20.5 50v95q0 29 -21.5 48.5t-51.5 20.5h-168l-63 44l36 344h384v-122z" />
    <glyph glyph-name="six.numr" horiz-adv-x="649" 
d="M309 1446h67q70 0 168 -22v-129q-91 15 -168 17h-60q-33 0 -57 -21.5t-28 -57.5v-63q36 8 84 8h67q82 0 135 -52.5t53 -141.5v-97q0 -82 -57 -138.5t-142 -56.5h-98q-89 0 -147.5 56t-58.5 139v329q0 105 70 167.5t172 62.5zM349 1072h-59q-50 0 -73 -18v-167
q0 -34 21.5 -55.5t53.5 -21.5h56q31 0 52 22t21 55v109q0 33 -21 54.5t-51 21.5z" />
    <glyph glyph-name="seven.numr" horiz-adv-x="649" 
d="M310 695h-171l238 606h-292v132h515z" />
    <glyph glyph-name="eight.numr" horiz-adv-x="643" 
d="M279 1446h79q84 0 143 -56t59 -135v-46q0 -77 -62 -120q32 -19 52.5 -53t20.5 -78v-73q0 -80 -59 -136t-144 -56h-101q-85 0 -143.5 56t-58.5 136v73q0 43 24 79.5t50 50.5q-64 42 -64 121v46q1 80 59.5 135.5t144.5 55.5zM342 1328h-45q-32 0 -54.5 -21t-22.5 -52v-47
q0 -31 22 -52.5t54 -21.5h47q32 1 53 21.5t21 51.5v48q0 31 -22 52t-53 21zM346 1045h-55q-32 0 -54 -21t-22 -52v-87q0 -31 21.5 -52.5t53.5 -21.5h55q32 0 54.5 21.5t22.5 52.5v87q0 31 -22 52t-54 21z" />
    <glyph glyph-name="nine.numr" horiz-adv-x="649" 
d="M267 1446h98q88 0 146.5 -56.5t58.5 -138.5v-329q0 -105 -69.5 -167t-171.5 -62h-67q-82 0 -168 22v128q98 -16 167 -17h61q33 0 57 21.5t28 56.5v77q-25 -9 -84 -9h-60q-84 0 -139.5 54t-55.5 140v85q0 81 57 138t142 57zM346 1328h-56q-31 0 -52 -22t-21 -55v-97
q0 -33 21 -54.5t51 -21.5h59q49 0 73 19v154q0 34 -21.5 55.5t-53.5 21.5z" />
    </font>
</defs>
</svg>
